<mxfile host="Electron" modified="2024-05-16T15:04:47.020Z" agent="Mozilla/5.0 (Windows NT 10.0; Win64; x64) AppleWebKit/537.36 (KHTML, like Gecko) draw.io/24.4.0 Chrome/120.0.6099.109 Electron/28.1.0 Safari/537.36" etag="B2um9lvcpJxZ7sd3oHYI" version="24.4.0" type="device">
  <diagram name="Page-1" id="Q3n_UA6wcU6BXdd-liw0">
    <mxGraphModel dx="2100" dy="1258" grid="0" gridSize="10" guides="1" tooltips="1" connect="1" arrows="1" fold="1" page="0" pageScale="1" pageWidth="850" pageHeight="1100" math="0" shadow="0">
      <root>
        <mxCell id="0" />
        <mxCell id="1" parent="0" />
        <mxCell id="AOiycFXxId-lt1XcVsrU-1" value="" style="rounded=0;whiteSpace=wrap;html=1;strokeWidth=7;" vertex="1" parent="1">
          <mxGeometry x="364" y="296" width="1280" height="720" as="geometry" />
        </mxCell>
        <mxCell id="AOiycFXxId-lt1XcVsrU-2" value="&lt;font size=&quot;1&quot; style=&quot;&quot;&gt;&lt;b style=&quot;font-size: 24px;&quot;&gt;PLAY&lt;/b&gt;&lt;/font&gt;" style="rounded=1;whiteSpace=wrap;html=1;strokeWidth=7;" vertex="1" parent="1">
          <mxGeometry x="920" y="605" width="206" height="103" as="geometry" />
        </mxCell>
        <mxCell id="AOiycFXxId-lt1XcVsrU-3" value="&lt;font style=&quot;font-size: 28px;&quot;&gt;&lt;b&gt;Setting&lt;/b&gt;&lt;/font&gt;" style="ellipse;whiteSpace=wrap;html=1;aspect=fixed;strokeWidth=6;" vertex="1" parent="1">
          <mxGeometry x="1516" y="875" width="112" height="112" as="geometry" />
        </mxCell>
        <mxCell id="AOiycFXxId-lt1XcVsrU-4" value="&lt;font style=&quot;font-size: 24px;&quot;&gt;&lt;b&gt;ThÃ´ng tin&amp;nbsp;&lt;/b&gt;&lt;/font&gt;" style="rounded=1;whiteSpace=wrap;html=1;strokeWidth=5;" vertex="1" parent="1">
          <mxGeometry x="391" y="907" width="192" height="71" as="geometry" />
        </mxCell>
        <mxCell id="AOiycFXxId-lt1XcVsrU-5" value="" style="rounded=0;whiteSpace=wrap;html=1;strokeWidth=7;" vertex="1" parent="1">
          <mxGeometry x="1792" y="302" width="1280" height="720" as="geometry" />
        </mxCell>
        <mxCell id="AOiycFXxId-lt1XcVsrU-8" value="&lt;font style=&quot;font-size: 24px;&quot;&gt;1&lt;/font&gt;" style="whiteSpace=wrap;html=1;aspect=fixed;strokeWidth=4;fontStyle=1;fontSize=24;" vertex="1" parent="1">
          <mxGeometry x="2092" y="459" width="80" height="80" as="geometry" />
        </mxCell>
        <mxCell id="AOiycFXxId-lt1XcVsrU-9" value="&lt;span style=&quot;font-size: 24px;&quot;&gt;2&lt;/span&gt;" style="whiteSpace=wrap;html=1;aspect=fixed;strokeWidth=4;fontStyle=1;fontSize=24;" vertex="1" parent="1">
          <mxGeometry x="2232" y="459" width="80" height="80" as="geometry" />
        </mxCell>
        <mxCell id="AOiycFXxId-lt1XcVsrU-10" value="&lt;span style=&quot;font-size: 24px;&quot;&gt;3&lt;/span&gt;" style="whiteSpace=wrap;html=1;aspect=fixed;strokeWidth=4;fontStyle=1;fontSize=24;" vertex="1" parent="1">
          <mxGeometry x="2396" y="459" width="80" height="80" as="geometry" />
        </mxCell>
        <mxCell id="AOiycFXxId-lt1XcVsrU-11" value="&lt;span style=&quot;font-size: 24px;&quot;&gt;4&lt;/span&gt;" style="whiteSpace=wrap;html=1;aspect=fixed;strokeWidth=4;fontStyle=1;fontSize=24;" vertex="1" parent="1">
          <mxGeometry x="2560" y="455" width="80" height="80" as="geometry" />
        </mxCell>
        <mxCell id="AOiycFXxId-lt1XcVsrU-12" value="&lt;span style=&quot;font-size: 24px;&quot;&gt;5&lt;/span&gt;" style="whiteSpace=wrap;html=1;aspect=fixed;strokeWidth=4;fontStyle=1;fontSize=24;" vertex="1" parent="1">
          <mxGeometry x="2724" y="457" width="80" height="80" as="geometry" />
        </mxCell>
        <mxCell id="AOiycFXxId-lt1XcVsrU-13" value="&lt;font style=&quot;font-size: 24px;&quot;&gt;1&lt;/font&gt;" style="whiteSpace=wrap;html=1;aspect=fixed;strokeWidth=4;fontStyle=1;fontSize=24;" vertex="1" parent="1">
          <mxGeometry x="2092" y="583" width="80" height="80" as="geometry" />
        </mxCell>
        <mxCell id="AOiycFXxId-lt1XcVsrU-14" value="&lt;span style=&quot;font-size: 24px;&quot;&gt;2&lt;/span&gt;" style="whiteSpace=wrap;html=1;aspect=fixed;strokeWidth=4;fontStyle=1;fontSize=24;" vertex="1" parent="1">
          <mxGeometry x="2232" y="583" width="80" height="80" as="geometry" />
        </mxCell>
        <mxCell id="AOiycFXxId-lt1XcVsrU-15" value="&lt;span style=&quot;font-size: 24px;&quot;&gt;3&lt;/span&gt;" style="whiteSpace=wrap;html=1;aspect=fixed;strokeWidth=4;fontStyle=1;fontSize=24;" vertex="1" parent="1">
          <mxGeometry x="2396" y="583" width="80" height="80" as="geometry" />
        </mxCell>
        <mxCell id="AOiycFXxId-lt1XcVsrU-16" value="&lt;span style=&quot;font-size: 24px;&quot;&gt;4&lt;/span&gt;" style="whiteSpace=wrap;html=1;aspect=fixed;strokeWidth=4;fontStyle=1;fontSize=24;" vertex="1" parent="1">
          <mxGeometry x="2560" y="579" width="80" height="80" as="geometry" />
        </mxCell>
        <mxCell id="AOiycFXxId-lt1XcVsrU-17" value="&lt;span style=&quot;font-size: 24px;&quot;&gt;5&lt;/span&gt;" style="whiteSpace=wrap;html=1;aspect=fixed;strokeWidth=4;fontStyle=1;fontSize=24;" vertex="1" parent="1">
          <mxGeometry x="2724" y="581" width="80" height="80" as="geometry" />
        </mxCell>
        <mxCell id="AOiycFXxId-lt1XcVsrU-18" value="&lt;font style=&quot;font-size: 24px;&quot;&gt;1&lt;/font&gt;" style="whiteSpace=wrap;html=1;aspect=fixed;strokeWidth=4;fontStyle=1;fontSize=24;" vertex="1" parent="1">
          <mxGeometry x="2092" y="700" width="80" height="80" as="geometry" />
        </mxCell>
        <mxCell id="AOiycFXxId-lt1XcVsrU-19" value="&lt;span style=&quot;font-size: 24px;&quot;&gt;2&lt;/span&gt;" style="whiteSpace=wrap;html=1;aspect=fixed;strokeWidth=4;fontStyle=1;fontSize=24;" vertex="1" parent="1">
          <mxGeometry x="2232" y="700" width="80" height="80" as="geometry" />
        </mxCell>
        <mxCell id="AOiycFXxId-lt1XcVsrU-20" value="&lt;span style=&quot;font-size: 24px;&quot;&gt;3&lt;/span&gt;" style="whiteSpace=wrap;html=1;aspect=fixed;strokeWidth=4;fontStyle=1;fontSize=24;" vertex="1" parent="1">
          <mxGeometry x="2396" y="700" width="80" height="80" as="geometry" />
        </mxCell>
        <mxCell id="AOiycFXxId-lt1XcVsrU-21" value="&lt;span style=&quot;font-size: 24px;&quot;&gt;4&lt;/span&gt;" style="whiteSpace=wrap;html=1;aspect=fixed;strokeWidth=4;fontStyle=1;fontSize=24;" vertex="1" parent="1">
          <mxGeometry x="2560" y="696" width="80" height="80" as="geometry" />
        </mxCell>
        <mxCell id="AOiycFXxId-lt1XcVsrU-22" value="&lt;span style=&quot;font-size: 24px;&quot;&gt;5&lt;/span&gt;" style="whiteSpace=wrap;html=1;aspect=fixed;strokeWidth=4;fontStyle=1;fontSize=24;" vertex="1" parent="1">
          <mxGeometry x="2724" y="698" width="80" height="80" as="geometry" />
        </mxCell>
        <mxCell id="AOiycFXxId-lt1XcVsrU-23" value="&lt;font style=&quot;font-size: 24px;&quot;&gt;1&lt;/font&gt;" style="whiteSpace=wrap;html=1;aspect=fixed;strokeWidth=4;fontStyle=1;fontSize=24;" vertex="1" parent="1">
          <mxGeometry x="2092" y="822" width="80" height="80" as="geometry" />
        </mxCell>
        <mxCell id="AOiycFXxId-lt1XcVsrU-24" value="&lt;span style=&quot;font-size: 24px;&quot;&gt;2&lt;/span&gt;" style="whiteSpace=wrap;html=1;aspect=fixed;strokeWidth=4;fontStyle=1;fontSize=24;" vertex="1" parent="1">
          <mxGeometry x="2232" y="822" width="80" height="80" as="geometry" />
        </mxCell>
        <mxCell id="AOiycFXxId-lt1XcVsrU-25" value="&lt;span style=&quot;font-size: 24px;&quot;&gt;3&lt;/span&gt;" style="whiteSpace=wrap;html=1;aspect=fixed;strokeWidth=4;fontStyle=1;fontSize=24;" vertex="1" parent="1">
          <mxGeometry x="2396" y="822" width="80" height="80" as="geometry" />
        </mxCell>
        <mxCell id="AOiycFXxId-lt1XcVsrU-26" value="&lt;span style=&quot;font-size: 24px;&quot;&gt;4&lt;/span&gt;" style="whiteSpace=wrap;html=1;aspect=fixed;strokeWidth=4;fontStyle=1;fontSize=24;" vertex="1" parent="1">
          <mxGeometry x="2560" y="818" width="80" height="80" as="geometry" />
        </mxCell>
        <mxCell id="AOiycFXxId-lt1XcVsrU-27" value="&lt;span style=&quot;font-size: 24px;&quot;&gt;5&lt;/span&gt;" style="whiteSpace=wrap;html=1;aspect=fixed;strokeWidth=4;fontStyle=1;fontSize=24;" vertex="1" parent="1">
          <mxGeometry x="2724" y="820" width="80" height="80" as="geometry" />
        </mxCell>
        <mxCell id="AOiycFXxId-lt1XcVsrU-28" value="&lt;b&gt;&lt;font style=&quot;font-size: 23px;&quot;&gt;BACK&lt;/font&gt;&lt;/b&gt;" style="rounded=1;whiteSpace=wrap;html=1;strokeWidth=5;" vertex="1" parent="1">
          <mxGeometry x="1842" y="332" width="120" height="60" as="geometry" />
        </mxCell>
        <mxCell id="AOiycFXxId-lt1XcVsrU-29" value="&lt;span style=&quot;font-size: 23px;&quot;&gt;&lt;b&gt;UPGRADE&lt;/b&gt;&lt;/span&gt;" style="rounded=1;whiteSpace=wrap;html=1;strokeWidth=5;" vertex="1" parent="1">
          <mxGeometry x="2862" y="336" width="149" height="60" as="geometry" />
        </mxCell>
        <mxCell id="AOiycFXxId-lt1XcVsrU-30" value="" style="rounded=0;whiteSpace=wrap;html=1;strokeWidth=7;" vertex="1" parent="1">
          <mxGeometry x="3242" y="309" width="1280" height="720" as="geometry" />
        </mxCell>
        <mxCell id="AOiycFXxId-lt1XcVsrU-31" value="&lt;b&gt;&lt;font style=&quot;font-size: 23px;&quot;&gt;BACK&lt;/font&gt;&lt;/b&gt;" style="rounded=1;whiteSpace=wrap;html=1;strokeWidth=5;" vertex="1" parent="1">
          <mxGeometry x="3294" y="344" width="120" height="60" as="geometry" />
        </mxCell>
        <mxCell id="AOiycFXxId-lt1XcVsrU-32" value="&lt;span style=&quot;font-size: 23px;&quot;&gt;&lt;b&gt;Information&lt;/b&gt;&lt;/span&gt;" style="rounded=1;whiteSpace=wrap;html=1;strokeWidth=5;" vertex="1" parent="1">
          <mxGeometry x="4202" y="552" width="301" height="414" as="geometry" />
        </mxCell>
        <mxCell id="AOiycFXxId-lt1XcVsrU-33" value="" style="rounded=0;whiteSpace=wrap;html=1;strokeWidth=6;" vertex="1" parent="1">
          <mxGeometry x="3302" y="535" width="81" height="452" as="geometry" />
        </mxCell>
        <mxCell id="AOiycFXxId-lt1XcVsrU-34" value="" style="whiteSpace=wrap;html=1;aspect=fixed;strokeWidth=5;" vertex="1" parent="1">
          <mxGeometry x="3311.5" y="560" width="62" height="62" as="geometry" />
        </mxCell>
        <mxCell id="AOiycFXxId-lt1XcVsrU-35" value="" style="whiteSpace=wrap;html=1;aspect=fixed;strokeWidth=5;" vertex="1" parent="1">
          <mxGeometry x="3309" y="634" width="62" height="62" as="geometry" />
        </mxCell>
        <mxCell id="AOiycFXxId-lt1XcVsrU-36" value="" style="whiteSpace=wrap;html=1;aspect=fixed;strokeWidth=5;" vertex="1" parent="1">
          <mxGeometry x="3309" y="714" width="62" height="62" as="geometry" />
        </mxCell>
        <mxCell id="AOiycFXxId-lt1XcVsrU-37" value="" style="whiteSpace=wrap;html=1;aspect=fixed;strokeWidth=5;" vertex="1" parent="1">
          <mxGeometry x="3311.5" y="799" width="62" height="62" as="geometry" />
        </mxCell>
        <mxCell id="AOiycFXxId-lt1XcVsrU-38" value="" style="whiteSpace=wrap;html=1;aspect=fixed;strokeWidth=5;" vertex="1" parent="1">
          <mxGeometry x="3311.5" y="875" width="62" height="62" as="geometry" />
        </mxCell>
        <mxCell id="AOiycFXxId-lt1XcVsrU-39" value="" style="whiteSpace=wrap;html=1;aspect=fixed;strokeWidth=5;" vertex="1" parent="1">
          <mxGeometry x="3540.5" y="576" width="62" height="62" as="geometry" />
        </mxCell>
        <mxCell id="AOiycFXxId-lt1XcVsrU-40" value="" style="whiteSpace=wrap;html=1;aspect=fixed;strokeWidth=5;" vertex="1" parent="1">
          <mxGeometry x="3538" y="650" width="62" height="62" as="geometry" />
        </mxCell>
        <mxCell id="AOiycFXxId-lt1XcVsrU-41" value="" style="whiteSpace=wrap;html=1;aspect=fixed;strokeWidth=5;" vertex="1" parent="1">
          <mxGeometry x="3538" y="730" width="62" height="62" as="geometry" />
        </mxCell>
        <mxCell id="AOiycFXxId-lt1XcVsrU-42" value="" style="whiteSpace=wrap;html=1;aspect=fixed;strokeWidth=5;" vertex="1" parent="1">
          <mxGeometry x="3732" y="576" width="62" height="62" as="geometry" />
        </mxCell>
        <mxCell id="AOiycFXxId-lt1XcVsrU-43" value="" style="whiteSpace=wrap;html=1;aspect=fixed;strokeWidth=5;" vertex="1" parent="1">
          <mxGeometry x="3732" y="647" width="62" height="62" as="geometry" />
        </mxCell>
        <mxCell id="AOiycFXxId-lt1XcVsrU-44" value="" style="whiteSpace=wrap;html=1;aspect=fixed;strokeWidth=5;" vertex="1" parent="1">
          <mxGeometry x="3732" y="727" width="62" height="62" as="geometry" />
        </mxCell>
        <mxCell id="AOiycFXxId-lt1XcVsrU-45" value="" style="whiteSpace=wrap;html=1;aspect=fixed;strokeWidth=5;" vertex="1" parent="1">
          <mxGeometry x="3942.5" y="573" width="62" height="62" as="geometry" />
        </mxCell>
        <mxCell id="AOiycFXxId-lt1XcVsrU-46" value="" style="whiteSpace=wrap;html=1;aspect=fixed;strokeWidth=5;" vertex="1" parent="1">
          <mxGeometry x="3940" y="647" width="62" height="62" as="geometry" />
        </mxCell>
        <mxCell id="AOiycFXxId-lt1XcVsrU-47" value="" style="whiteSpace=wrap;html=1;aspect=fixed;strokeWidth=5;" vertex="1" parent="1">
          <mxGeometry x="3940" y="727" width="62" height="62" as="geometry" />
        </mxCell>
        <mxCell id="AOiycFXxId-lt1XcVsrU-48" value="&lt;b&gt;&lt;font style=&quot;font-size: 23px;&quot;&gt;UPGRADE&lt;/font&gt;&lt;/b&gt;" style="rounded=1;whiteSpace=wrap;html=1;strokeWidth=5;" vertex="1" parent="1">
          <mxGeometry x="3750" y="359" width="251" height="60" as="geometry" />
        </mxCell>
        <mxCell id="AOiycFXxId-lt1XcVsrU-49" value="&lt;b&gt;&lt;font style=&quot;font-size: 23px;&quot;&gt;500 $&lt;/font&gt;&lt;/b&gt;" style="rounded=1;whiteSpace=wrap;html=1;strokeWidth=5;" vertex="1" parent="1">
          <mxGeometry x="4274" y="359" width="200" height="60" as="geometry" />
        </mxCell>
        <mxCell id="AOiycFXxId-lt1XcVsrU-52" value="" style="shape=link;html=1;rounded=0;entryX=1.121;entryY=0.123;entryDx=0;entryDy=0;entryPerimeter=0;exitX=0;exitY=0.5;exitDx=0;exitDy=0;" edge="1" parent="1" source="AOiycFXxId-lt1XcVsrU-39" target="AOiycFXxId-lt1XcVsrU-33">
          <mxGeometry width="100" relative="1" as="geometry">
            <mxPoint x="3730" y="768" as="sourcePoint" />
            <mxPoint x="3830" y="768" as="targetPoint" />
          </mxGeometry>
        </mxCell>
        <mxCell id="AOiycFXxId-lt1XcVsrU-53" value="" style="shape=link;html=1;rounded=0;exitX=1;exitY=0.5;exitDx=0;exitDy=0;" edge="1" parent="1" source="AOiycFXxId-lt1XcVsrU-42">
          <mxGeometry width="100" relative="1" as="geometry">
            <mxPoint x="3806" y="611" as="sourcePoint" />
            <mxPoint x="3941" y="607" as="targetPoint" />
          </mxGeometry>
        </mxCell>
        <mxCell id="AOiycFXxId-lt1XcVsrU-54" value="" style="shape=link;html=1;rounded=0;exitX=0;exitY=0.5;exitDx=0;exitDy=0;entryX=1;entryY=0.5;entryDx=0;entryDy=0;" edge="1" parent="1" source="AOiycFXxId-lt1XcVsrU-42" target="AOiycFXxId-lt1XcVsrU-39">
          <mxGeometry width="100" relative="1" as="geometry">
            <mxPoint x="3816" y="621" as="sourcePoint" />
            <mxPoint x="3614" y="611" as="targetPoint" />
          </mxGeometry>
        </mxCell>
        <mxCell id="AOiycFXxId-lt1XcVsrU-55" value="" style="rounded=0;whiteSpace=wrap;html=1;strokeWidth=7;" vertex="1" parent="1">
          <mxGeometry x="4670" y="314" width="1280" height="720" as="geometry" />
        </mxCell>
        <mxCell id="AOiycFXxId-lt1XcVsrU-56" value="&lt;b&gt;&lt;font style=&quot;font-size: 23px;&quot;&gt;BACK&lt;/font&gt;&lt;/b&gt;" style="rounded=1;whiteSpace=wrap;html=1;strokeWidth=5;" vertex="1" parent="1">
          <mxGeometry x="4705" y="357" width="120" height="60" as="geometry" />
        </mxCell>
        <mxCell id="AOiycFXxId-lt1XcVsrU-60" value="&lt;b&gt;&lt;font style=&quot;font-size: 16px;&quot;&gt;MUSIC&lt;/font&gt;&lt;/b&gt;" style="rounded=1;whiteSpace=wrap;html=1;strokeWidth=3;" vertex="1" parent="1">
          <mxGeometry x="5017" y="591" width="120" height="60" as="geometry" />
        </mxCell>
        <mxCell id="AOiycFXxId-lt1XcVsrU-61" value="&lt;b&gt;&lt;font style=&quot;font-size: 16px;&quot;&gt;SOUND&lt;/font&gt;&lt;/b&gt;" style="rounded=1;whiteSpace=wrap;html=1;strokeWidth=3;" vertex="1" parent="1">
          <mxGeometry x="5014" y="692" width="120" height="60" as="geometry" />
        </mxCell>
        <mxCell id="AOiycFXxId-lt1XcVsrU-65" value="" style="verticalLabelPosition=bottom;verticalAlign=top;html=1;shape=mxgraph.basic.rect;fillColor2=none;strokeWidth=3;size=20;indent=5;" vertex="1" parent="1">
          <mxGeometry x="5165" y="614.5" width="333" height="9" as="geometry" />
        </mxCell>
        <mxCell id="AOiycFXxId-lt1XcVsrU-67" value="" style="line;strokeWidth=6;html=1;perimeter=backbonePerimeter;points=[];outlineConnect=0;" vertex="1" parent="1">
          <mxGeometry x="5165" y="599.5" width="212" height="39" as="geometry" />
        </mxCell>
        <mxCell id="AOiycFXxId-lt1XcVsrU-68" value="" style="line;strokeWidth=6;html=1;perimeter=backbonePerimeter;points=[];outlineConnect=0;" vertex="1" parent="1">
          <mxGeometry x="5156" y="706" width="212" height="39" as="geometry" />
        </mxCell>
        <mxCell id="AOiycFXxId-lt1XcVsrU-69" value="" style="verticalLabelPosition=bottom;verticalAlign=top;html=1;shape=mxgraph.basic.rect;fillColor2=none;strokeWidth=3;size=20;indent=5;" vertex="1" parent="1">
          <mxGeometry x="5156" y="721" width="333" height="9" as="geometry" />
        </mxCell>
        <mxCell id="AOiycFXxId-lt1XcVsrU-70" value="" style="line;strokeWidth=6;html=1;perimeter=backbonePerimeter;points=[];outlineConnect=0;" vertex="1" parent="1">
          <mxGeometry x="5156" y="706" width="281" height="39" as="geometry" />
        </mxCell>
        <mxCell id="AOiycFXxId-lt1XcVsrU-71" value="" style="line;strokeWidth=6;direction=south;html=1;" vertex="1" parent="1">
          <mxGeometry x="5373" y="605.5" width="10" height="27" as="geometry" />
        </mxCell>
        <mxCell id="AOiycFXxId-lt1XcVsrU-72" value="" style="line;strokeWidth=6;direction=south;html=1;" vertex="1" parent="1">
          <mxGeometry x="5434" y="709" width="10" height="27" as="geometry" />
        </mxCell>
        <mxCell id="AOiycFXxId-lt1XcVsrU-73" value="&lt;b&gt;&lt;font style=&quot;font-size: 23px;&quot;&gt;QUIT&lt;/font&gt;&lt;/b&gt;" style="rounded=1;whiteSpace=wrap;html=1;strokeWidth=5;" vertex="1" parent="1">
          <mxGeometry x="5236.5" y="842" width="120" height="60" as="geometry" />
        </mxCell>
        <mxCell id="AOiycFXxId-lt1XcVsrU-74" value="" style="rounded=0;whiteSpace=wrap;html=1;strokeWidth=7;" vertex="1" parent="1">
          <mxGeometry x="6056" y="314" width="1280" height="720" as="geometry" />
        </mxCell>
        <mxCell id="AOiycFXxId-lt1XcVsrU-75" value="" style="rounded=1;whiteSpace=wrap;html=1;strokeWidth=6;" vertex="1" parent="1">
          <mxGeometry x="6056" y="966" width="189" height="68" as="geometry" />
        </mxCell>
        <mxCell id="AOiycFXxId-lt1XcVsrU-76" value="&lt;div&gt;&lt;b style=&quot;&quot;&gt;&lt;font style=&quot;font-size: 19px;&quot;&gt;&amp;nbsp; &amp;nbsp; 10&amp;nbsp; &amp;nbsp; &amp;nbsp; &amp;nbsp; &amp;nbsp; &amp;nbsp; &amp;nbsp; &amp;nbsp; &amp;nbsp; &amp;nbsp; &amp;nbsp; &amp;nbsp; &amp;nbsp; &amp;nbsp;&amp;nbsp;&lt;/font&gt;&lt;/b&gt;&lt;/div&gt;&lt;b style=&quot;&quot;&gt;&lt;font style=&quot;&quot;&gt;&lt;div style=&quot;font-size: 17px;&quot;&gt;&lt;b style=&quot;&quot;&gt;&lt;font style=&quot;font-size: 17px;&quot;&gt;&lt;br&gt;&lt;/font&gt;&lt;/b&gt;&lt;/div&gt;&lt;font style=&quot;font-size: 20px;&quot;&gt;WAVE&amp;nbsp; 1/10&lt;/font&gt;&lt;/font&gt;&lt;/b&gt;" style="rounded=1;whiteSpace=wrap;html=1;strokeWidth=6;" vertex="1" parent="1">
          <mxGeometry x="6056" y="314" width="274" height="110" as="geometry" />
        </mxCell>
        <mxCell id="AOiycFXxId-lt1XcVsrU-77" value="" style="rounded=1;whiteSpace=wrap;html=1;strokeWidth=6;" vertex="1" parent="1">
          <mxGeometry x="7062" y="314" width="274" height="76" as="geometry" />
        </mxCell>
        <mxCell id="AOiycFXxId-lt1XcVsrU-79" value="" style="rounded=1;whiteSpace=wrap;html=1;strokeWidth=3;" vertex="1" parent="1">
          <mxGeometry x="7086.12" y="333.38" width="37.58" height="41" as="geometry" />
        </mxCell>
        <mxCell id="AOiycFXxId-lt1XcVsrU-80" value="" style="rounded=1;whiteSpace=wrap;html=1;strokeWidth=3;" vertex="1" parent="1">
          <mxGeometry x="7180.21" y="331.5" width="37.58" height="41" as="geometry" />
        </mxCell>
        <mxCell id="AOiycFXxId-lt1XcVsrU-81" value="" style="rounded=1;whiteSpace=wrap;html=1;strokeWidth=3;" vertex="1" parent="1">
          <mxGeometry x="7266" y="331.5" width="37.58" height="41" as="geometry" />
        </mxCell>
        <mxCell id="AOiycFXxId-lt1XcVsrU-82" value="" style="triangle;whiteSpace=wrap;html=1;strokeWidth=8;" vertex="1" parent="1">
          <mxGeometry x="7191" y="350.5" width="2.25" height="3" as="geometry" />
        </mxCell>
        <mxCell id="AOiycFXxId-lt1XcVsrU-83" value="" style="triangle;whiteSpace=wrap;html=1;strokeWidth=8;" vertex="1" parent="1">
          <mxGeometry x="7203" y="350.5" width="2.25" height="3" as="geometry" />
        </mxCell>
        <mxCell id="AOiycFXxId-lt1XcVsrU-84" value="" style="line;strokeWidth=5;direction=south;html=1;" vertex="1" parent="1">
          <mxGeometry x="7275" y="341.5" width="10" height="21" as="geometry" />
        </mxCell>
        <mxCell id="AOiycFXxId-lt1XcVsrU-85" value="" style="line;strokeWidth=5;direction=south;html=1;" vertex="1" parent="1">
          <mxGeometry x="7285" y="341.5" width="10" height="21" as="geometry" />
        </mxCell>
        <mxCell id="AOiycFXxId-lt1XcVsrU-88" value="&lt;font style=&quot;font-size: 17px;&quot;&gt;&lt;b&gt;200 $&lt;/b&gt;&lt;/font&gt;" style="shape=ext;double=1;rounded=1;whiteSpace=wrap;html=1;" vertex="1" parent="1">
          <mxGeometry x="6223" y="326" width="66" height="33" as="geometry" />
        </mxCell>
        <mxCell id="AOiycFXxId-lt1XcVsrU-89" value="" style="ellipse;whiteSpace=wrap;html=1;strokeWidth=2;fillWeight=2;hachureGap=8;fillColor=#990000;fillStyle=dots;sketch=1;" vertex="1" parent="1">
          <mxGeometry x="6076" y="338" width="31" height="15.5" as="geometry" />
        </mxCell>
        <mxCell id="AOiycFXxId-lt1XcVsrU-90" value="" style="verticalLabelPosition=bottom;verticalAlign=top;html=1;shape=mxgraph.basic.sun;strokeWidth=4;" vertex="1" parent="1">
          <mxGeometry x="6081" y="980.5" width="39" height="39" as="geometry" />
        </mxCell>
        <mxCell id="AOiycFXxId-lt1XcVsrU-91" value="" style="verticalLabelPosition=bottom;verticalAlign=top;html=1;shape=mxgraph.basic.donut;dx=23.5;strokeWidth=2;" vertex="1" parent="1">
          <mxGeometry x="6165" y="976.5" width="47" height="47" as="geometry" />
        </mxCell>
        <mxCell id="AOiycFXxId-lt1XcVsrU-92" value="" style="verticalLabelPosition=bottom;verticalAlign=top;html=1;shape=mxgraph.basic.donut;dx=25;strokeWidth=2;" vertex="1" parent="1">
          <mxGeometry x="6170.5" y="982" width="36" height="36" as="geometry" />
        </mxCell>
        <mxCell id="AOiycFXxId-lt1XcVsrU-93" value="" style="verticalLabelPosition=bottom;verticalAlign=top;html=1;shape=mxgraph.flowchart.on-page_reference;strokeWidth=18;" vertex="1" parent="1">
          <mxGeometry x="7103.04" y="352" width="3.75" height="3.75" as="geometry" />
        </mxCell>
        <mxCell id="AOiycFXxId-lt1XcVsrU-97" value="" style="shape=table;startSize=0;container=1;collapsible=0;childLayout=tableLayout;opacity=20;" vertex="1" parent="1">
          <mxGeometry x="6056" y="321" width="1269" height="712" as="geometry" />
        </mxCell>
        <mxCell id="AOiycFXxId-lt1XcVsrU-98" value="" style="shape=tableRow;horizontal=0;startSize=0;swimlaneHead=0;swimlaneBody=0;strokeColor=inherit;top=0;left=0;bottom=0;right=0;collapsible=0;dropTarget=0;fillColor=none;points=[[0,0.5],[1,0.5]];portConstraint=eastwest;" vertex="1" parent="AOiycFXxId-lt1XcVsrU-97">
          <mxGeometry width="1269" height="71" as="geometry" />
        </mxCell>
        <mxCell id="AOiycFXxId-lt1XcVsrU-99" value="" style="shape=partialRectangle;html=1;whiteSpace=wrap;connectable=0;strokeColor=inherit;overflow=hidden;fillColor=none;top=0;left=0;bottom=0;right=0;pointerEvents=1;" vertex="1" parent="AOiycFXxId-lt1XcVsrU-98">
          <mxGeometry width="91" height="71" as="geometry">
            <mxRectangle width="91" height="71" as="alternateBounds" />
          </mxGeometry>
        </mxCell>
        <mxCell id="AOiycFXxId-lt1XcVsrU-100" value="" style="shape=partialRectangle;html=1;whiteSpace=wrap;connectable=0;strokeColor=inherit;overflow=hidden;fillColor=none;top=0;left=0;bottom=0;right=0;pointerEvents=1;" vertex="1" parent="AOiycFXxId-lt1XcVsrU-98">
          <mxGeometry x="91" width="90" height="71" as="geometry">
            <mxRectangle width="90" height="71" as="alternateBounds" />
          </mxGeometry>
        </mxCell>
        <mxCell id="AOiycFXxId-lt1XcVsrU-101" value="" style="shape=partialRectangle;html=1;whiteSpace=wrap;connectable=0;strokeColor=inherit;overflow=hidden;fillColor=none;top=0;left=0;bottom=0;right=0;pointerEvents=1;" vertex="1" parent="AOiycFXxId-lt1XcVsrU-98">
          <mxGeometry x="181" width="91" height="71" as="geometry">
            <mxRectangle width="91" height="71" as="alternateBounds" />
          </mxGeometry>
        </mxCell>
        <mxCell id="AOiycFXxId-lt1XcVsrU-102" value="" style="shape=partialRectangle;html=1;whiteSpace=wrap;connectable=0;strokeColor=inherit;overflow=hidden;fillColor=none;top=0;left=0;bottom=0;right=0;pointerEvents=1;" vertex="1" parent="AOiycFXxId-lt1XcVsrU-98">
          <mxGeometry x="272" width="91" height="71" as="geometry">
            <mxRectangle width="91" height="71" as="alternateBounds" />
          </mxGeometry>
        </mxCell>
        <mxCell id="AOiycFXxId-lt1XcVsrU-103" value="" style="shape=partialRectangle;html=1;whiteSpace=wrap;connectable=0;strokeColor=inherit;overflow=hidden;fillColor=none;top=0;left=0;bottom=0;right=0;pointerEvents=1;" vertex="1" parent="AOiycFXxId-lt1XcVsrU-98">
          <mxGeometry x="363" width="90" height="71" as="geometry">
            <mxRectangle width="90" height="71" as="alternateBounds" />
          </mxGeometry>
        </mxCell>
        <mxCell id="AOiycFXxId-lt1XcVsrU-104" value="" style="shape=partialRectangle;html=1;whiteSpace=wrap;connectable=0;strokeColor=inherit;overflow=hidden;fillColor=none;top=0;left=0;bottom=0;right=0;pointerEvents=1;" vertex="1" parent="AOiycFXxId-lt1XcVsrU-98">
          <mxGeometry x="453" width="91" height="71" as="geometry">
            <mxRectangle width="91" height="71" as="alternateBounds" />
          </mxGeometry>
        </mxCell>
        <mxCell id="AOiycFXxId-lt1XcVsrU-105" value="" style="shape=partialRectangle;html=1;whiteSpace=wrap;connectable=0;strokeColor=inherit;overflow=hidden;fillColor=none;top=0;left=0;bottom=0;right=0;pointerEvents=1;" vertex="1" parent="AOiycFXxId-lt1XcVsrU-98">
          <mxGeometry x="544" width="90" height="71" as="geometry">
            <mxRectangle width="90" height="71" as="alternateBounds" />
          </mxGeometry>
        </mxCell>
        <mxCell id="AOiycFXxId-lt1XcVsrU-106" value="" style="shape=partialRectangle;html=1;whiteSpace=wrap;connectable=0;strokeColor=inherit;overflow=hidden;fillColor=none;top=0;left=0;bottom=0;right=0;pointerEvents=1;" vertex="1" parent="AOiycFXxId-lt1XcVsrU-98">
          <mxGeometry x="634" width="91" height="71" as="geometry">
            <mxRectangle width="91" height="71" as="alternateBounds" />
          </mxGeometry>
        </mxCell>
        <mxCell id="AOiycFXxId-lt1XcVsrU-107" value="" style="shape=partialRectangle;html=1;whiteSpace=wrap;connectable=0;strokeColor=inherit;overflow=hidden;fillColor=none;top=0;left=0;bottom=0;right=0;pointerEvents=1;" vertex="1" parent="AOiycFXxId-lt1XcVsrU-98">
          <mxGeometry x="725" width="91" height="71" as="geometry">
            <mxRectangle width="91" height="71" as="alternateBounds" />
          </mxGeometry>
        </mxCell>
        <mxCell id="AOiycFXxId-lt1XcVsrU-108" value="" style="shape=partialRectangle;html=1;whiteSpace=wrap;connectable=0;strokeColor=inherit;overflow=hidden;fillColor=none;top=0;left=0;bottom=0;right=0;pointerEvents=1;" vertex="1" parent="AOiycFXxId-lt1XcVsrU-98">
          <mxGeometry x="816" width="90" height="71" as="geometry">
            <mxRectangle width="90" height="71" as="alternateBounds" />
          </mxGeometry>
        </mxCell>
        <mxCell id="AOiycFXxId-lt1XcVsrU-109" value="" style="shape=partialRectangle;html=1;whiteSpace=wrap;connectable=0;strokeColor=inherit;overflow=hidden;fillColor=none;top=0;left=0;bottom=0;right=0;pointerEvents=1;" vertex="1" parent="AOiycFXxId-lt1XcVsrU-98">
          <mxGeometry x="906" width="91" height="71" as="geometry">
            <mxRectangle width="91" height="71" as="alternateBounds" />
          </mxGeometry>
        </mxCell>
        <mxCell id="AOiycFXxId-lt1XcVsrU-110" value="" style="shape=partialRectangle;html=1;whiteSpace=wrap;connectable=0;strokeColor=inherit;overflow=hidden;fillColor=none;top=0;left=0;bottom=0;right=0;pointerEvents=1;" vertex="1" parent="AOiycFXxId-lt1XcVsrU-98">
          <mxGeometry x="997" width="91" height="71" as="geometry">
            <mxRectangle width="91" height="71" as="alternateBounds" />
          </mxGeometry>
        </mxCell>
        <mxCell id="AOiycFXxId-lt1XcVsrU-111" value="" style="shape=partialRectangle;html=1;whiteSpace=wrap;connectable=0;strokeColor=inherit;overflow=hidden;fillColor=none;top=0;left=0;bottom=0;right=0;pointerEvents=1;" vertex="1" parent="AOiycFXxId-lt1XcVsrU-98">
          <mxGeometry x="1088" width="90" height="71" as="geometry">
            <mxRectangle width="90" height="71" as="alternateBounds" />
          </mxGeometry>
        </mxCell>
        <mxCell id="AOiycFXxId-lt1XcVsrU-112" value="" style="shape=partialRectangle;html=1;whiteSpace=wrap;connectable=0;strokeColor=inherit;overflow=hidden;fillColor=none;top=0;left=0;bottom=0;right=0;pointerEvents=1;" vertex="1" parent="AOiycFXxId-lt1XcVsrU-98">
          <mxGeometry x="1178" width="91" height="71" as="geometry">
            <mxRectangle width="91" height="71" as="alternateBounds" />
          </mxGeometry>
        </mxCell>
        <mxCell id="AOiycFXxId-lt1XcVsrU-113" value="" style="shape=tableRow;horizontal=0;startSize=0;swimlaneHead=0;swimlaneBody=0;strokeColor=inherit;top=0;left=0;bottom=0;right=0;collapsible=0;dropTarget=0;fillColor=none;points=[[0,0.5],[1,0.5]];portConstraint=eastwest;" vertex="1" parent="AOiycFXxId-lt1XcVsrU-97">
          <mxGeometry y="71" width="1269" height="71" as="geometry" />
        </mxCell>
        <mxCell id="AOiycFXxId-lt1XcVsrU-114" value="" style="shape=partialRectangle;html=1;whiteSpace=wrap;connectable=0;strokeColor=inherit;overflow=hidden;fillColor=none;top=0;left=0;bottom=0;right=0;pointerEvents=1;" vertex="1" parent="AOiycFXxId-lt1XcVsrU-113">
          <mxGeometry width="91" height="71" as="geometry">
            <mxRectangle width="91" height="71" as="alternateBounds" />
          </mxGeometry>
        </mxCell>
        <mxCell id="AOiycFXxId-lt1XcVsrU-115" value="" style="shape=partialRectangle;html=1;whiteSpace=wrap;connectable=0;strokeColor=inherit;overflow=hidden;fillColor=none;top=0;left=0;bottom=0;right=0;pointerEvents=1;" vertex="1" parent="AOiycFXxId-lt1XcVsrU-113">
          <mxGeometry x="91" width="90" height="71" as="geometry">
            <mxRectangle width="90" height="71" as="alternateBounds" />
          </mxGeometry>
        </mxCell>
        <mxCell id="AOiycFXxId-lt1XcVsrU-116" value="" style="shape=partialRectangle;html=1;whiteSpace=wrap;connectable=0;strokeColor=inherit;overflow=hidden;fillColor=none;top=0;left=0;bottom=0;right=0;pointerEvents=1;" vertex="1" parent="AOiycFXxId-lt1XcVsrU-113">
          <mxGeometry x="181" width="91" height="71" as="geometry">
            <mxRectangle width="91" height="71" as="alternateBounds" />
          </mxGeometry>
        </mxCell>
        <mxCell id="AOiycFXxId-lt1XcVsrU-117" value="" style="shape=partialRectangle;html=1;whiteSpace=wrap;connectable=0;strokeColor=inherit;overflow=hidden;fillColor=none;top=0;left=0;bottom=0;right=0;pointerEvents=1;" vertex="1" parent="AOiycFXxId-lt1XcVsrU-113">
          <mxGeometry x="272" width="91" height="71" as="geometry">
            <mxRectangle width="91" height="71" as="alternateBounds" />
          </mxGeometry>
        </mxCell>
        <mxCell id="AOiycFXxId-lt1XcVsrU-118" value="" style="shape=partialRectangle;html=1;whiteSpace=wrap;connectable=0;strokeColor=inherit;overflow=hidden;fillColor=none;top=0;left=0;bottom=0;right=0;pointerEvents=1;" vertex="1" parent="AOiycFXxId-lt1XcVsrU-113">
          <mxGeometry x="363" width="90" height="71" as="geometry">
            <mxRectangle width="90" height="71" as="alternateBounds" />
          </mxGeometry>
        </mxCell>
        <mxCell id="AOiycFXxId-lt1XcVsrU-119" value="" style="shape=partialRectangle;html=1;whiteSpace=wrap;connectable=0;strokeColor=inherit;overflow=hidden;fillColor=none;top=0;left=0;bottom=0;right=0;pointerEvents=1;" vertex="1" parent="AOiycFXxId-lt1XcVsrU-113">
          <mxGeometry x="453" width="91" height="71" as="geometry">
            <mxRectangle width="91" height="71" as="alternateBounds" />
          </mxGeometry>
        </mxCell>
        <mxCell id="AOiycFXxId-lt1XcVsrU-120" value="" style="shape=partialRectangle;html=1;whiteSpace=wrap;connectable=0;strokeColor=inherit;overflow=hidden;fillColor=none;top=0;left=0;bottom=0;right=0;pointerEvents=1;" vertex="1" parent="AOiycFXxId-lt1XcVsrU-113">
          <mxGeometry x="544" width="90" height="71" as="geometry">
            <mxRectangle width="90" height="71" as="alternateBounds" />
          </mxGeometry>
        </mxCell>
        <mxCell id="AOiycFXxId-lt1XcVsrU-121" value="" style="shape=partialRectangle;html=1;whiteSpace=wrap;connectable=0;strokeColor=inherit;overflow=hidden;fillColor=none;top=0;left=0;bottom=0;right=0;pointerEvents=1;" vertex="1" parent="AOiycFXxId-lt1XcVsrU-113">
          <mxGeometry x="634" width="91" height="71" as="geometry">
            <mxRectangle width="91" height="71" as="alternateBounds" />
          </mxGeometry>
        </mxCell>
        <mxCell id="AOiycFXxId-lt1XcVsrU-122" value="" style="shape=partialRectangle;html=1;whiteSpace=wrap;connectable=0;strokeColor=inherit;overflow=hidden;fillColor=none;top=0;left=0;bottom=0;right=0;pointerEvents=1;" vertex="1" parent="AOiycFXxId-lt1XcVsrU-113">
          <mxGeometry x="725" width="91" height="71" as="geometry">
            <mxRectangle width="91" height="71" as="alternateBounds" />
          </mxGeometry>
        </mxCell>
        <mxCell id="AOiycFXxId-lt1XcVsrU-123" value="" style="shape=partialRectangle;html=1;whiteSpace=wrap;connectable=0;strokeColor=inherit;overflow=hidden;fillColor=none;top=0;left=0;bottom=0;right=0;pointerEvents=1;" vertex="1" parent="AOiycFXxId-lt1XcVsrU-113">
          <mxGeometry x="816" width="90" height="71" as="geometry">
            <mxRectangle width="90" height="71" as="alternateBounds" />
          </mxGeometry>
        </mxCell>
        <mxCell id="AOiycFXxId-lt1XcVsrU-124" value="" style="shape=partialRectangle;html=1;whiteSpace=wrap;connectable=0;strokeColor=inherit;overflow=hidden;fillColor=none;top=0;left=0;bottom=0;right=0;pointerEvents=1;" vertex="1" parent="AOiycFXxId-lt1XcVsrU-113">
          <mxGeometry x="906" width="91" height="71" as="geometry">
            <mxRectangle width="91" height="71" as="alternateBounds" />
          </mxGeometry>
        </mxCell>
        <mxCell id="AOiycFXxId-lt1XcVsrU-125" value="" style="shape=partialRectangle;html=1;whiteSpace=wrap;connectable=0;strokeColor=inherit;overflow=hidden;fillColor=none;top=0;left=0;bottom=0;right=0;pointerEvents=1;" vertex="1" parent="AOiycFXxId-lt1XcVsrU-113">
          <mxGeometry x="997" width="91" height="71" as="geometry">
            <mxRectangle width="91" height="71" as="alternateBounds" />
          </mxGeometry>
        </mxCell>
        <mxCell id="AOiycFXxId-lt1XcVsrU-126" value="" style="shape=partialRectangle;html=1;whiteSpace=wrap;connectable=0;strokeColor=inherit;overflow=hidden;fillColor=none;top=0;left=0;bottom=0;right=0;pointerEvents=1;" vertex="1" parent="AOiycFXxId-lt1XcVsrU-113">
          <mxGeometry x="1088" width="90" height="71" as="geometry">
            <mxRectangle width="90" height="71" as="alternateBounds" />
          </mxGeometry>
        </mxCell>
        <mxCell id="AOiycFXxId-lt1XcVsrU-127" value="" style="shape=partialRectangle;html=1;whiteSpace=wrap;connectable=0;strokeColor=inherit;overflow=hidden;fillColor=none;top=0;left=0;bottom=0;right=0;pointerEvents=1;" vertex="1" parent="AOiycFXxId-lt1XcVsrU-113">
          <mxGeometry x="1178" width="91" height="71" as="geometry">
            <mxRectangle width="91" height="71" as="alternateBounds" />
          </mxGeometry>
        </mxCell>
        <mxCell id="AOiycFXxId-lt1XcVsrU-128" value="" style="shape=tableRow;horizontal=0;startSize=0;swimlaneHead=0;swimlaneBody=0;strokeColor=inherit;top=0;left=0;bottom=0;right=0;collapsible=0;dropTarget=0;fillColor=none;points=[[0,0.5],[1,0.5]];portConstraint=eastwest;" vertex="1" parent="AOiycFXxId-lt1XcVsrU-97">
          <mxGeometry y="142" width="1269" height="72" as="geometry" />
        </mxCell>
        <mxCell id="AOiycFXxId-lt1XcVsrU-129" value="" style="shape=partialRectangle;html=1;whiteSpace=wrap;connectable=0;strokeColor=inherit;overflow=hidden;fillColor=none;top=0;left=0;bottom=0;right=0;pointerEvents=1;" vertex="1" parent="AOiycFXxId-lt1XcVsrU-128">
          <mxGeometry width="91" height="72" as="geometry">
            <mxRectangle width="91" height="72" as="alternateBounds" />
          </mxGeometry>
        </mxCell>
        <mxCell id="AOiycFXxId-lt1XcVsrU-130" value="" style="shape=partialRectangle;html=1;whiteSpace=wrap;connectable=0;strokeColor=inherit;overflow=hidden;fillColor=none;top=0;left=0;bottom=0;right=0;pointerEvents=1;" vertex="1" parent="AOiycFXxId-lt1XcVsrU-128">
          <mxGeometry x="91" width="90" height="72" as="geometry">
            <mxRectangle width="90" height="72" as="alternateBounds" />
          </mxGeometry>
        </mxCell>
        <mxCell id="AOiycFXxId-lt1XcVsrU-131" value="" style="shape=partialRectangle;html=1;whiteSpace=wrap;connectable=0;strokeColor=inherit;overflow=hidden;fillColor=none;top=0;left=0;bottom=0;right=0;pointerEvents=1;" vertex="1" parent="AOiycFXxId-lt1XcVsrU-128">
          <mxGeometry x="181" width="91" height="72" as="geometry">
            <mxRectangle width="91" height="72" as="alternateBounds" />
          </mxGeometry>
        </mxCell>
        <mxCell id="AOiycFXxId-lt1XcVsrU-132" value="" style="shape=partialRectangle;html=1;whiteSpace=wrap;connectable=0;strokeColor=inherit;overflow=hidden;fillColor=none;top=0;left=0;bottom=0;right=0;pointerEvents=1;" vertex="1" parent="AOiycFXxId-lt1XcVsrU-128">
          <mxGeometry x="272" width="91" height="72" as="geometry">
            <mxRectangle width="91" height="72" as="alternateBounds" />
          </mxGeometry>
        </mxCell>
        <mxCell id="AOiycFXxId-lt1XcVsrU-133" value="" style="shape=partialRectangle;html=1;whiteSpace=wrap;connectable=0;strokeColor=inherit;overflow=hidden;fillColor=none;top=0;left=0;bottom=0;right=0;pointerEvents=1;" vertex="1" parent="AOiycFXxId-lt1XcVsrU-128">
          <mxGeometry x="363" width="90" height="72" as="geometry">
            <mxRectangle width="90" height="72" as="alternateBounds" />
          </mxGeometry>
        </mxCell>
        <mxCell id="AOiycFXxId-lt1XcVsrU-134" value="" style="shape=partialRectangle;html=1;whiteSpace=wrap;connectable=0;strokeColor=inherit;overflow=hidden;fillColor=none;top=0;left=0;bottom=0;right=0;pointerEvents=1;" vertex="1" parent="AOiycFXxId-lt1XcVsrU-128">
          <mxGeometry x="453" width="91" height="72" as="geometry">
            <mxRectangle width="91" height="72" as="alternateBounds" />
          </mxGeometry>
        </mxCell>
        <mxCell id="AOiycFXxId-lt1XcVsrU-135" value="" style="shape=partialRectangle;html=1;whiteSpace=wrap;connectable=0;strokeColor=inherit;overflow=hidden;fillColor=none;top=0;left=0;bottom=0;right=0;pointerEvents=1;" vertex="1" parent="AOiycFXxId-lt1XcVsrU-128">
          <mxGeometry x="544" width="90" height="72" as="geometry">
            <mxRectangle width="90" height="72" as="alternateBounds" />
          </mxGeometry>
        </mxCell>
        <mxCell id="AOiycFXxId-lt1XcVsrU-136" value="" style="shape=partialRectangle;html=1;whiteSpace=wrap;connectable=0;strokeColor=inherit;overflow=hidden;fillColor=none;top=0;left=0;bottom=0;right=0;pointerEvents=1;" vertex="1" parent="AOiycFXxId-lt1XcVsrU-128">
          <mxGeometry x="634" width="91" height="72" as="geometry">
            <mxRectangle width="91" height="72" as="alternateBounds" />
          </mxGeometry>
        </mxCell>
        <mxCell id="AOiycFXxId-lt1XcVsrU-137" value="" style="shape=partialRectangle;html=1;whiteSpace=wrap;connectable=0;strokeColor=inherit;overflow=hidden;fillColor=none;top=0;left=0;bottom=0;right=0;pointerEvents=1;" vertex="1" parent="AOiycFXxId-lt1XcVsrU-128">
          <mxGeometry x="725" width="91" height="72" as="geometry">
            <mxRectangle width="91" height="72" as="alternateBounds" />
          </mxGeometry>
        </mxCell>
        <mxCell id="AOiycFXxId-lt1XcVsrU-138" value="" style="shape=partialRectangle;html=1;whiteSpace=wrap;connectable=0;strokeColor=inherit;overflow=hidden;fillColor=none;top=0;left=0;bottom=0;right=0;pointerEvents=1;" vertex="1" parent="AOiycFXxId-lt1XcVsrU-128">
          <mxGeometry x="816" width="90" height="72" as="geometry">
            <mxRectangle width="90" height="72" as="alternateBounds" />
          </mxGeometry>
        </mxCell>
        <mxCell id="AOiycFXxId-lt1XcVsrU-139" value="" style="shape=partialRectangle;html=1;whiteSpace=wrap;connectable=0;strokeColor=inherit;overflow=hidden;fillColor=none;top=0;left=0;bottom=0;right=0;pointerEvents=1;" vertex="1" parent="AOiycFXxId-lt1XcVsrU-128">
          <mxGeometry x="906" width="91" height="72" as="geometry">
            <mxRectangle width="91" height="72" as="alternateBounds" />
          </mxGeometry>
        </mxCell>
        <mxCell id="AOiycFXxId-lt1XcVsrU-140" value="" style="shape=partialRectangle;html=1;whiteSpace=wrap;connectable=0;strokeColor=inherit;overflow=hidden;fillColor=none;top=0;left=0;bottom=0;right=0;pointerEvents=1;" vertex="1" parent="AOiycFXxId-lt1XcVsrU-128">
          <mxGeometry x="997" width="91" height="72" as="geometry">
            <mxRectangle width="91" height="72" as="alternateBounds" />
          </mxGeometry>
        </mxCell>
        <mxCell id="AOiycFXxId-lt1XcVsrU-141" value="" style="shape=partialRectangle;html=1;whiteSpace=wrap;connectable=0;strokeColor=inherit;overflow=hidden;fillColor=none;top=0;left=0;bottom=0;right=0;pointerEvents=1;" vertex="1" parent="AOiycFXxId-lt1XcVsrU-128">
          <mxGeometry x="1088" width="90" height="72" as="geometry">
            <mxRectangle width="90" height="72" as="alternateBounds" />
          </mxGeometry>
        </mxCell>
        <mxCell id="AOiycFXxId-lt1XcVsrU-142" value="" style="shape=partialRectangle;html=1;whiteSpace=wrap;connectable=0;strokeColor=inherit;overflow=hidden;fillColor=none;top=0;left=0;bottom=0;right=0;pointerEvents=1;" vertex="1" parent="AOiycFXxId-lt1XcVsrU-128">
          <mxGeometry x="1178" width="91" height="72" as="geometry">
            <mxRectangle width="91" height="72" as="alternateBounds" />
          </mxGeometry>
        </mxCell>
        <mxCell id="AOiycFXxId-lt1XcVsrU-143" value="" style="shape=tableRow;horizontal=0;startSize=0;swimlaneHead=0;swimlaneBody=0;strokeColor=inherit;top=0;left=0;bottom=0;right=0;collapsible=0;dropTarget=0;fillColor=none;points=[[0,0.5],[1,0.5]];portConstraint=eastwest;" vertex="1" parent="AOiycFXxId-lt1XcVsrU-97">
          <mxGeometry y="214" width="1269" height="71" as="geometry" />
        </mxCell>
        <mxCell id="AOiycFXxId-lt1XcVsrU-144" value="" style="shape=partialRectangle;html=1;whiteSpace=wrap;connectable=0;strokeColor=inherit;overflow=hidden;fillColor=none;top=0;left=0;bottom=0;right=0;pointerEvents=1;" vertex="1" parent="AOiycFXxId-lt1XcVsrU-143">
          <mxGeometry width="91" height="71" as="geometry">
            <mxRectangle width="91" height="71" as="alternateBounds" />
          </mxGeometry>
        </mxCell>
        <mxCell id="AOiycFXxId-lt1XcVsrU-145" value="" style="shape=partialRectangle;html=1;whiteSpace=wrap;connectable=0;strokeColor=inherit;overflow=hidden;fillColor=none;top=0;left=0;bottom=0;right=0;pointerEvents=1;" vertex="1" parent="AOiycFXxId-lt1XcVsrU-143">
          <mxGeometry x="91" width="90" height="71" as="geometry">
            <mxRectangle width="90" height="71" as="alternateBounds" />
          </mxGeometry>
        </mxCell>
        <mxCell id="AOiycFXxId-lt1XcVsrU-146" value="" style="shape=partialRectangle;html=1;whiteSpace=wrap;connectable=0;strokeColor=inherit;overflow=hidden;fillColor=none;top=0;left=0;bottom=0;right=0;pointerEvents=1;" vertex="1" parent="AOiycFXxId-lt1XcVsrU-143">
          <mxGeometry x="181" width="91" height="71" as="geometry">
            <mxRectangle width="91" height="71" as="alternateBounds" />
          </mxGeometry>
        </mxCell>
        <mxCell id="AOiycFXxId-lt1XcVsrU-147" value="" style="shape=partialRectangle;html=1;whiteSpace=wrap;connectable=0;strokeColor=inherit;overflow=hidden;fillColor=none;top=0;left=0;bottom=0;right=0;pointerEvents=1;" vertex="1" parent="AOiycFXxId-lt1XcVsrU-143">
          <mxGeometry x="272" width="91" height="71" as="geometry">
            <mxRectangle width="91" height="71" as="alternateBounds" />
          </mxGeometry>
        </mxCell>
        <mxCell id="AOiycFXxId-lt1XcVsrU-148" value="" style="shape=partialRectangle;html=1;whiteSpace=wrap;connectable=0;strokeColor=inherit;overflow=hidden;fillColor=none;top=0;left=0;bottom=0;right=0;pointerEvents=1;" vertex="1" parent="AOiycFXxId-lt1XcVsrU-143">
          <mxGeometry x="363" width="90" height="71" as="geometry">
            <mxRectangle width="90" height="71" as="alternateBounds" />
          </mxGeometry>
        </mxCell>
        <mxCell id="AOiycFXxId-lt1XcVsrU-149" value="" style="shape=partialRectangle;html=1;whiteSpace=wrap;connectable=0;strokeColor=inherit;overflow=hidden;fillColor=none;top=0;left=0;bottom=0;right=0;pointerEvents=1;" vertex="1" parent="AOiycFXxId-lt1XcVsrU-143">
          <mxGeometry x="453" width="91" height="71" as="geometry">
            <mxRectangle width="91" height="71" as="alternateBounds" />
          </mxGeometry>
        </mxCell>
        <mxCell id="AOiycFXxId-lt1XcVsrU-150" value="" style="shape=partialRectangle;html=1;whiteSpace=wrap;connectable=0;strokeColor=inherit;overflow=hidden;fillColor=none;top=0;left=0;bottom=0;right=0;pointerEvents=1;" vertex="1" parent="AOiycFXxId-lt1XcVsrU-143">
          <mxGeometry x="544" width="90" height="71" as="geometry">
            <mxRectangle width="90" height="71" as="alternateBounds" />
          </mxGeometry>
        </mxCell>
        <mxCell id="AOiycFXxId-lt1XcVsrU-151" value="" style="shape=partialRectangle;html=1;whiteSpace=wrap;connectable=0;strokeColor=inherit;overflow=hidden;fillColor=none;top=0;left=0;bottom=0;right=0;pointerEvents=1;" vertex="1" parent="AOiycFXxId-lt1XcVsrU-143">
          <mxGeometry x="634" width="91" height="71" as="geometry">
            <mxRectangle width="91" height="71" as="alternateBounds" />
          </mxGeometry>
        </mxCell>
        <mxCell id="AOiycFXxId-lt1XcVsrU-152" value="" style="shape=partialRectangle;html=1;whiteSpace=wrap;connectable=0;strokeColor=inherit;overflow=hidden;fillColor=none;top=0;left=0;bottom=0;right=0;pointerEvents=1;" vertex="1" parent="AOiycFXxId-lt1XcVsrU-143">
          <mxGeometry x="725" width="91" height="71" as="geometry">
            <mxRectangle width="91" height="71" as="alternateBounds" />
          </mxGeometry>
        </mxCell>
        <mxCell id="AOiycFXxId-lt1XcVsrU-153" value="" style="shape=partialRectangle;html=1;whiteSpace=wrap;connectable=0;strokeColor=inherit;overflow=hidden;fillColor=none;top=0;left=0;bottom=0;right=0;pointerEvents=1;" vertex="1" parent="AOiycFXxId-lt1XcVsrU-143">
          <mxGeometry x="816" width="90" height="71" as="geometry">
            <mxRectangle width="90" height="71" as="alternateBounds" />
          </mxGeometry>
        </mxCell>
        <mxCell id="AOiycFXxId-lt1XcVsrU-154" value="" style="shape=partialRectangle;html=1;whiteSpace=wrap;connectable=0;strokeColor=inherit;overflow=hidden;fillColor=none;top=0;left=0;bottom=0;right=0;pointerEvents=1;" vertex="1" parent="AOiycFXxId-lt1XcVsrU-143">
          <mxGeometry x="906" width="91" height="71" as="geometry">
            <mxRectangle width="91" height="71" as="alternateBounds" />
          </mxGeometry>
        </mxCell>
        <mxCell id="AOiycFXxId-lt1XcVsrU-155" value="" style="shape=partialRectangle;html=1;whiteSpace=wrap;connectable=0;strokeColor=inherit;overflow=hidden;fillColor=none;top=0;left=0;bottom=0;right=0;pointerEvents=1;" vertex="1" parent="AOiycFXxId-lt1XcVsrU-143">
          <mxGeometry x="997" width="91" height="71" as="geometry">
            <mxRectangle width="91" height="71" as="alternateBounds" />
          </mxGeometry>
        </mxCell>
        <mxCell id="AOiycFXxId-lt1XcVsrU-156" value="" style="shape=partialRectangle;html=1;whiteSpace=wrap;connectable=0;strokeColor=inherit;overflow=hidden;fillColor=none;top=0;left=0;bottom=0;right=0;pointerEvents=1;" vertex="1" parent="AOiycFXxId-lt1XcVsrU-143">
          <mxGeometry x="1088" width="90" height="71" as="geometry">
            <mxRectangle width="90" height="71" as="alternateBounds" />
          </mxGeometry>
        </mxCell>
        <mxCell id="AOiycFXxId-lt1XcVsrU-157" value="" style="shape=partialRectangle;html=1;whiteSpace=wrap;connectable=0;strokeColor=inherit;overflow=hidden;fillColor=none;top=0;left=0;bottom=0;right=0;pointerEvents=1;" vertex="1" parent="AOiycFXxId-lt1XcVsrU-143">
          <mxGeometry x="1178" width="91" height="71" as="geometry">
            <mxRectangle width="91" height="71" as="alternateBounds" />
          </mxGeometry>
        </mxCell>
        <mxCell id="AOiycFXxId-lt1XcVsrU-158" value="" style="shape=tableRow;horizontal=0;startSize=0;swimlaneHead=0;swimlaneBody=0;strokeColor=inherit;top=0;left=0;bottom=0;right=0;collapsible=0;dropTarget=0;fillColor=none;points=[[0,0.5],[1,0.5]];portConstraint=eastwest;" vertex="1" parent="AOiycFXxId-lt1XcVsrU-97">
          <mxGeometry y="285" width="1269" height="71" as="geometry" />
        </mxCell>
        <mxCell id="AOiycFXxId-lt1XcVsrU-159" value="" style="shape=partialRectangle;html=1;whiteSpace=wrap;connectable=0;strokeColor=inherit;overflow=hidden;fillColor=none;top=0;left=0;bottom=0;right=0;pointerEvents=1;" vertex="1" parent="AOiycFXxId-lt1XcVsrU-158">
          <mxGeometry width="91" height="71" as="geometry">
            <mxRectangle width="91" height="71" as="alternateBounds" />
          </mxGeometry>
        </mxCell>
        <mxCell id="AOiycFXxId-lt1XcVsrU-160" value="" style="shape=partialRectangle;html=1;whiteSpace=wrap;connectable=0;strokeColor=inherit;overflow=hidden;fillColor=none;top=0;left=0;bottom=0;right=0;pointerEvents=1;" vertex="1" parent="AOiycFXxId-lt1XcVsrU-158">
          <mxGeometry x="91" width="90" height="71" as="geometry">
            <mxRectangle width="90" height="71" as="alternateBounds" />
          </mxGeometry>
        </mxCell>
        <mxCell id="AOiycFXxId-lt1XcVsrU-161" value="" style="shape=partialRectangle;html=1;whiteSpace=wrap;connectable=0;strokeColor=inherit;overflow=hidden;fillColor=none;top=0;left=0;bottom=0;right=0;pointerEvents=1;" vertex="1" parent="AOiycFXxId-lt1XcVsrU-158">
          <mxGeometry x="181" width="91" height="71" as="geometry">
            <mxRectangle width="91" height="71" as="alternateBounds" />
          </mxGeometry>
        </mxCell>
        <mxCell id="AOiycFXxId-lt1XcVsrU-162" value="" style="shape=partialRectangle;html=1;whiteSpace=wrap;connectable=0;strokeColor=inherit;overflow=hidden;fillColor=none;top=0;left=0;bottom=0;right=0;pointerEvents=1;" vertex="1" parent="AOiycFXxId-lt1XcVsrU-158">
          <mxGeometry x="272" width="91" height="71" as="geometry">
            <mxRectangle width="91" height="71" as="alternateBounds" />
          </mxGeometry>
        </mxCell>
        <mxCell id="AOiycFXxId-lt1XcVsrU-163" value="" style="shape=partialRectangle;html=1;whiteSpace=wrap;connectable=0;strokeColor=inherit;overflow=hidden;fillColor=none;top=0;left=0;bottom=0;right=0;pointerEvents=1;" vertex="1" parent="AOiycFXxId-lt1XcVsrU-158">
          <mxGeometry x="363" width="90" height="71" as="geometry">
            <mxRectangle width="90" height="71" as="alternateBounds" />
          </mxGeometry>
        </mxCell>
        <mxCell id="AOiycFXxId-lt1XcVsrU-164" value="" style="shape=partialRectangle;html=1;whiteSpace=wrap;connectable=0;strokeColor=inherit;overflow=hidden;fillColor=none;top=0;left=0;bottom=0;right=0;pointerEvents=1;" vertex="1" parent="AOiycFXxId-lt1XcVsrU-158">
          <mxGeometry x="453" width="91" height="71" as="geometry">
            <mxRectangle width="91" height="71" as="alternateBounds" />
          </mxGeometry>
        </mxCell>
        <mxCell id="AOiycFXxId-lt1XcVsrU-165" value="" style="shape=partialRectangle;html=1;whiteSpace=wrap;connectable=0;strokeColor=inherit;overflow=hidden;fillColor=none;top=0;left=0;bottom=0;right=0;pointerEvents=1;" vertex="1" parent="AOiycFXxId-lt1XcVsrU-158">
          <mxGeometry x="544" width="90" height="71" as="geometry">
            <mxRectangle width="90" height="71" as="alternateBounds" />
          </mxGeometry>
        </mxCell>
        <mxCell id="AOiycFXxId-lt1XcVsrU-166" value="" style="shape=partialRectangle;html=1;whiteSpace=wrap;connectable=0;strokeColor=inherit;overflow=hidden;fillColor=none;top=0;left=0;bottom=0;right=0;pointerEvents=1;" vertex="1" parent="AOiycFXxId-lt1XcVsrU-158">
          <mxGeometry x="634" width="91" height="71" as="geometry">
            <mxRectangle width="91" height="71" as="alternateBounds" />
          </mxGeometry>
        </mxCell>
        <mxCell id="AOiycFXxId-lt1XcVsrU-167" value="" style="shape=partialRectangle;html=1;whiteSpace=wrap;connectable=0;strokeColor=inherit;overflow=hidden;fillColor=none;top=0;left=0;bottom=0;right=0;pointerEvents=1;" vertex="1" parent="AOiycFXxId-lt1XcVsrU-158">
          <mxGeometry x="725" width="91" height="71" as="geometry">
            <mxRectangle width="91" height="71" as="alternateBounds" />
          </mxGeometry>
        </mxCell>
        <mxCell id="AOiycFXxId-lt1XcVsrU-168" value="" style="shape=partialRectangle;html=1;whiteSpace=wrap;connectable=0;strokeColor=inherit;overflow=hidden;fillColor=none;top=0;left=0;bottom=0;right=0;pointerEvents=1;" vertex="1" parent="AOiycFXxId-lt1XcVsrU-158">
          <mxGeometry x="816" width="90" height="71" as="geometry">
            <mxRectangle width="90" height="71" as="alternateBounds" />
          </mxGeometry>
        </mxCell>
        <mxCell id="AOiycFXxId-lt1XcVsrU-169" value="" style="shape=partialRectangle;html=1;whiteSpace=wrap;connectable=0;strokeColor=inherit;overflow=hidden;fillColor=none;top=0;left=0;bottom=0;right=0;pointerEvents=1;" vertex="1" parent="AOiycFXxId-lt1XcVsrU-158">
          <mxGeometry x="906" width="91" height="71" as="geometry">
            <mxRectangle width="91" height="71" as="alternateBounds" />
          </mxGeometry>
        </mxCell>
        <mxCell id="AOiycFXxId-lt1XcVsrU-170" value="" style="shape=partialRectangle;html=1;whiteSpace=wrap;connectable=0;strokeColor=inherit;overflow=hidden;fillColor=none;top=0;left=0;bottom=0;right=0;pointerEvents=1;" vertex="1" parent="AOiycFXxId-lt1XcVsrU-158">
          <mxGeometry x="997" width="91" height="71" as="geometry">
            <mxRectangle width="91" height="71" as="alternateBounds" />
          </mxGeometry>
        </mxCell>
        <mxCell id="AOiycFXxId-lt1XcVsrU-171" value="" style="shape=partialRectangle;html=1;whiteSpace=wrap;connectable=0;strokeColor=inherit;overflow=hidden;fillColor=none;top=0;left=0;bottom=0;right=0;pointerEvents=1;" vertex="1" parent="AOiycFXxId-lt1XcVsrU-158">
          <mxGeometry x="1088" width="90" height="71" as="geometry">
            <mxRectangle width="90" height="71" as="alternateBounds" />
          </mxGeometry>
        </mxCell>
        <mxCell id="AOiycFXxId-lt1XcVsrU-172" value="" style="shape=partialRectangle;html=1;whiteSpace=wrap;connectable=0;strokeColor=inherit;overflow=hidden;fillColor=none;top=0;left=0;bottom=0;right=0;pointerEvents=1;" vertex="1" parent="AOiycFXxId-lt1XcVsrU-158">
          <mxGeometry x="1178" width="91" height="71" as="geometry">
            <mxRectangle width="91" height="71" as="alternateBounds" />
          </mxGeometry>
        </mxCell>
        <mxCell id="AOiycFXxId-lt1XcVsrU-173" value="" style="shape=tableRow;horizontal=0;startSize=0;swimlaneHead=0;swimlaneBody=0;strokeColor=inherit;top=0;left=0;bottom=0;right=0;collapsible=0;dropTarget=0;fillColor=none;points=[[0,0.5],[1,0.5]];portConstraint=eastwest;" vertex="1" parent="AOiycFXxId-lt1XcVsrU-97">
          <mxGeometry y="356" width="1269" height="71" as="geometry" />
        </mxCell>
        <mxCell id="AOiycFXxId-lt1XcVsrU-174" value="" style="shape=partialRectangle;html=1;whiteSpace=wrap;connectable=0;strokeColor=inherit;overflow=hidden;fillColor=none;top=0;left=0;bottom=0;right=0;pointerEvents=1;" vertex="1" parent="AOiycFXxId-lt1XcVsrU-173">
          <mxGeometry width="91" height="71" as="geometry">
            <mxRectangle width="91" height="71" as="alternateBounds" />
          </mxGeometry>
        </mxCell>
        <mxCell id="AOiycFXxId-lt1XcVsrU-175" value="" style="shape=partialRectangle;html=1;whiteSpace=wrap;connectable=0;strokeColor=inherit;overflow=hidden;fillColor=none;top=0;left=0;bottom=0;right=0;pointerEvents=1;" vertex="1" parent="AOiycFXxId-lt1XcVsrU-173">
          <mxGeometry x="91" width="90" height="71" as="geometry">
            <mxRectangle width="90" height="71" as="alternateBounds" />
          </mxGeometry>
        </mxCell>
        <mxCell id="AOiycFXxId-lt1XcVsrU-176" value="" style="shape=partialRectangle;html=1;whiteSpace=wrap;connectable=0;strokeColor=inherit;overflow=hidden;fillColor=none;top=0;left=0;bottom=0;right=0;pointerEvents=1;" vertex="1" parent="AOiycFXxId-lt1XcVsrU-173">
          <mxGeometry x="181" width="91" height="71" as="geometry">
            <mxRectangle width="91" height="71" as="alternateBounds" />
          </mxGeometry>
        </mxCell>
        <mxCell id="AOiycFXxId-lt1XcVsrU-177" value="" style="shape=partialRectangle;html=1;whiteSpace=wrap;connectable=0;strokeColor=inherit;overflow=hidden;fillColor=none;top=0;left=0;bottom=0;right=0;pointerEvents=1;" vertex="1" parent="AOiycFXxId-lt1XcVsrU-173">
          <mxGeometry x="272" width="91" height="71" as="geometry">
            <mxRectangle width="91" height="71" as="alternateBounds" />
          </mxGeometry>
        </mxCell>
        <mxCell id="AOiycFXxId-lt1XcVsrU-178" value="" style="shape=partialRectangle;html=1;whiteSpace=wrap;connectable=0;strokeColor=inherit;overflow=hidden;fillColor=none;top=0;left=0;bottom=0;right=0;pointerEvents=1;" vertex="1" parent="AOiycFXxId-lt1XcVsrU-173">
          <mxGeometry x="363" width="90" height="71" as="geometry">
            <mxRectangle width="90" height="71" as="alternateBounds" />
          </mxGeometry>
        </mxCell>
        <mxCell id="AOiycFXxId-lt1XcVsrU-179" value="" style="shape=partialRectangle;html=1;whiteSpace=wrap;connectable=0;strokeColor=inherit;overflow=hidden;fillColor=none;top=0;left=0;bottom=0;right=0;pointerEvents=1;" vertex="1" parent="AOiycFXxId-lt1XcVsrU-173">
          <mxGeometry x="453" width="91" height="71" as="geometry">
            <mxRectangle width="91" height="71" as="alternateBounds" />
          </mxGeometry>
        </mxCell>
        <mxCell id="AOiycFXxId-lt1XcVsrU-180" value="" style="shape=partialRectangle;html=1;whiteSpace=wrap;connectable=0;strokeColor=inherit;overflow=hidden;fillColor=none;top=0;left=0;bottom=0;right=0;pointerEvents=1;" vertex="1" parent="AOiycFXxId-lt1XcVsrU-173">
          <mxGeometry x="544" width="90" height="71" as="geometry">
            <mxRectangle width="90" height="71" as="alternateBounds" />
          </mxGeometry>
        </mxCell>
        <mxCell id="AOiycFXxId-lt1XcVsrU-181" value="" style="shape=partialRectangle;html=1;whiteSpace=wrap;connectable=0;strokeColor=inherit;overflow=hidden;fillColor=none;top=0;left=0;bottom=0;right=0;pointerEvents=1;" vertex="1" parent="AOiycFXxId-lt1XcVsrU-173">
          <mxGeometry x="634" width="91" height="71" as="geometry">
            <mxRectangle width="91" height="71" as="alternateBounds" />
          </mxGeometry>
        </mxCell>
        <mxCell id="AOiycFXxId-lt1XcVsrU-182" value="" style="shape=partialRectangle;html=1;whiteSpace=wrap;connectable=0;strokeColor=inherit;overflow=hidden;fillColor=none;top=0;left=0;bottom=0;right=0;pointerEvents=1;" vertex="1" parent="AOiycFXxId-lt1XcVsrU-173">
          <mxGeometry x="725" width="91" height="71" as="geometry">
            <mxRectangle width="91" height="71" as="alternateBounds" />
          </mxGeometry>
        </mxCell>
        <mxCell id="AOiycFXxId-lt1XcVsrU-183" value="" style="shape=partialRectangle;html=1;whiteSpace=wrap;connectable=0;strokeColor=inherit;overflow=hidden;fillColor=none;top=0;left=0;bottom=0;right=0;pointerEvents=1;" vertex="1" parent="AOiycFXxId-lt1XcVsrU-173">
          <mxGeometry x="816" width="90" height="71" as="geometry">
            <mxRectangle width="90" height="71" as="alternateBounds" />
          </mxGeometry>
        </mxCell>
        <mxCell id="AOiycFXxId-lt1XcVsrU-184" value="" style="shape=partialRectangle;html=1;whiteSpace=wrap;connectable=0;strokeColor=inherit;overflow=hidden;fillColor=none;top=0;left=0;bottom=0;right=0;pointerEvents=1;" vertex="1" parent="AOiycFXxId-lt1XcVsrU-173">
          <mxGeometry x="906" width="91" height="71" as="geometry">
            <mxRectangle width="91" height="71" as="alternateBounds" />
          </mxGeometry>
        </mxCell>
        <mxCell id="AOiycFXxId-lt1XcVsrU-185" value="" style="shape=partialRectangle;html=1;whiteSpace=wrap;connectable=0;strokeColor=inherit;overflow=hidden;fillColor=none;top=0;left=0;bottom=0;right=0;pointerEvents=1;" vertex="1" parent="AOiycFXxId-lt1XcVsrU-173">
          <mxGeometry x="997" width="91" height="71" as="geometry">
            <mxRectangle width="91" height="71" as="alternateBounds" />
          </mxGeometry>
        </mxCell>
        <mxCell id="AOiycFXxId-lt1XcVsrU-186" value="" style="shape=partialRectangle;html=1;whiteSpace=wrap;connectable=0;strokeColor=inherit;overflow=hidden;fillColor=none;top=0;left=0;bottom=0;right=0;pointerEvents=1;" vertex="1" parent="AOiycFXxId-lt1XcVsrU-173">
          <mxGeometry x="1088" width="90" height="71" as="geometry">
            <mxRectangle width="90" height="71" as="alternateBounds" />
          </mxGeometry>
        </mxCell>
        <mxCell id="AOiycFXxId-lt1XcVsrU-187" value="" style="shape=partialRectangle;html=1;whiteSpace=wrap;connectable=0;strokeColor=inherit;overflow=hidden;fillColor=none;top=0;left=0;bottom=0;right=0;pointerEvents=1;" vertex="1" parent="AOiycFXxId-lt1XcVsrU-173">
          <mxGeometry x="1178" width="91" height="71" as="geometry">
            <mxRectangle width="91" height="71" as="alternateBounds" />
          </mxGeometry>
        </mxCell>
        <mxCell id="AOiycFXxId-lt1XcVsrU-188" value="" style="shape=tableRow;horizontal=0;startSize=0;swimlaneHead=0;swimlaneBody=0;strokeColor=inherit;top=0;left=0;bottom=0;right=0;collapsible=0;dropTarget=0;fillColor=none;points=[[0,0.5],[1,0.5]];portConstraint=eastwest;" vertex="1" parent="AOiycFXxId-lt1XcVsrU-97">
          <mxGeometry y="427" width="1269" height="71" as="geometry" />
        </mxCell>
        <mxCell id="AOiycFXxId-lt1XcVsrU-189" value="" style="shape=partialRectangle;html=1;whiteSpace=wrap;connectable=0;strokeColor=inherit;overflow=hidden;fillColor=none;top=0;left=0;bottom=0;right=0;pointerEvents=1;" vertex="1" parent="AOiycFXxId-lt1XcVsrU-188">
          <mxGeometry width="91" height="71" as="geometry">
            <mxRectangle width="91" height="71" as="alternateBounds" />
          </mxGeometry>
        </mxCell>
        <mxCell id="AOiycFXxId-lt1XcVsrU-190" value="" style="shape=partialRectangle;html=1;whiteSpace=wrap;connectable=0;strokeColor=inherit;overflow=hidden;fillColor=none;top=0;left=0;bottom=0;right=0;pointerEvents=1;" vertex="1" parent="AOiycFXxId-lt1XcVsrU-188">
          <mxGeometry x="91" width="90" height="71" as="geometry">
            <mxRectangle width="90" height="71" as="alternateBounds" />
          </mxGeometry>
        </mxCell>
        <mxCell id="AOiycFXxId-lt1XcVsrU-191" value="" style="shape=partialRectangle;html=1;whiteSpace=wrap;connectable=0;strokeColor=inherit;overflow=hidden;fillColor=none;top=0;left=0;bottom=0;right=0;pointerEvents=1;" vertex="1" parent="AOiycFXxId-lt1XcVsrU-188">
          <mxGeometry x="181" width="91" height="71" as="geometry">
            <mxRectangle width="91" height="71" as="alternateBounds" />
          </mxGeometry>
        </mxCell>
        <mxCell id="AOiycFXxId-lt1XcVsrU-192" value="" style="shape=partialRectangle;html=1;whiteSpace=wrap;connectable=0;strokeColor=inherit;overflow=hidden;fillColor=none;top=0;left=0;bottom=0;right=0;pointerEvents=1;" vertex="1" parent="AOiycFXxId-lt1XcVsrU-188">
          <mxGeometry x="272" width="91" height="71" as="geometry">
            <mxRectangle width="91" height="71" as="alternateBounds" />
          </mxGeometry>
        </mxCell>
        <mxCell id="AOiycFXxId-lt1XcVsrU-193" value="" style="shape=partialRectangle;html=1;whiteSpace=wrap;connectable=0;strokeColor=inherit;overflow=hidden;fillColor=none;top=0;left=0;bottom=0;right=0;pointerEvents=1;" vertex="1" parent="AOiycFXxId-lt1XcVsrU-188">
          <mxGeometry x="363" width="90" height="71" as="geometry">
            <mxRectangle width="90" height="71" as="alternateBounds" />
          </mxGeometry>
        </mxCell>
        <mxCell id="AOiycFXxId-lt1XcVsrU-194" value="" style="shape=partialRectangle;html=1;whiteSpace=wrap;connectable=0;strokeColor=inherit;overflow=hidden;fillColor=none;top=0;left=0;bottom=0;right=0;pointerEvents=1;" vertex="1" parent="AOiycFXxId-lt1XcVsrU-188">
          <mxGeometry x="453" width="91" height="71" as="geometry">
            <mxRectangle width="91" height="71" as="alternateBounds" />
          </mxGeometry>
        </mxCell>
        <mxCell id="AOiycFXxId-lt1XcVsrU-195" value="" style="shape=partialRectangle;html=1;whiteSpace=wrap;connectable=0;strokeColor=inherit;overflow=hidden;fillColor=none;top=0;left=0;bottom=0;right=0;pointerEvents=1;" vertex="1" parent="AOiycFXxId-lt1XcVsrU-188">
          <mxGeometry x="544" width="90" height="71" as="geometry">
            <mxRectangle width="90" height="71" as="alternateBounds" />
          </mxGeometry>
        </mxCell>
        <mxCell id="AOiycFXxId-lt1XcVsrU-196" value="" style="shape=partialRectangle;html=1;whiteSpace=wrap;connectable=0;strokeColor=inherit;overflow=hidden;fillColor=none;top=0;left=0;bottom=0;right=0;pointerEvents=1;" vertex="1" parent="AOiycFXxId-lt1XcVsrU-188">
          <mxGeometry x="634" width="91" height="71" as="geometry">
            <mxRectangle width="91" height="71" as="alternateBounds" />
          </mxGeometry>
        </mxCell>
        <mxCell id="AOiycFXxId-lt1XcVsrU-197" value="" style="shape=partialRectangle;html=1;whiteSpace=wrap;connectable=0;strokeColor=inherit;overflow=hidden;fillColor=none;top=0;left=0;bottom=0;right=0;pointerEvents=1;" vertex="1" parent="AOiycFXxId-lt1XcVsrU-188">
          <mxGeometry x="725" width="91" height="71" as="geometry">
            <mxRectangle width="91" height="71" as="alternateBounds" />
          </mxGeometry>
        </mxCell>
        <mxCell id="AOiycFXxId-lt1XcVsrU-198" value="" style="shape=partialRectangle;html=1;whiteSpace=wrap;connectable=0;strokeColor=inherit;overflow=hidden;fillColor=none;top=0;left=0;bottom=0;right=0;pointerEvents=1;" vertex="1" parent="AOiycFXxId-lt1XcVsrU-188">
          <mxGeometry x="816" width="90" height="71" as="geometry">
            <mxRectangle width="90" height="71" as="alternateBounds" />
          </mxGeometry>
        </mxCell>
        <mxCell id="AOiycFXxId-lt1XcVsrU-199" value="" style="shape=partialRectangle;html=1;whiteSpace=wrap;connectable=0;strokeColor=inherit;overflow=hidden;fillColor=none;top=0;left=0;bottom=0;right=0;pointerEvents=1;" vertex="1" parent="AOiycFXxId-lt1XcVsrU-188">
          <mxGeometry x="906" width="91" height="71" as="geometry">
            <mxRectangle width="91" height="71" as="alternateBounds" />
          </mxGeometry>
        </mxCell>
        <mxCell id="AOiycFXxId-lt1XcVsrU-200" value="" style="shape=partialRectangle;html=1;whiteSpace=wrap;connectable=0;strokeColor=inherit;overflow=hidden;fillColor=none;top=0;left=0;bottom=0;right=0;pointerEvents=1;" vertex="1" parent="AOiycFXxId-lt1XcVsrU-188">
          <mxGeometry x="997" width="91" height="71" as="geometry">
            <mxRectangle width="91" height="71" as="alternateBounds" />
          </mxGeometry>
        </mxCell>
        <mxCell id="AOiycFXxId-lt1XcVsrU-201" value="" style="shape=partialRectangle;html=1;whiteSpace=wrap;connectable=0;strokeColor=inherit;overflow=hidden;fillColor=none;top=0;left=0;bottom=0;right=0;pointerEvents=1;" vertex="1" parent="AOiycFXxId-lt1XcVsrU-188">
          <mxGeometry x="1088" width="90" height="71" as="geometry">
            <mxRectangle width="90" height="71" as="alternateBounds" />
          </mxGeometry>
        </mxCell>
        <mxCell id="AOiycFXxId-lt1XcVsrU-202" value="" style="shape=partialRectangle;html=1;whiteSpace=wrap;connectable=0;strokeColor=inherit;overflow=hidden;fillColor=none;top=0;left=0;bottom=0;right=0;pointerEvents=1;" vertex="1" parent="AOiycFXxId-lt1XcVsrU-188">
          <mxGeometry x="1178" width="91" height="71" as="geometry">
            <mxRectangle width="91" height="71" as="alternateBounds" />
          </mxGeometry>
        </mxCell>
        <mxCell id="AOiycFXxId-lt1XcVsrU-203" value="" style="shape=tableRow;horizontal=0;startSize=0;swimlaneHead=0;swimlaneBody=0;strokeColor=inherit;top=0;left=0;bottom=0;right=0;collapsible=0;dropTarget=0;fillColor=none;points=[[0,0.5],[1,0.5]];portConstraint=eastwest;" vertex="1" parent="AOiycFXxId-lt1XcVsrU-97">
          <mxGeometry y="498" width="1269" height="72" as="geometry" />
        </mxCell>
        <mxCell id="AOiycFXxId-lt1XcVsrU-204" value="" style="shape=partialRectangle;html=1;whiteSpace=wrap;connectable=0;strokeColor=inherit;overflow=hidden;fillColor=none;top=0;left=0;bottom=0;right=0;pointerEvents=1;" vertex="1" parent="AOiycFXxId-lt1XcVsrU-203">
          <mxGeometry width="91" height="72" as="geometry">
            <mxRectangle width="91" height="72" as="alternateBounds" />
          </mxGeometry>
        </mxCell>
        <mxCell id="AOiycFXxId-lt1XcVsrU-205" value="" style="shape=partialRectangle;html=1;whiteSpace=wrap;connectable=0;strokeColor=inherit;overflow=hidden;fillColor=none;top=0;left=0;bottom=0;right=0;pointerEvents=1;" vertex="1" parent="AOiycFXxId-lt1XcVsrU-203">
          <mxGeometry x="91" width="90" height="72" as="geometry">
            <mxRectangle width="90" height="72" as="alternateBounds" />
          </mxGeometry>
        </mxCell>
        <mxCell id="AOiycFXxId-lt1XcVsrU-206" value="" style="shape=partialRectangle;html=1;whiteSpace=wrap;connectable=0;strokeColor=inherit;overflow=hidden;fillColor=none;top=0;left=0;bottom=0;right=0;pointerEvents=1;" vertex="1" parent="AOiycFXxId-lt1XcVsrU-203">
          <mxGeometry x="181" width="91" height="72" as="geometry">
            <mxRectangle width="91" height="72" as="alternateBounds" />
          </mxGeometry>
        </mxCell>
        <mxCell id="AOiycFXxId-lt1XcVsrU-207" value="" style="shape=partialRectangle;html=1;whiteSpace=wrap;connectable=0;strokeColor=inherit;overflow=hidden;fillColor=none;top=0;left=0;bottom=0;right=0;pointerEvents=1;" vertex="1" parent="AOiycFXxId-lt1XcVsrU-203">
          <mxGeometry x="272" width="91" height="72" as="geometry">
            <mxRectangle width="91" height="72" as="alternateBounds" />
          </mxGeometry>
        </mxCell>
        <mxCell id="AOiycFXxId-lt1XcVsrU-208" value="" style="shape=partialRectangle;html=1;whiteSpace=wrap;connectable=0;strokeColor=inherit;overflow=hidden;fillColor=none;top=0;left=0;bottom=0;right=0;pointerEvents=1;" vertex="1" parent="AOiycFXxId-lt1XcVsrU-203">
          <mxGeometry x="363" width="90" height="72" as="geometry">
            <mxRectangle width="90" height="72" as="alternateBounds" />
          </mxGeometry>
        </mxCell>
        <mxCell id="AOiycFXxId-lt1XcVsrU-209" value="" style="shape=partialRectangle;html=1;whiteSpace=wrap;connectable=0;strokeColor=inherit;overflow=hidden;fillColor=none;top=0;left=0;bottom=0;right=0;pointerEvents=1;" vertex="1" parent="AOiycFXxId-lt1XcVsrU-203">
          <mxGeometry x="453" width="91" height="72" as="geometry">
            <mxRectangle width="91" height="72" as="alternateBounds" />
          </mxGeometry>
        </mxCell>
        <mxCell id="AOiycFXxId-lt1XcVsrU-210" value="" style="shape=partialRectangle;html=1;whiteSpace=wrap;connectable=0;strokeColor=inherit;overflow=hidden;fillColor=none;top=0;left=0;bottom=0;right=0;pointerEvents=1;" vertex="1" parent="AOiycFXxId-lt1XcVsrU-203">
          <mxGeometry x="544" width="90" height="72" as="geometry">
            <mxRectangle width="90" height="72" as="alternateBounds" />
          </mxGeometry>
        </mxCell>
        <mxCell id="AOiycFXxId-lt1XcVsrU-211" value="" style="shape=partialRectangle;html=1;whiteSpace=wrap;connectable=0;strokeColor=inherit;overflow=hidden;fillColor=none;top=0;left=0;bottom=0;right=0;pointerEvents=1;" vertex="1" parent="AOiycFXxId-lt1XcVsrU-203">
          <mxGeometry x="634" width="91" height="72" as="geometry">
            <mxRectangle width="91" height="72" as="alternateBounds" />
          </mxGeometry>
        </mxCell>
        <mxCell id="AOiycFXxId-lt1XcVsrU-212" value="" style="shape=partialRectangle;html=1;whiteSpace=wrap;connectable=0;strokeColor=inherit;overflow=hidden;fillColor=none;top=0;left=0;bottom=0;right=0;pointerEvents=1;" vertex="1" parent="AOiycFXxId-lt1XcVsrU-203">
          <mxGeometry x="725" width="91" height="72" as="geometry">
            <mxRectangle width="91" height="72" as="alternateBounds" />
          </mxGeometry>
        </mxCell>
        <mxCell id="AOiycFXxId-lt1XcVsrU-213" value="" style="shape=partialRectangle;html=1;whiteSpace=wrap;connectable=0;strokeColor=inherit;overflow=hidden;fillColor=none;top=0;left=0;bottom=0;right=0;pointerEvents=1;" vertex="1" parent="AOiycFXxId-lt1XcVsrU-203">
          <mxGeometry x="816" width="90" height="72" as="geometry">
            <mxRectangle width="90" height="72" as="alternateBounds" />
          </mxGeometry>
        </mxCell>
        <mxCell id="AOiycFXxId-lt1XcVsrU-214" value="" style="shape=partialRectangle;html=1;whiteSpace=wrap;connectable=0;strokeColor=inherit;overflow=hidden;fillColor=none;top=0;left=0;bottom=0;right=0;pointerEvents=1;" vertex="1" parent="AOiycFXxId-lt1XcVsrU-203">
          <mxGeometry x="906" width="91" height="72" as="geometry">
            <mxRectangle width="91" height="72" as="alternateBounds" />
          </mxGeometry>
        </mxCell>
        <mxCell id="AOiycFXxId-lt1XcVsrU-215" value="" style="shape=partialRectangle;html=1;whiteSpace=wrap;connectable=0;strokeColor=inherit;overflow=hidden;fillColor=none;top=0;left=0;bottom=0;right=0;pointerEvents=1;" vertex="1" parent="AOiycFXxId-lt1XcVsrU-203">
          <mxGeometry x="997" width="91" height="72" as="geometry">
            <mxRectangle width="91" height="72" as="alternateBounds" />
          </mxGeometry>
        </mxCell>
        <mxCell id="AOiycFXxId-lt1XcVsrU-216" value="" style="shape=partialRectangle;html=1;whiteSpace=wrap;connectable=0;strokeColor=inherit;overflow=hidden;fillColor=none;top=0;left=0;bottom=0;right=0;pointerEvents=1;" vertex="1" parent="AOiycFXxId-lt1XcVsrU-203">
          <mxGeometry x="1088" width="90" height="72" as="geometry">
            <mxRectangle width="90" height="72" as="alternateBounds" />
          </mxGeometry>
        </mxCell>
        <mxCell id="AOiycFXxId-lt1XcVsrU-217" value="" style="shape=partialRectangle;html=1;whiteSpace=wrap;connectable=0;strokeColor=inherit;overflow=hidden;fillColor=none;top=0;left=0;bottom=0;right=0;pointerEvents=1;" vertex="1" parent="AOiycFXxId-lt1XcVsrU-203">
          <mxGeometry x="1178" width="91" height="72" as="geometry">
            <mxRectangle width="91" height="72" as="alternateBounds" />
          </mxGeometry>
        </mxCell>
        <mxCell id="AOiycFXxId-lt1XcVsrU-218" value="" style="shape=tableRow;horizontal=0;startSize=0;swimlaneHead=0;swimlaneBody=0;strokeColor=inherit;top=0;left=0;bottom=0;right=0;collapsible=0;dropTarget=0;fillColor=none;points=[[0,0.5],[1,0.5]];portConstraint=eastwest;" vertex="1" parent="AOiycFXxId-lt1XcVsrU-97">
          <mxGeometry y="570" width="1269" height="71" as="geometry" />
        </mxCell>
        <mxCell id="AOiycFXxId-lt1XcVsrU-219" value="" style="shape=partialRectangle;html=1;whiteSpace=wrap;connectable=0;strokeColor=inherit;overflow=hidden;fillColor=none;top=0;left=0;bottom=0;right=0;pointerEvents=1;" vertex="1" parent="AOiycFXxId-lt1XcVsrU-218">
          <mxGeometry width="91" height="71" as="geometry">
            <mxRectangle width="91" height="71" as="alternateBounds" />
          </mxGeometry>
        </mxCell>
        <mxCell id="AOiycFXxId-lt1XcVsrU-220" value="" style="shape=partialRectangle;html=1;whiteSpace=wrap;connectable=0;strokeColor=inherit;overflow=hidden;fillColor=none;top=0;left=0;bottom=0;right=0;pointerEvents=1;" vertex="1" parent="AOiycFXxId-lt1XcVsrU-218">
          <mxGeometry x="91" width="90" height="71" as="geometry">
            <mxRectangle width="90" height="71" as="alternateBounds" />
          </mxGeometry>
        </mxCell>
        <mxCell id="AOiycFXxId-lt1XcVsrU-221" value="" style="shape=partialRectangle;html=1;whiteSpace=wrap;connectable=0;strokeColor=inherit;overflow=hidden;fillColor=none;top=0;left=0;bottom=0;right=0;pointerEvents=1;" vertex="1" parent="AOiycFXxId-lt1XcVsrU-218">
          <mxGeometry x="181" width="91" height="71" as="geometry">
            <mxRectangle width="91" height="71" as="alternateBounds" />
          </mxGeometry>
        </mxCell>
        <mxCell id="AOiycFXxId-lt1XcVsrU-222" value="" style="shape=partialRectangle;html=1;whiteSpace=wrap;connectable=0;strokeColor=inherit;overflow=hidden;fillColor=none;top=0;left=0;bottom=0;right=0;pointerEvents=1;" vertex="1" parent="AOiycFXxId-lt1XcVsrU-218">
          <mxGeometry x="272" width="91" height="71" as="geometry">
            <mxRectangle width="91" height="71" as="alternateBounds" />
          </mxGeometry>
        </mxCell>
        <mxCell id="AOiycFXxId-lt1XcVsrU-223" value="" style="shape=partialRectangle;html=1;whiteSpace=wrap;connectable=0;strokeColor=inherit;overflow=hidden;fillColor=none;top=0;left=0;bottom=0;right=0;pointerEvents=1;" vertex="1" parent="AOiycFXxId-lt1XcVsrU-218">
          <mxGeometry x="363" width="90" height="71" as="geometry">
            <mxRectangle width="90" height="71" as="alternateBounds" />
          </mxGeometry>
        </mxCell>
        <mxCell id="AOiycFXxId-lt1XcVsrU-224" value="" style="shape=partialRectangle;html=1;whiteSpace=wrap;connectable=0;strokeColor=inherit;overflow=hidden;fillColor=none;top=0;left=0;bottom=0;right=0;pointerEvents=1;" vertex="1" parent="AOiycFXxId-lt1XcVsrU-218">
          <mxGeometry x="453" width="91" height="71" as="geometry">
            <mxRectangle width="91" height="71" as="alternateBounds" />
          </mxGeometry>
        </mxCell>
        <mxCell id="AOiycFXxId-lt1XcVsrU-225" value="" style="shape=partialRectangle;html=1;whiteSpace=wrap;connectable=0;strokeColor=inherit;overflow=hidden;fillColor=none;top=0;left=0;bottom=0;right=0;pointerEvents=1;" vertex="1" parent="AOiycFXxId-lt1XcVsrU-218">
          <mxGeometry x="544" width="90" height="71" as="geometry">
            <mxRectangle width="90" height="71" as="alternateBounds" />
          </mxGeometry>
        </mxCell>
        <mxCell id="AOiycFXxId-lt1XcVsrU-226" value="" style="shape=partialRectangle;html=1;whiteSpace=wrap;connectable=0;strokeColor=inherit;overflow=hidden;fillColor=none;top=0;left=0;bottom=0;right=0;pointerEvents=1;" vertex="1" parent="AOiycFXxId-lt1XcVsrU-218">
          <mxGeometry x="634" width="91" height="71" as="geometry">
            <mxRectangle width="91" height="71" as="alternateBounds" />
          </mxGeometry>
        </mxCell>
        <mxCell id="AOiycFXxId-lt1XcVsrU-227" value="" style="shape=partialRectangle;html=1;whiteSpace=wrap;connectable=0;strokeColor=inherit;overflow=hidden;fillColor=none;top=0;left=0;bottom=0;right=0;pointerEvents=1;" vertex="1" parent="AOiycFXxId-lt1XcVsrU-218">
          <mxGeometry x="725" width="91" height="71" as="geometry">
            <mxRectangle width="91" height="71" as="alternateBounds" />
          </mxGeometry>
        </mxCell>
        <mxCell id="AOiycFXxId-lt1XcVsrU-228" value="" style="shape=partialRectangle;html=1;whiteSpace=wrap;connectable=0;strokeColor=inherit;overflow=hidden;fillColor=none;top=0;left=0;bottom=0;right=0;pointerEvents=1;" vertex="1" parent="AOiycFXxId-lt1XcVsrU-218">
          <mxGeometry x="816" width="90" height="71" as="geometry">
            <mxRectangle width="90" height="71" as="alternateBounds" />
          </mxGeometry>
        </mxCell>
        <mxCell id="AOiycFXxId-lt1XcVsrU-229" value="" style="shape=partialRectangle;html=1;whiteSpace=wrap;connectable=0;strokeColor=inherit;overflow=hidden;fillColor=none;top=0;left=0;bottom=0;right=0;pointerEvents=1;" vertex="1" parent="AOiycFXxId-lt1XcVsrU-218">
          <mxGeometry x="906" width="91" height="71" as="geometry">
            <mxRectangle width="91" height="71" as="alternateBounds" />
          </mxGeometry>
        </mxCell>
        <mxCell id="AOiycFXxId-lt1XcVsrU-230" value="" style="shape=partialRectangle;html=1;whiteSpace=wrap;connectable=0;strokeColor=inherit;overflow=hidden;fillColor=none;top=0;left=0;bottom=0;right=0;pointerEvents=1;" vertex="1" parent="AOiycFXxId-lt1XcVsrU-218">
          <mxGeometry x="997" width="91" height="71" as="geometry">
            <mxRectangle width="91" height="71" as="alternateBounds" />
          </mxGeometry>
        </mxCell>
        <mxCell id="AOiycFXxId-lt1XcVsrU-231" value="" style="shape=partialRectangle;html=1;whiteSpace=wrap;connectable=0;strokeColor=inherit;overflow=hidden;fillColor=none;top=0;left=0;bottom=0;right=0;pointerEvents=1;" vertex="1" parent="AOiycFXxId-lt1XcVsrU-218">
          <mxGeometry x="1088" width="90" height="71" as="geometry">
            <mxRectangle width="90" height="71" as="alternateBounds" />
          </mxGeometry>
        </mxCell>
        <mxCell id="AOiycFXxId-lt1XcVsrU-232" value="" style="shape=partialRectangle;html=1;whiteSpace=wrap;connectable=0;strokeColor=inherit;overflow=hidden;fillColor=none;top=0;left=0;bottom=0;right=0;pointerEvents=1;" vertex="1" parent="AOiycFXxId-lt1XcVsrU-218">
          <mxGeometry x="1178" width="91" height="71" as="geometry">
            <mxRectangle width="91" height="71" as="alternateBounds" />
          </mxGeometry>
        </mxCell>
        <mxCell id="AOiycFXxId-lt1XcVsrU-233" value="" style="shape=tableRow;horizontal=0;startSize=0;swimlaneHead=0;swimlaneBody=0;strokeColor=inherit;top=0;left=0;bottom=0;right=0;collapsible=0;dropTarget=0;fillColor=none;points=[[0,0.5],[1,0.5]];portConstraint=eastwest;" vertex="1" parent="AOiycFXxId-lt1XcVsrU-97">
          <mxGeometry y="641" width="1269" height="71" as="geometry" />
        </mxCell>
        <mxCell id="AOiycFXxId-lt1XcVsrU-234" value="" style="shape=partialRectangle;html=1;whiteSpace=wrap;connectable=0;strokeColor=inherit;overflow=hidden;fillColor=none;top=0;left=0;bottom=0;right=0;pointerEvents=1;" vertex="1" parent="AOiycFXxId-lt1XcVsrU-233">
          <mxGeometry width="91" height="71" as="geometry">
            <mxRectangle width="91" height="71" as="alternateBounds" />
          </mxGeometry>
        </mxCell>
        <mxCell id="AOiycFXxId-lt1XcVsrU-235" value="" style="shape=partialRectangle;html=1;whiteSpace=wrap;connectable=0;strokeColor=inherit;overflow=hidden;fillColor=none;top=0;left=0;bottom=0;right=0;pointerEvents=1;" vertex="1" parent="AOiycFXxId-lt1XcVsrU-233">
          <mxGeometry x="91" width="90" height="71" as="geometry">
            <mxRectangle width="90" height="71" as="alternateBounds" />
          </mxGeometry>
        </mxCell>
        <mxCell id="AOiycFXxId-lt1XcVsrU-236" value="" style="shape=partialRectangle;html=1;whiteSpace=wrap;connectable=0;strokeColor=inherit;overflow=hidden;fillColor=none;top=0;left=0;bottom=0;right=0;pointerEvents=1;" vertex="1" parent="AOiycFXxId-lt1XcVsrU-233">
          <mxGeometry x="181" width="91" height="71" as="geometry">
            <mxRectangle width="91" height="71" as="alternateBounds" />
          </mxGeometry>
        </mxCell>
        <mxCell id="AOiycFXxId-lt1XcVsrU-237" value="" style="shape=partialRectangle;html=1;whiteSpace=wrap;connectable=0;strokeColor=inherit;overflow=hidden;fillColor=none;top=0;left=0;bottom=0;right=0;pointerEvents=1;" vertex="1" parent="AOiycFXxId-lt1XcVsrU-233">
          <mxGeometry x="272" width="91" height="71" as="geometry">
            <mxRectangle width="91" height="71" as="alternateBounds" />
          </mxGeometry>
        </mxCell>
        <mxCell id="AOiycFXxId-lt1XcVsrU-238" value="" style="shape=partialRectangle;html=1;whiteSpace=wrap;connectable=0;strokeColor=inherit;overflow=hidden;fillColor=none;top=0;left=0;bottom=0;right=0;pointerEvents=1;" vertex="1" parent="AOiycFXxId-lt1XcVsrU-233">
          <mxGeometry x="363" width="90" height="71" as="geometry">
            <mxRectangle width="90" height="71" as="alternateBounds" />
          </mxGeometry>
        </mxCell>
        <mxCell id="AOiycFXxId-lt1XcVsrU-239" value="" style="shape=partialRectangle;html=1;whiteSpace=wrap;connectable=0;strokeColor=inherit;overflow=hidden;fillColor=none;top=0;left=0;bottom=0;right=0;pointerEvents=1;" vertex="1" parent="AOiycFXxId-lt1XcVsrU-233">
          <mxGeometry x="453" width="91" height="71" as="geometry">
            <mxRectangle width="91" height="71" as="alternateBounds" />
          </mxGeometry>
        </mxCell>
        <mxCell id="AOiycFXxId-lt1XcVsrU-240" value="" style="shape=partialRectangle;html=1;whiteSpace=wrap;connectable=0;strokeColor=inherit;overflow=hidden;fillColor=none;top=0;left=0;bottom=0;right=0;pointerEvents=1;" vertex="1" parent="AOiycFXxId-lt1XcVsrU-233">
          <mxGeometry x="544" width="90" height="71" as="geometry">
            <mxRectangle width="90" height="71" as="alternateBounds" />
          </mxGeometry>
        </mxCell>
        <mxCell id="AOiycFXxId-lt1XcVsrU-241" value="" style="shape=partialRectangle;html=1;whiteSpace=wrap;connectable=0;strokeColor=inherit;overflow=hidden;fillColor=none;top=0;left=0;bottom=0;right=0;pointerEvents=1;" vertex="1" parent="AOiycFXxId-lt1XcVsrU-233">
          <mxGeometry x="634" width="91" height="71" as="geometry">
            <mxRectangle width="91" height="71" as="alternateBounds" />
          </mxGeometry>
        </mxCell>
        <mxCell id="AOiycFXxId-lt1XcVsrU-242" value="" style="shape=partialRectangle;html=1;whiteSpace=wrap;connectable=0;strokeColor=inherit;overflow=hidden;fillColor=none;top=0;left=0;bottom=0;right=0;pointerEvents=1;" vertex="1" parent="AOiycFXxId-lt1XcVsrU-233">
          <mxGeometry x="725" width="91" height="71" as="geometry">
            <mxRectangle width="91" height="71" as="alternateBounds" />
          </mxGeometry>
        </mxCell>
        <mxCell id="AOiycFXxId-lt1XcVsrU-243" value="" style="shape=partialRectangle;html=1;whiteSpace=wrap;connectable=0;strokeColor=inherit;overflow=hidden;fillColor=none;top=0;left=0;bottom=0;right=0;pointerEvents=1;" vertex="1" parent="AOiycFXxId-lt1XcVsrU-233">
          <mxGeometry x="816" width="90" height="71" as="geometry">
            <mxRectangle width="90" height="71" as="alternateBounds" />
          </mxGeometry>
        </mxCell>
        <mxCell id="AOiycFXxId-lt1XcVsrU-244" value="" style="shape=partialRectangle;html=1;whiteSpace=wrap;connectable=0;strokeColor=inherit;overflow=hidden;fillColor=none;top=0;left=0;bottom=0;right=0;pointerEvents=1;" vertex="1" parent="AOiycFXxId-lt1XcVsrU-233">
          <mxGeometry x="906" width="91" height="71" as="geometry">
            <mxRectangle width="91" height="71" as="alternateBounds" />
          </mxGeometry>
        </mxCell>
        <mxCell id="AOiycFXxId-lt1XcVsrU-245" value="" style="shape=partialRectangle;html=1;whiteSpace=wrap;connectable=0;strokeColor=inherit;overflow=hidden;fillColor=none;top=0;left=0;bottom=0;right=0;pointerEvents=1;" vertex="1" parent="AOiycFXxId-lt1XcVsrU-233">
          <mxGeometry x="997" width="91" height="71" as="geometry">
            <mxRectangle width="91" height="71" as="alternateBounds" />
          </mxGeometry>
        </mxCell>
        <mxCell id="AOiycFXxId-lt1XcVsrU-246" value="" style="shape=partialRectangle;html=1;whiteSpace=wrap;connectable=0;strokeColor=inherit;overflow=hidden;fillColor=none;top=0;left=0;bottom=0;right=0;pointerEvents=1;" vertex="1" parent="AOiycFXxId-lt1XcVsrU-233">
          <mxGeometry x="1088" width="90" height="71" as="geometry">
            <mxRectangle width="90" height="71" as="alternateBounds" />
          </mxGeometry>
        </mxCell>
        <mxCell id="AOiycFXxId-lt1XcVsrU-247" value="" style="shape=partialRectangle;html=1;whiteSpace=wrap;connectable=0;strokeColor=inherit;overflow=hidden;fillColor=none;top=0;left=0;bottom=0;right=0;pointerEvents=1;" vertex="1" parent="AOiycFXxId-lt1XcVsrU-233">
          <mxGeometry x="1178" width="91" height="71" as="geometry">
            <mxRectangle width="91" height="71" as="alternateBounds" />
          </mxGeometry>
        </mxCell>
        <mxCell id="AOiycFXxId-lt1XcVsrU-248" value="" style="shape=table;startSize=0;container=1;collapsible=0;childLayout=tableLayout;opacity=20;" vertex="1" parent="1">
          <mxGeometry x="6066" y="331" width="1269" height="712" as="geometry" />
        </mxCell>
        <mxCell id="AOiycFXxId-lt1XcVsrU-249" value="" style="shape=tableRow;horizontal=0;startSize=0;swimlaneHead=0;swimlaneBody=0;strokeColor=inherit;top=0;left=0;bottom=0;right=0;collapsible=0;dropTarget=0;fillColor=none;points=[[0,0.5],[1,0.5]];portConstraint=eastwest;" vertex="1" parent="AOiycFXxId-lt1XcVsrU-248">
          <mxGeometry width="1269" height="71" as="geometry" />
        </mxCell>
        <mxCell id="AOiycFXxId-lt1XcVsrU-250" value="" style="shape=partialRectangle;html=1;whiteSpace=wrap;connectable=0;strokeColor=inherit;overflow=hidden;fillColor=none;top=0;left=0;bottom=0;right=0;pointerEvents=1;" vertex="1" parent="AOiycFXxId-lt1XcVsrU-249">
          <mxGeometry width="91" height="71" as="geometry">
            <mxRectangle width="91" height="71" as="alternateBounds" />
          </mxGeometry>
        </mxCell>
        <mxCell id="AOiycFXxId-lt1XcVsrU-251" value="" style="shape=partialRectangle;html=1;whiteSpace=wrap;connectable=0;strokeColor=inherit;overflow=hidden;fillColor=none;top=0;left=0;bottom=0;right=0;pointerEvents=1;" vertex="1" parent="AOiycFXxId-lt1XcVsrU-249">
          <mxGeometry x="91" width="90" height="71" as="geometry">
            <mxRectangle width="90" height="71" as="alternateBounds" />
          </mxGeometry>
        </mxCell>
        <mxCell id="AOiycFXxId-lt1XcVsrU-252" value="" style="shape=partialRectangle;html=1;whiteSpace=wrap;connectable=0;strokeColor=inherit;overflow=hidden;fillColor=none;top=0;left=0;bottom=0;right=0;pointerEvents=1;" vertex="1" parent="AOiycFXxId-lt1XcVsrU-249">
          <mxGeometry x="181" width="91" height="71" as="geometry">
            <mxRectangle width="91" height="71" as="alternateBounds" />
          </mxGeometry>
        </mxCell>
        <mxCell id="AOiycFXxId-lt1XcVsrU-253" value="" style="shape=partialRectangle;html=1;whiteSpace=wrap;connectable=0;strokeColor=inherit;overflow=hidden;fillColor=none;top=0;left=0;bottom=0;right=0;pointerEvents=1;" vertex="1" parent="AOiycFXxId-lt1XcVsrU-249">
          <mxGeometry x="272" width="91" height="71" as="geometry">
            <mxRectangle width="91" height="71" as="alternateBounds" />
          </mxGeometry>
        </mxCell>
        <mxCell id="AOiycFXxId-lt1XcVsrU-254" value="" style="shape=partialRectangle;html=1;whiteSpace=wrap;connectable=0;strokeColor=inherit;overflow=hidden;fillColor=none;top=0;left=0;bottom=0;right=0;pointerEvents=1;" vertex="1" parent="AOiycFXxId-lt1XcVsrU-249">
          <mxGeometry x="363" width="90" height="71" as="geometry">
            <mxRectangle width="90" height="71" as="alternateBounds" />
          </mxGeometry>
        </mxCell>
        <mxCell id="AOiycFXxId-lt1XcVsrU-255" value="" style="shape=partialRectangle;html=1;whiteSpace=wrap;connectable=0;strokeColor=inherit;overflow=hidden;fillColor=none;top=0;left=0;bottom=0;right=0;pointerEvents=1;" vertex="1" parent="AOiycFXxId-lt1XcVsrU-249">
          <mxGeometry x="453" width="91" height="71" as="geometry">
            <mxRectangle width="91" height="71" as="alternateBounds" />
          </mxGeometry>
        </mxCell>
        <mxCell id="AOiycFXxId-lt1XcVsrU-256" value="" style="shape=partialRectangle;html=1;whiteSpace=wrap;connectable=0;strokeColor=inherit;overflow=hidden;fillColor=none;top=0;left=0;bottom=0;right=0;pointerEvents=1;" vertex="1" parent="AOiycFXxId-lt1XcVsrU-249">
          <mxGeometry x="544" width="90" height="71" as="geometry">
            <mxRectangle width="90" height="71" as="alternateBounds" />
          </mxGeometry>
        </mxCell>
        <mxCell id="AOiycFXxId-lt1XcVsrU-257" value="" style="shape=partialRectangle;html=1;whiteSpace=wrap;connectable=0;strokeColor=inherit;overflow=hidden;fillColor=none;top=0;left=0;bottom=0;right=0;pointerEvents=1;" vertex="1" parent="AOiycFXxId-lt1XcVsrU-249">
          <mxGeometry x="634" width="91" height="71" as="geometry">
            <mxRectangle width="91" height="71" as="alternateBounds" />
          </mxGeometry>
        </mxCell>
        <mxCell id="AOiycFXxId-lt1XcVsrU-258" value="" style="shape=partialRectangle;html=1;whiteSpace=wrap;connectable=0;strokeColor=inherit;overflow=hidden;fillColor=none;top=0;left=0;bottom=0;right=0;pointerEvents=1;" vertex="1" parent="AOiycFXxId-lt1XcVsrU-249">
          <mxGeometry x="725" width="91" height="71" as="geometry">
            <mxRectangle width="91" height="71" as="alternateBounds" />
          </mxGeometry>
        </mxCell>
        <mxCell id="AOiycFXxId-lt1XcVsrU-259" value="" style="shape=partialRectangle;html=1;whiteSpace=wrap;connectable=0;strokeColor=inherit;overflow=hidden;fillColor=none;top=0;left=0;bottom=0;right=0;pointerEvents=1;" vertex="1" parent="AOiycFXxId-lt1XcVsrU-249">
          <mxGeometry x="816" width="90" height="71" as="geometry">
            <mxRectangle width="90" height="71" as="alternateBounds" />
          </mxGeometry>
        </mxCell>
        <mxCell id="AOiycFXxId-lt1XcVsrU-260" value="" style="shape=partialRectangle;html=1;whiteSpace=wrap;connectable=0;strokeColor=inherit;overflow=hidden;fillColor=none;top=0;left=0;bottom=0;right=0;pointerEvents=1;" vertex="1" parent="AOiycFXxId-lt1XcVsrU-249">
          <mxGeometry x="906" width="91" height="71" as="geometry">
            <mxRectangle width="91" height="71" as="alternateBounds" />
          </mxGeometry>
        </mxCell>
        <mxCell id="AOiycFXxId-lt1XcVsrU-261" value="" style="shape=partialRectangle;html=1;whiteSpace=wrap;connectable=0;strokeColor=inherit;overflow=hidden;fillColor=none;top=0;left=0;bottom=0;right=0;pointerEvents=1;" vertex="1" parent="AOiycFXxId-lt1XcVsrU-249">
          <mxGeometry x="997" width="91" height="71" as="geometry">
            <mxRectangle width="91" height="71" as="alternateBounds" />
          </mxGeometry>
        </mxCell>
        <mxCell id="AOiycFXxId-lt1XcVsrU-262" value="" style="shape=partialRectangle;html=1;whiteSpace=wrap;connectable=0;strokeColor=inherit;overflow=hidden;fillColor=none;top=0;left=0;bottom=0;right=0;pointerEvents=1;" vertex="1" parent="AOiycFXxId-lt1XcVsrU-249">
          <mxGeometry x="1088" width="90" height="71" as="geometry">
            <mxRectangle width="90" height="71" as="alternateBounds" />
          </mxGeometry>
        </mxCell>
        <mxCell id="AOiycFXxId-lt1XcVsrU-263" value="" style="shape=partialRectangle;html=1;whiteSpace=wrap;connectable=0;strokeColor=inherit;overflow=hidden;fillColor=none;top=0;left=0;bottom=0;right=0;pointerEvents=1;" vertex="1" parent="AOiycFXxId-lt1XcVsrU-249">
          <mxGeometry x="1178" width="91" height="71" as="geometry">
            <mxRectangle width="91" height="71" as="alternateBounds" />
          </mxGeometry>
        </mxCell>
        <mxCell id="AOiycFXxId-lt1XcVsrU-264" value="" style="shape=tableRow;horizontal=0;startSize=0;swimlaneHead=0;swimlaneBody=0;strokeColor=inherit;top=0;left=0;bottom=0;right=0;collapsible=0;dropTarget=0;fillColor=none;points=[[0,0.5],[1,0.5]];portConstraint=eastwest;" vertex="1" parent="AOiycFXxId-lt1XcVsrU-248">
          <mxGeometry y="71" width="1269" height="71" as="geometry" />
        </mxCell>
        <mxCell id="AOiycFXxId-lt1XcVsrU-265" value="" style="shape=partialRectangle;html=1;whiteSpace=wrap;connectable=0;strokeColor=inherit;overflow=hidden;fillColor=none;top=0;left=0;bottom=0;right=0;pointerEvents=1;" vertex="1" parent="AOiycFXxId-lt1XcVsrU-264">
          <mxGeometry width="91" height="71" as="geometry">
            <mxRectangle width="91" height="71" as="alternateBounds" />
          </mxGeometry>
        </mxCell>
        <mxCell id="AOiycFXxId-lt1XcVsrU-266" value="" style="shape=partialRectangle;html=1;whiteSpace=wrap;connectable=0;strokeColor=inherit;overflow=hidden;fillColor=none;top=0;left=0;bottom=0;right=0;pointerEvents=1;" vertex="1" parent="AOiycFXxId-lt1XcVsrU-264">
          <mxGeometry x="91" width="90" height="71" as="geometry">
            <mxRectangle width="90" height="71" as="alternateBounds" />
          </mxGeometry>
        </mxCell>
        <mxCell id="AOiycFXxId-lt1XcVsrU-267" value="" style="shape=partialRectangle;html=1;whiteSpace=wrap;connectable=0;strokeColor=inherit;overflow=hidden;fillColor=none;top=0;left=0;bottom=0;right=0;pointerEvents=1;" vertex="1" parent="AOiycFXxId-lt1XcVsrU-264">
          <mxGeometry x="181" width="91" height="71" as="geometry">
            <mxRectangle width="91" height="71" as="alternateBounds" />
          </mxGeometry>
        </mxCell>
        <mxCell id="AOiycFXxId-lt1XcVsrU-268" value="" style="shape=partialRectangle;html=1;whiteSpace=wrap;connectable=0;strokeColor=inherit;overflow=hidden;fillColor=none;top=0;left=0;bottom=0;right=0;pointerEvents=1;" vertex="1" parent="AOiycFXxId-lt1XcVsrU-264">
          <mxGeometry x="272" width="91" height="71" as="geometry">
            <mxRectangle width="91" height="71" as="alternateBounds" />
          </mxGeometry>
        </mxCell>
        <mxCell id="AOiycFXxId-lt1XcVsrU-269" value="" style="shape=partialRectangle;html=1;whiteSpace=wrap;connectable=0;strokeColor=inherit;overflow=hidden;fillColor=none;top=0;left=0;bottom=0;right=0;pointerEvents=1;" vertex="1" parent="AOiycFXxId-lt1XcVsrU-264">
          <mxGeometry x="363" width="90" height="71" as="geometry">
            <mxRectangle width="90" height="71" as="alternateBounds" />
          </mxGeometry>
        </mxCell>
        <mxCell id="AOiycFXxId-lt1XcVsrU-270" value="" style="shape=partialRectangle;html=1;whiteSpace=wrap;connectable=0;strokeColor=inherit;overflow=hidden;fillColor=none;top=0;left=0;bottom=0;right=0;pointerEvents=1;" vertex="1" parent="AOiycFXxId-lt1XcVsrU-264">
          <mxGeometry x="453" width="91" height="71" as="geometry">
            <mxRectangle width="91" height="71" as="alternateBounds" />
          </mxGeometry>
        </mxCell>
        <mxCell id="AOiycFXxId-lt1XcVsrU-271" value="" style="shape=partialRectangle;html=1;whiteSpace=wrap;connectable=0;strokeColor=inherit;overflow=hidden;fillColor=none;top=0;left=0;bottom=0;right=0;pointerEvents=1;" vertex="1" parent="AOiycFXxId-lt1XcVsrU-264">
          <mxGeometry x="544" width="90" height="71" as="geometry">
            <mxRectangle width="90" height="71" as="alternateBounds" />
          </mxGeometry>
        </mxCell>
        <mxCell id="AOiycFXxId-lt1XcVsrU-272" value="" style="shape=partialRectangle;html=1;whiteSpace=wrap;connectable=0;strokeColor=inherit;overflow=hidden;fillColor=none;top=0;left=0;bottom=0;right=0;pointerEvents=1;" vertex="1" parent="AOiycFXxId-lt1XcVsrU-264">
          <mxGeometry x="634" width="91" height="71" as="geometry">
            <mxRectangle width="91" height="71" as="alternateBounds" />
          </mxGeometry>
        </mxCell>
        <mxCell id="AOiycFXxId-lt1XcVsrU-273" value="" style="shape=partialRectangle;html=1;whiteSpace=wrap;connectable=0;strokeColor=inherit;overflow=hidden;fillColor=none;top=0;left=0;bottom=0;right=0;pointerEvents=1;" vertex="1" parent="AOiycFXxId-lt1XcVsrU-264">
          <mxGeometry x="725" width="91" height="71" as="geometry">
            <mxRectangle width="91" height="71" as="alternateBounds" />
          </mxGeometry>
        </mxCell>
        <mxCell id="AOiycFXxId-lt1XcVsrU-274" value="" style="shape=partialRectangle;html=1;whiteSpace=wrap;connectable=0;strokeColor=inherit;overflow=hidden;fillColor=none;top=0;left=0;bottom=0;right=0;pointerEvents=1;" vertex="1" parent="AOiycFXxId-lt1XcVsrU-264">
          <mxGeometry x="816" width="90" height="71" as="geometry">
            <mxRectangle width="90" height="71" as="alternateBounds" />
          </mxGeometry>
        </mxCell>
        <mxCell id="AOiycFXxId-lt1XcVsrU-275" value="" style="shape=partialRectangle;html=1;whiteSpace=wrap;connectable=0;strokeColor=inherit;overflow=hidden;fillColor=none;top=0;left=0;bottom=0;right=0;pointerEvents=1;" vertex="1" parent="AOiycFXxId-lt1XcVsrU-264">
          <mxGeometry x="906" width="91" height="71" as="geometry">
            <mxRectangle width="91" height="71" as="alternateBounds" />
          </mxGeometry>
        </mxCell>
        <mxCell id="AOiycFXxId-lt1XcVsrU-276" value="" style="shape=partialRectangle;html=1;whiteSpace=wrap;connectable=0;strokeColor=inherit;overflow=hidden;fillColor=none;top=0;left=0;bottom=0;right=0;pointerEvents=1;" vertex="1" parent="AOiycFXxId-lt1XcVsrU-264">
          <mxGeometry x="997" width="91" height="71" as="geometry">
            <mxRectangle width="91" height="71" as="alternateBounds" />
          </mxGeometry>
        </mxCell>
        <mxCell id="AOiycFXxId-lt1XcVsrU-277" value="" style="shape=partialRectangle;html=1;whiteSpace=wrap;connectable=0;strokeColor=inherit;overflow=hidden;fillColor=none;top=0;left=0;bottom=0;right=0;pointerEvents=1;" vertex="1" parent="AOiycFXxId-lt1XcVsrU-264">
          <mxGeometry x="1088" width="90" height="71" as="geometry">
            <mxRectangle width="90" height="71" as="alternateBounds" />
          </mxGeometry>
        </mxCell>
        <mxCell id="AOiycFXxId-lt1XcVsrU-278" value="" style="shape=partialRectangle;html=1;whiteSpace=wrap;connectable=0;strokeColor=inherit;overflow=hidden;fillColor=none;top=0;left=0;bottom=0;right=0;pointerEvents=1;" vertex="1" parent="AOiycFXxId-lt1XcVsrU-264">
          <mxGeometry x="1178" width="91" height="71" as="geometry">
            <mxRectangle width="91" height="71" as="alternateBounds" />
          </mxGeometry>
        </mxCell>
        <mxCell id="AOiycFXxId-lt1XcVsrU-279" value="" style="shape=tableRow;horizontal=0;startSize=0;swimlaneHead=0;swimlaneBody=0;strokeColor=inherit;top=0;left=0;bottom=0;right=0;collapsible=0;dropTarget=0;fillColor=none;points=[[0,0.5],[1,0.5]];portConstraint=eastwest;" vertex="1" parent="AOiycFXxId-lt1XcVsrU-248">
          <mxGeometry y="142" width="1269" height="72" as="geometry" />
        </mxCell>
        <mxCell id="AOiycFXxId-lt1XcVsrU-280" value="" style="shape=partialRectangle;html=1;whiteSpace=wrap;connectable=0;strokeColor=inherit;overflow=hidden;fillColor=none;top=0;left=0;bottom=0;right=0;pointerEvents=1;" vertex="1" parent="AOiycFXxId-lt1XcVsrU-279">
          <mxGeometry width="91" height="72" as="geometry">
            <mxRectangle width="91" height="72" as="alternateBounds" />
          </mxGeometry>
        </mxCell>
        <mxCell id="AOiycFXxId-lt1XcVsrU-281" value="" style="shape=partialRectangle;html=1;whiteSpace=wrap;connectable=0;strokeColor=inherit;overflow=hidden;fillColor=none;top=0;left=0;bottom=0;right=0;pointerEvents=1;" vertex="1" parent="AOiycFXxId-lt1XcVsrU-279">
          <mxGeometry x="91" width="90" height="72" as="geometry">
            <mxRectangle width="90" height="72" as="alternateBounds" />
          </mxGeometry>
        </mxCell>
        <mxCell id="AOiycFXxId-lt1XcVsrU-282" value="" style="shape=partialRectangle;html=1;whiteSpace=wrap;connectable=0;strokeColor=inherit;overflow=hidden;fillColor=none;top=0;left=0;bottom=0;right=0;pointerEvents=1;" vertex="1" parent="AOiycFXxId-lt1XcVsrU-279">
          <mxGeometry x="181" width="91" height="72" as="geometry">
            <mxRectangle width="91" height="72" as="alternateBounds" />
          </mxGeometry>
        </mxCell>
        <mxCell id="AOiycFXxId-lt1XcVsrU-283" value="" style="shape=partialRectangle;html=1;whiteSpace=wrap;connectable=0;strokeColor=inherit;overflow=hidden;fillColor=none;top=0;left=0;bottom=0;right=0;pointerEvents=1;" vertex="1" parent="AOiycFXxId-lt1XcVsrU-279">
          <mxGeometry x="272" width="91" height="72" as="geometry">
            <mxRectangle width="91" height="72" as="alternateBounds" />
          </mxGeometry>
        </mxCell>
        <mxCell id="AOiycFXxId-lt1XcVsrU-284" value="" style="shape=partialRectangle;html=1;whiteSpace=wrap;connectable=0;strokeColor=inherit;overflow=hidden;fillColor=none;top=0;left=0;bottom=0;right=0;pointerEvents=1;" vertex="1" parent="AOiycFXxId-lt1XcVsrU-279">
          <mxGeometry x="363" width="90" height="72" as="geometry">
            <mxRectangle width="90" height="72" as="alternateBounds" />
          </mxGeometry>
        </mxCell>
        <mxCell id="AOiycFXxId-lt1XcVsrU-285" value="" style="shape=partialRectangle;html=1;whiteSpace=wrap;connectable=0;strokeColor=inherit;overflow=hidden;fillColor=none;top=0;left=0;bottom=0;right=0;pointerEvents=1;" vertex="1" parent="AOiycFXxId-lt1XcVsrU-279">
          <mxGeometry x="453" width="91" height="72" as="geometry">
            <mxRectangle width="91" height="72" as="alternateBounds" />
          </mxGeometry>
        </mxCell>
        <mxCell id="AOiycFXxId-lt1XcVsrU-286" value="" style="shape=partialRectangle;html=1;whiteSpace=wrap;connectable=0;strokeColor=inherit;overflow=hidden;fillColor=none;top=0;left=0;bottom=0;right=0;pointerEvents=1;" vertex="1" parent="AOiycFXxId-lt1XcVsrU-279">
          <mxGeometry x="544" width="90" height="72" as="geometry">
            <mxRectangle width="90" height="72" as="alternateBounds" />
          </mxGeometry>
        </mxCell>
        <mxCell id="AOiycFXxId-lt1XcVsrU-287" value="" style="shape=partialRectangle;html=1;whiteSpace=wrap;connectable=0;strokeColor=inherit;overflow=hidden;fillColor=none;top=0;left=0;bottom=0;right=0;pointerEvents=1;" vertex="1" parent="AOiycFXxId-lt1XcVsrU-279">
          <mxGeometry x="634" width="91" height="72" as="geometry">
            <mxRectangle width="91" height="72" as="alternateBounds" />
          </mxGeometry>
        </mxCell>
        <mxCell id="AOiycFXxId-lt1XcVsrU-288" value="" style="shape=partialRectangle;html=1;whiteSpace=wrap;connectable=0;strokeColor=inherit;overflow=hidden;fillColor=none;top=0;left=0;bottom=0;right=0;pointerEvents=1;" vertex="1" parent="AOiycFXxId-lt1XcVsrU-279">
          <mxGeometry x="725" width="91" height="72" as="geometry">
            <mxRectangle width="91" height="72" as="alternateBounds" />
          </mxGeometry>
        </mxCell>
        <mxCell id="AOiycFXxId-lt1XcVsrU-289" value="" style="shape=partialRectangle;html=1;whiteSpace=wrap;connectable=0;strokeColor=inherit;overflow=hidden;fillColor=none;top=0;left=0;bottom=0;right=0;pointerEvents=1;" vertex="1" parent="AOiycFXxId-lt1XcVsrU-279">
          <mxGeometry x="816" width="90" height="72" as="geometry">
            <mxRectangle width="90" height="72" as="alternateBounds" />
          </mxGeometry>
        </mxCell>
        <mxCell id="AOiycFXxId-lt1XcVsrU-290" value="" style="shape=partialRectangle;html=1;whiteSpace=wrap;connectable=0;strokeColor=inherit;overflow=hidden;fillColor=none;top=0;left=0;bottom=0;right=0;pointerEvents=1;" vertex="1" parent="AOiycFXxId-lt1XcVsrU-279">
          <mxGeometry x="906" width="91" height="72" as="geometry">
            <mxRectangle width="91" height="72" as="alternateBounds" />
          </mxGeometry>
        </mxCell>
        <mxCell id="AOiycFXxId-lt1XcVsrU-291" value="" style="shape=partialRectangle;html=1;whiteSpace=wrap;connectable=0;strokeColor=inherit;overflow=hidden;fillColor=none;top=0;left=0;bottom=0;right=0;pointerEvents=1;" vertex="1" parent="AOiycFXxId-lt1XcVsrU-279">
          <mxGeometry x="997" width="91" height="72" as="geometry">
            <mxRectangle width="91" height="72" as="alternateBounds" />
          </mxGeometry>
        </mxCell>
        <mxCell id="AOiycFXxId-lt1XcVsrU-292" value="" style="shape=partialRectangle;html=1;whiteSpace=wrap;connectable=0;strokeColor=inherit;overflow=hidden;fillColor=none;top=0;left=0;bottom=0;right=0;pointerEvents=1;" vertex="1" parent="AOiycFXxId-lt1XcVsrU-279">
          <mxGeometry x="1088" width="90" height="72" as="geometry">
            <mxRectangle width="90" height="72" as="alternateBounds" />
          </mxGeometry>
        </mxCell>
        <mxCell id="AOiycFXxId-lt1XcVsrU-293" value="" style="shape=partialRectangle;html=1;whiteSpace=wrap;connectable=0;strokeColor=inherit;overflow=hidden;fillColor=none;top=0;left=0;bottom=0;right=0;pointerEvents=1;" vertex="1" parent="AOiycFXxId-lt1XcVsrU-279">
          <mxGeometry x="1178" width="91" height="72" as="geometry">
            <mxRectangle width="91" height="72" as="alternateBounds" />
          </mxGeometry>
        </mxCell>
        <mxCell id="AOiycFXxId-lt1XcVsrU-294" value="" style="shape=tableRow;horizontal=0;startSize=0;swimlaneHead=0;swimlaneBody=0;strokeColor=inherit;top=0;left=0;bottom=0;right=0;collapsible=0;dropTarget=0;fillColor=none;points=[[0,0.5],[1,0.5]];portConstraint=eastwest;" vertex="1" parent="AOiycFXxId-lt1XcVsrU-248">
          <mxGeometry y="214" width="1269" height="71" as="geometry" />
        </mxCell>
        <mxCell id="AOiycFXxId-lt1XcVsrU-295" value="" style="shape=partialRectangle;html=1;whiteSpace=wrap;connectable=0;strokeColor=inherit;overflow=hidden;fillColor=none;top=0;left=0;bottom=0;right=0;pointerEvents=1;" vertex="1" parent="AOiycFXxId-lt1XcVsrU-294">
          <mxGeometry width="91" height="71" as="geometry">
            <mxRectangle width="91" height="71" as="alternateBounds" />
          </mxGeometry>
        </mxCell>
        <mxCell id="AOiycFXxId-lt1XcVsrU-296" value="" style="shape=partialRectangle;html=1;whiteSpace=wrap;connectable=0;strokeColor=inherit;overflow=hidden;fillColor=none;top=0;left=0;bottom=0;right=0;pointerEvents=1;" vertex="1" parent="AOiycFXxId-lt1XcVsrU-294">
          <mxGeometry x="91" width="90" height="71" as="geometry">
            <mxRectangle width="90" height="71" as="alternateBounds" />
          </mxGeometry>
        </mxCell>
        <mxCell id="AOiycFXxId-lt1XcVsrU-297" value="" style="shape=partialRectangle;html=1;whiteSpace=wrap;connectable=0;strokeColor=inherit;overflow=hidden;fillColor=none;top=0;left=0;bottom=0;right=0;pointerEvents=1;" vertex="1" parent="AOiycFXxId-lt1XcVsrU-294">
          <mxGeometry x="181" width="91" height="71" as="geometry">
            <mxRectangle width="91" height="71" as="alternateBounds" />
          </mxGeometry>
        </mxCell>
        <mxCell id="AOiycFXxId-lt1XcVsrU-298" value="" style="shape=partialRectangle;html=1;whiteSpace=wrap;connectable=0;strokeColor=inherit;overflow=hidden;fillColor=none;top=0;left=0;bottom=0;right=0;pointerEvents=1;" vertex="1" parent="AOiycFXxId-lt1XcVsrU-294">
          <mxGeometry x="272" width="91" height="71" as="geometry">
            <mxRectangle width="91" height="71" as="alternateBounds" />
          </mxGeometry>
        </mxCell>
        <mxCell id="AOiycFXxId-lt1XcVsrU-299" value="" style="shape=partialRectangle;html=1;whiteSpace=wrap;connectable=0;strokeColor=inherit;overflow=hidden;fillColor=none;top=0;left=0;bottom=0;right=0;pointerEvents=1;" vertex="1" parent="AOiycFXxId-lt1XcVsrU-294">
          <mxGeometry x="363" width="90" height="71" as="geometry">
            <mxRectangle width="90" height="71" as="alternateBounds" />
          </mxGeometry>
        </mxCell>
        <mxCell id="AOiycFXxId-lt1XcVsrU-300" value="" style="shape=partialRectangle;html=1;whiteSpace=wrap;connectable=0;strokeColor=inherit;overflow=hidden;fillColor=none;top=0;left=0;bottom=0;right=0;pointerEvents=1;" vertex="1" parent="AOiycFXxId-lt1XcVsrU-294">
          <mxGeometry x="453" width="91" height="71" as="geometry">
            <mxRectangle width="91" height="71" as="alternateBounds" />
          </mxGeometry>
        </mxCell>
        <mxCell id="AOiycFXxId-lt1XcVsrU-301" value="" style="shape=partialRectangle;html=1;whiteSpace=wrap;connectable=0;strokeColor=inherit;overflow=hidden;fillColor=none;top=0;left=0;bottom=0;right=0;pointerEvents=1;" vertex="1" parent="AOiycFXxId-lt1XcVsrU-294">
          <mxGeometry x="544" width="90" height="71" as="geometry">
            <mxRectangle width="90" height="71" as="alternateBounds" />
          </mxGeometry>
        </mxCell>
        <mxCell id="AOiycFXxId-lt1XcVsrU-302" value="" style="shape=partialRectangle;html=1;whiteSpace=wrap;connectable=0;strokeColor=inherit;overflow=hidden;fillColor=none;top=0;left=0;bottom=0;right=0;pointerEvents=1;" vertex="1" parent="AOiycFXxId-lt1XcVsrU-294">
          <mxGeometry x="634" width="91" height="71" as="geometry">
            <mxRectangle width="91" height="71" as="alternateBounds" />
          </mxGeometry>
        </mxCell>
        <mxCell id="AOiycFXxId-lt1XcVsrU-303" value="" style="shape=partialRectangle;html=1;whiteSpace=wrap;connectable=0;strokeColor=inherit;overflow=hidden;fillColor=none;top=0;left=0;bottom=0;right=0;pointerEvents=1;" vertex="1" parent="AOiycFXxId-lt1XcVsrU-294">
          <mxGeometry x="725" width="91" height="71" as="geometry">
            <mxRectangle width="91" height="71" as="alternateBounds" />
          </mxGeometry>
        </mxCell>
        <mxCell id="AOiycFXxId-lt1XcVsrU-304" value="" style="shape=partialRectangle;html=1;whiteSpace=wrap;connectable=0;strokeColor=inherit;overflow=hidden;fillColor=none;top=0;left=0;bottom=0;right=0;pointerEvents=1;" vertex="1" parent="AOiycFXxId-lt1XcVsrU-294">
          <mxGeometry x="816" width="90" height="71" as="geometry">
            <mxRectangle width="90" height="71" as="alternateBounds" />
          </mxGeometry>
        </mxCell>
        <mxCell id="AOiycFXxId-lt1XcVsrU-305" value="" style="shape=partialRectangle;html=1;whiteSpace=wrap;connectable=0;strokeColor=inherit;overflow=hidden;fillColor=none;top=0;left=0;bottom=0;right=0;pointerEvents=1;" vertex="1" parent="AOiycFXxId-lt1XcVsrU-294">
          <mxGeometry x="906" width="91" height="71" as="geometry">
            <mxRectangle width="91" height="71" as="alternateBounds" />
          </mxGeometry>
        </mxCell>
        <mxCell id="AOiycFXxId-lt1XcVsrU-306" value="" style="shape=partialRectangle;html=1;whiteSpace=wrap;connectable=0;strokeColor=inherit;overflow=hidden;fillColor=none;top=0;left=0;bottom=0;right=0;pointerEvents=1;" vertex="1" parent="AOiycFXxId-lt1XcVsrU-294">
          <mxGeometry x="997" width="91" height="71" as="geometry">
            <mxRectangle width="91" height="71" as="alternateBounds" />
          </mxGeometry>
        </mxCell>
        <mxCell id="AOiycFXxId-lt1XcVsrU-307" value="" style="shape=partialRectangle;html=1;whiteSpace=wrap;connectable=0;strokeColor=inherit;overflow=hidden;fillColor=none;top=0;left=0;bottom=0;right=0;pointerEvents=1;" vertex="1" parent="AOiycFXxId-lt1XcVsrU-294">
          <mxGeometry x="1088" width="90" height="71" as="geometry">
            <mxRectangle width="90" height="71" as="alternateBounds" />
          </mxGeometry>
        </mxCell>
        <mxCell id="AOiycFXxId-lt1XcVsrU-308" value="" style="shape=partialRectangle;html=1;whiteSpace=wrap;connectable=0;strokeColor=inherit;overflow=hidden;fillColor=none;top=0;left=0;bottom=0;right=0;pointerEvents=1;" vertex="1" parent="AOiycFXxId-lt1XcVsrU-294">
          <mxGeometry x="1178" width="91" height="71" as="geometry">
            <mxRectangle width="91" height="71" as="alternateBounds" />
          </mxGeometry>
        </mxCell>
        <mxCell id="AOiycFXxId-lt1XcVsrU-309" value="" style="shape=tableRow;horizontal=0;startSize=0;swimlaneHead=0;swimlaneBody=0;strokeColor=inherit;top=0;left=0;bottom=0;right=0;collapsible=0;dropTarget=0;fillColor=none;points=[[0,0.5],[1,0.5]];portConstraint=eastwest;" vertex="1" parent="AOiycFXxId-lt1XcVsrU-248">
          <mxGeometry y="285" width="1269" height="71" as="geometry" />
        </mxCell>
        <mxCell id="AOiycFXxId-lt1XcVsrU-310" value="" style="shape=partialRectangle;html=1;whiteSpace=wrap;connectable=0;strokeColor=inherit;overflow=hidden;fillColor=none;top=0;left=0;bottom=0;right=0;pointerEvents=1;" vertex="1" parent="AOiycFXxId-lt1XcVsrU-309">
          <mxGeometry width="91" height="71" as="geometry">
            <mxRectangle width="91" height="71" as="alternateBounds" />
          </mxGeometry>
        </mxCell>
        <mxCell id="AOiycFXxId-lt1XcVsrU-311" value="" style="shape=partialRectangle;html=1;whiteSpace=wrap;connectable=0;strokeColor=inherit;overflow=hidden;fillColor=none;top=0;left=0;bottom=0;right=0;pointerEvents=1;" vertex="1" parent="AOiycFXxId-lt1XcVsrU-309">
          <mxGeometry x="91" width="90" height="71" as="geometry">
            <mxRectangle width="90" height="71" as="alternateBounds" />
          </mxGeometry>
        </mxCell>
        <mxCell id="AOiycFXxId-lt1XcVsrU-312" value="" style="shape=partialRectangle;html=1;whiteSpace=wrap;connectable=0;strokeColor=inherit;overflow=hidden;fillColor=none;top=0;left=0;bottom=0;right=0;pointerEvents=1;" vertex="1" parent="AOiycFXxId-lt1XcVsrU-309">
          <mxGeometry x="181" width="91" height="71" as="geometry">
            <mxRectangle width="91" height="71" as="alternateBounds" />
          </mxGeometry>
        </mxCell>
        <mxCell id="AOiycFXxId-lt1XcVsrU-313" value="" style="shape=partialRectangle;html=1;whiteSpace=wrap;connectable=0;strokeColor=inherit;overflow=hidden;fillColor=none;top=0;left=0;bottom=0;right=0;pointerEvents=1;" vertex="1" parent="AOiycFXxId-lt1XcVsrU-309">
          <mxGeometry x="272" width="91" height="71" as="geometry">
            <mxRectangle width="91" height="71" as="alternateBounds" />
          </mxGeometry>
        </mxCell>
        <mxCell id="AOiycFXxId-lt1XcVsrU-314" value="" style="shape=partialRectangle;html=1;whiteSpace=wrap;connectable=0;strokeColor=inherit;overflow=hidden;fillColor=none;top=0;left=0;bottom=0;right=0;pointerEvents=1;" vertex="1" parent="AOiycFXxId-lt1XcVsrU-309">
          <mxGeometry x="363" width="90" height="71" as="geometry">
            <mxRectangle width="90" height="71" as="alternateBounds" />
          </mxGeometry>
        </mxCell>
        <mxCell id="AOiycFXxId-lt1XcVsrU-315" value="" style="shape=partialRectangle;html=1;whiteSpace=wrap;connectable=0;strokeColor=inherit;overflow=hidden;fillColor=none;top=0;left=0;bottom=0;right=0;pointerEvents=1;" vertex="1" parent="AOiycFXxId-lt1XcVsrU-309">
          <mxGeometry x="453" width="91" height="71" as="geometry">
            <mxRectangle width="91" height="71" as="alternateBounds" />
          </mxGeometry>
        </mxCell>
        <mxCell id="AOiycFXxId-lt1XcVsrU-316" value="" style="shape=partialRectangle;html=1;whiteSpace=wrap;connectable=0;strokeColor=inherit;overflow=hidden;fillColor=none;top=0;left=0;bottom=0;right=0;pointerEvents=1;" vertex="1" parent="AOiycFXxId-lt1XcVsrU-309">
          <mxGeometry x="544" width="90" height="71" as="geometry">
            <mxRectangle width="90" height="71" as="alternateBounds" />
          </mxGeometry>
        </mxCell>
        <mxCell id="AOiycFXxId-lt1XcVsrU-317" value="" style="shape=partialRectangle;html=1;whiteSpace=wrap;connectable=0;strokeColor=inherit;overflow=hidden;fillColor=none;top=0;left=0;bottom=0;right=0;pointerEvents=1;" vertex="1" parent="AOiycFXxId-lt1XcVsrU-309">
          <mxGeometry x="634" width="91" height="71" as="geometry">
            <mxRectangle width="91" height="71" as="alternateBounds" />
          </mxGeometry>
        </mxCell>
        <mxCell id="AOiycFXxId-lt1XcVsrU-318" value="" style="shape=partialRectangle;html=1;whiteSpace=wrap;connectable=0;strokeColor=inherit;overflow=hidden;fillColor=none;top=0;left=0;bottom=0;right=0;pointerEvents=1;" vertex="1" parent="AOiycFXxId-lt1XcVsrU-309">
          <mxGeometry x="725" width="91" height="71" as="geometry">
            <mxRectangle width="91" height="71" as="alternateBounds" />
          </mxGeometry>
        </mxCell>
        <mxCell id="AOiycFXxId-lt1XcVsrU-319" value="" style="shape=partialRectangle;html=1;whiteSpace=wrap;connectable=0;strokeColor=inherit;overflow=hidden;fillColor=none;top=0;left=0;bottom=0;right=0;pointerEvents=1;" vertex="1" parent="AOiycFXxId-lt1XcVsrU-309">
          <mxGeometry x="816" width="90" height="71" as="geometry">
            <mxRectangle width="90" height="71" as="alternateBounds" />
          </mxGeometry>
        </mxCell>
        <mxCell id="AOiycFXxId-lt1XcVsrU-320" value="" style="shape=partialRectangle;html=1;whiteSpace=wrap;connectable=0;strokeColor=inherit;overflow=hidden;fillColor=none;top=0;left=0;bottom=0;right=0;pointerEvents=1;" vertex="1" parent="AOiycFXxId-lt1XcVsrU-309">
          <mxGeometry x="906" width="91" height="71" as="geometry">
            <mxRectangle width="91" height="71" as="alternateBounds" />
          </mxGeometry>
        </mxCell>
        <mxCell id="AOiycFXxId-lt1XcVsrU-321" value="" style="shape=partialRectangle;html=1;whiteSpace=wrap;connectable=0;strokeColor=inherit;overflow=hidden;fillColor=none;top=0;left=0;bottom=0;right=0;pointerEvents=1;" vertex="1" parent="AOiycFXxId-lt1XcVsrU-309">
          <mxGeometry x="997" width="91" height="71" as="geometry">
            <mxRectangle width="91" height="71" as="alternateBounds" />
          </mxGeometry>
        </mxCell>
        <mxCell id="AOiycFXxId-lt1XcVsrU-322" value="" style="shape=partialRectangle;html=1;whiteSpace=wrap;connectable=0;strokeColor=inherit;overflow=hidden;fillColor=none;top=0;left=0;bottom=0;right=0;pointerEvents=1;" vertex="1" parent="AOiycFXxId-lt1XcVsrU-309">
          <mxGeometry x="1088" width="90" height="71" as="geometry">
            <mxRectangle width="90" height="71" as="alternateBounds" />
          </mxGeometry>
        </mxCell>
        <mxCell id="AOiycFXxId-lt1XcVsrU-323" value="" style="shape=partialRectangle;html=1;whiteSpace=wrap;connectable=0;strokeColor=inherit;overflow=hidden;fillColor=none;top=0;left=0;bottom=0;right=0;pointerEvents=1;" vertex="1" parent="AOiycFXxId-lt1XcVsrU-309">
          <mxGeometry x="1178" width="91" height="71" as="geometry">
            <mxRectangle width="91" height="71" as="alternateBounds" />
          </mxGeometry>
        </mxCell>
        <mxCell id="AOiycFXxId-lt1XcVsrU-324" value="" style="shape=tableRow;horizontal=0;startSize=0;swimlaneHead=0;swimlaneBody=0;strokeColor=inherit;top=0;left=0;bottom=0;right=0;collapsible=0;dropTarget=0;fillColor=none;points=[[0,0.5],[1,0.5]];portConstraint=eastwest;" vertex="1" parent="AOiycFXxId-lt1XcVsrU-248">
          <mxGeometry y="356" width="1269" height="71" as="geometry" />
        </mxCell>
        <mxCell id="AOiycFXxId-lt1XcVsrU-325" value="" style="shape=partialRectangle;html=1;whiteSpace=wrap;connectable=0;strokeColor=inherit;overflow=hidden;fillColor=none;top=0;left=0;bottom=0;right=0;pointerEvents=1;" vertex="1" parent="AOiycFXxId-lt1XcVsrU-324">
          <mxGeometry width="91" height="71" as="geometry">
            <mxRectangle width="91" height="71" as="alternateBounds" />
          </mxGeometry>
        </mxCell>
        <mxCell id="AOiycFXxId-lt1XcVsrU-326" value="" style="shape=partialRectangle;html=1;whiteSpace=wrap;connectable=0;strokeColor=inherit;overflow=hidden;fillColor=none;top=0;left=0;bottom=0;right=0;pointerEvents=1;" vertex="1" parent="AOiycFXxId-lt1XcVsrU-324">
          <mxGeometry x="91" width="90" height="71" as="geometry">
            <mxRectangle width="90" height="71" as="alternateBounds" />
          </mxGeometry>
        </mxCell>
        <mxCell id="AOiycFXxId-lt1XcVsrU-327" value="" style="shape=partialRectangle;html=1;whiteSpace=wrap;connectable=0;strokeColor=inherit;overflow=hidden;fillColor=none;top=0;left=0;bottom=0;right=0;pointerEvents=1;" vertex="1" parent="AOiycFXxId-lt1XcVsrU-324">
          <mxGeometry x="181" width="91" height="71" as="geometry">
            <mxRectangle width="91" height="71" as="alternateBounds" />
          </mxGeometry>
        </mxCell>
        <mxCell id="AOiycFXxId-lt1XcVsrU-328" value="" style="shape=partialRectangle;html=1;whiteSpace=wrap;connectable=0;strokeColor=inherit;overflow=hidden;fillColor=none;top=0;left=0;bottom=0;right=0;pointerEvents=1;" vertex="1" parent="AOiycFXxId-lt1XcVsrU-324">
          <mxGeometry x="272" width="91" height="71" as="geometry">
            <mxRectangle width="91" height="71" as="alternateBounds" />
          </mxGeometry>
        </mxCell>
        <mxCell id="AOiycFXxId-lt1XcVsrU-329" value="" style="shape=partialRectangle;html=1;whiteSpace=wrap;connectable=0;strokeColor=inherit;overflow=hidden;fillColor=none;top=0;left=0;bottom=0;right=0;pointerEvents=1;" vertex="1" parent="AOiycFXxId-lt1XcVsrU-324">
          <mxGeometry x="363" width="90" height="71" as="geometry">
            <mxRectangle width="90" height="71" as="alternateBounds" />
          </mxGeometry>
        </mxCell>
        <mxCell id="AOiycFXxId-lt1XcVsrU-330" value="" style="shape=partialRectangle;html=1;whiteSpace=wrap;connectable=0;strokeColor=inherit;overflow=hidden;fillColor=none;top=0;left=0;bottom=0;right=0;pointerEvents=1;" vertex="1" parent="AOiycFXxId-lt1XcVsrU-324">
          <mxGeometry x="453" width="91" height="71" as="geometry">
            <mxRectangle width="91" height="71" as="alternateBounds" />
          </mxGeometry>
        </mxCell>
        <mxCell id="AOiycFXxId-lt1XcVsrU-331" value="" style="shape=partialRectangle;html=1;whiteSpace=wrap;connectable=0;strokeColor=inherit;overflow=hidden;fillColor=none;top=0;left=0;bottom=0;right=0;pointerEvents=1;" vertex="1" parent="AOiycFXxId-lt1XcVsrU-324">
          <mxGeometry x="544" width="90" height="71" as="geometry">
            <mxRectangle width="90" height="71" as="alternateBounds" />
          </mxGeometry>
        </mxCell>
        <mxCell id="AOiycFXxId-lt1XcVsrU-332" value="" style="shape=partialRectangle;html=1;whiteSpace=wrap;connectable=0;strokeColor=inherit;overflow=hidden;fillColor=none;top=0;left=0;bottom=0;right=0;pointerEvents=1;" vertex="1" parent="AOiycFXxId-lt1XcVsrU-324">
          <mxGeometry x="634" width="91" height="71" as="geometry">
            <mxRectangle width="91" height="71" as="alternateBounds" />
          </mxGeometry>
        </mxCell>
        <mxCell id="AOiycFXxId-lt1XcVsrU-333" value="" style="shape=partialRectangle;html=1;whiteSpace=wrap;connectable=0;strokeColor=inherit;overflow=hidden;fillColor=none;top=0;left=0;bottom=0;right=0;pointerEvents=1;" vertex="1" parent="AOiycFXxId-lt1XcVsrU-324">
          <mxGeometry x="725" width="91" height="71" as="geometry">
            <mxRectangle width="91" height="71" as="alternateBounds" />
          </mxGeometry>
        </mxCell>
        <mxCell id="AOiycFXxId-lt1XcVsrU-334" value="" style="shape=partialRectangle;html=1;whiteSpace=wrap;connectable=0;strokeColor=inherit;overflow=hidden;fillColor=none;top=0;left=0;bottom=0;right=0;pointerEvents=1;" vertex="1" parent="AOiycFXxId-lt1XcVsrU-324">
          <mxGeometry x="816" width="90" height="71" as="geometry">
            <mxRectangle width="90" height="71" as="alternateBounds" />
          </mxGeometry>
        </mxCell>
        <mxCell id="AOiycFXxId-lt1XcVsrU-335" value="" style="shape=partialRectangle;html=1;whiteSpace=wrap;connectable=0;strokeColor=inherit;overflow=hidden;fillColor=none;top=0;left=0;bottom=0;right=0;pointerEvents=1;" vertex="1" parent="AOiycFXxId-lt1XcVsrU-324">
          <mxGeometry x="906" width="91" height="71" as="geometry">
            <mxRectangle width="91" height="71" as="alternateBounds" />
          </mxGeometry>
        </mxCell>
        <mxCell id="AOiycFXxId-lt1XcVsrU-336" value="" style="shape=partialRectangle;html=1;whiteSpace=wrap;connectable=0;strokeColor=inherit;overflow=hidden;fillColor=none;top=0;left=0;bottom=0;right=0;pointerEvents=1;" vertex="1" parent="AOiycFXxId-lt1XcVsrU-324">
          <mxGeometry x="997" width="91" height="71" as="geometry">
            <mxRectangle width="91" height="71" as="alternateBounds" />
          </mxGeometry>
        </mxCell>
        <mxCell id="AOiycFXxId-lt1XcVsrU-337" value="" style="shape=partialRectangle;html=1;whiteSpace=wrap;connectable=0;strokeColor=inherit;overflow=hidden;fillColor=none;top=0;left=0;bottom=0;right=0;pointerEvents=1;" vertex="1" parent="AOiycFXxId-lt1XcVsrU-324">
          <mxGeometry x="1088" width="90" height="71" as="geometry">
            <mxRectangle width="90" height="71" as="alternateBounds" />
          </mxGeometry>
        </mxCell>
        <mxCell id="AOiycFXxId-lt1XcVsrU-338" value="" style="shape=partialRectangle;html=1;whiteSpace=wrap;connectable=0;strokeColor=inherit;overflow=hidden;fillColor=none;top=0;left=0;bottom=0;right=0;pointerEvents=1;" vertex="1" parent="AOiycFXxId-lt1XcVsrU-324">
          <mxGeometry x="1178" width="91" height="71" as="geometry">
            <mxRectangle width="91" height="71" as="alternateBounds" />
          </mxGeometry>
        </mxCell>
        <mxCell id="AOiycFXxId-lt1XcVsrU-339" value="" style="shape=tableRow;horizontal=0;startSize=0;swimlaneHead=0;swimlaneBody=0;strokeColor=inherit;top=0;left=0;bottom=0;right=0;collapsible=0;dropTarget=0;fillColor=none;points=[[0,0.5],[1,0.5]];portConstraint=eastwest;" vertex="1" parent="AOiycFXxId-lt1XcVsrU-248">
          <mxGeometry y="427" width="1269" height="71" as="geometry" />
        </mxCell>
        <mxCell id="AOiycFXxId-lt1XcVsrU-340" value="" style="shape=partialRectangle;html=1;whiteSpace=wrap;connectable=0;strokeColor=inherit;overflow=hidden;fillColor=none;top=0;left=0;bottom=0;right=0;pointerEvents=1;" vertex="1" parent="AOiycFXxId-lt1XcVsrU-339">
          <mxGeometry width="91" height="71" as="geometry">
            <mxRectangle width="91" height="71" as="alternateBounds" />
          </mxGeometry>
        </mxCell>
        <mxCell id="AOiycFXxId-lt1XcVsrU-341" value="" style="shape=partialRectangle;html=1;whiteSpace=wrap;connectable=0;strokeColor=inherit;overflow=hidden;fillColor=none;top=0;left=0;bottom=0;right=0;pointerEvents=1;" vertex="1" parent="AOiycFXxId-lt1XcVsrU-339">
          <mxGeometry x="91" width="90" height="71" as="geometry">
            <mxRectangle width="90" height="71" as="alternateBounds" />
          </mxGeometry>
        </mxCell>
        <mxCell id="AOiycFXxId-lt1XcVsrU-342" value="" style="shape=partialRectangle;html=1;whiteSpace=wrap;connectable=0;strokeColor=inherit;overflow=hidden;fillColor=none;top=0;left=0;bottom=0;right=0;pointerEvents=1;" vertex="1" parent="AOiycFXxId-lt1XcVsrU-339">
          <mxGeometry x="181" width="91" height="71" as="geometry">
            <mxRectangle width="91" height="71" as="alternateBounds" />
          </mxGeometry>
        </mxCell>
        <mxCell id="AOiycFXxId-lt1XcVsrU-343" value="" style="shape=partialRectangle;html=1;whiteSpace=wrap;connectable=0;strokeColor=inherit;overflow=hidden;fillColor=none;top=0;left=0;bottom=0;right=0;pointerEvents=1;" vertex="1" parent="AOiycFXxId-lt1XcVsrU-339">
          <mxGeometry x="272" width="91" height="71" as="geometry">
            <mxRectangle width="91" height="71" as="alternateBounds" />
          </mxGeometry>
        </mxCell>
        <mxCell id="AOiycFXxId-lt1XcVsrU-344" value="" style="shape=partialRectangle;html=1;whiteSpace=wrap;connectable=0;strokeColor=inherit;overflow=hidden;fillColor=none;top=0;left=0;bottom=0;right=0;pointerEvents=1;" vertex="1" parent="AOiycFXxId-lt1XcVsrU-339">
          <mxGeometry x="363" width="90" height="71" as="geometry">
            <mxRectangle width="90" height="71" as="alternateBounds" />
          </mxGeometry>
        </mxCell>
        <mxCell id="AOiycFXxId-lt1XcVsrU-345" value="" style="shape=partialRectangle;html=1;whiteSpace=wrap;connectable=0;strokeColor=inherit;overflow=hidden;fillColor=none;top=0;left=0;bottom=0;right=0;pointerEvents=1;" vertex="1" parent="AOiycFXxId-lt1XcVsrU-339">
          <mxGeometry x="453" width="91" height="71" as="geometry">
            <mxRectangle width="91" height="71" as="alternateBounds" />
          </mxGeometry>
        </mxCell>
        <mxCell id="AOiycFXxId-lt1XcVsrU-346" value="" style="shape=partialRectangle;html=1;whiteSpace=wrap;connectable=0;strokeColor=inherit;overflow=hidden;fillColor=none;top=0;left=0;bottom=0;right=0;pointerEvents=1;" vertex="1" parent="AOiycFXxId-lt1XcVsrU-339">
          <mxGeometry x="544" width="90" height="71" as="geometry">
            <mxRectangle width="90" height="71" as="alternateBounds" />
          </mxGeometry>
        </mxCell>
        <mxCell id="AOiycFXxId-lt1XcVsrU-347" value="" style="shape=partialRectangle;html=1;whiteSpace=wrap;connectable=0;strokeColor=inherit;overflow=hidden;fillColor=none;top=0;left=0;bottom=0;right=0;pointerEvents=1;" vertex="1" parent="AOiycFXxId-lt1XcVsrU-339">
          <mxGeometry x="634" width="91" height="71" as="geometry">
            <mxRectangle width="91" height="71" as="alternateBounds" />
          </mxGeometry>
        </mxCell>
        <mxCell id="AOiycFXxId-lt1XcVsrU-348" value="" style="shape=partialRectangle;html=1;whiteSpace=wrap;connectable=0;strokeColor=inherit;overflow=hidden;fillColor=none;top=0;left=0;bottom=0;right=0;pointerEvents=1;" vertex="1" parent="AOiycFXxId-lt1XcVsrU-339">
          <mxGeometry x="725" width="91" height="71" as="geometry">
            <mxRectangle width="91" height="71" as="alternateBounds" />
          </mxGeometry>
        </mxCell>
        <mxCell id="AOiycFXxId-lt1XcVsrU-349" value="" style="shape=partialRectangle;html=1;whiteSpace=wrap;connectable=0;strokeColor=inherit;overflow=hidden;fillColor=none;top=0;left=0;bottom=0;right=0;pointerEvents=1;" vertex="1" parent="AOiycFXxId-lt1XcVsrU-339">
          <mxGeometry x="816" width="90" height="71" as="geometry">
            <mxRectangle width="90" height="71" as="alternateBounds" />
          </mxGeometry>
        </mxCell>
        <mxCell id="AOiycFXxId-lt1XcVsrU-350" value="" style="shape=partialRectangle;html=1;whiteSpace=wrap;connectable=0;strokeColor=inherit;overflow=hidden;fillColor=none;top=0;left=0;bottom=0;right=0;pointerEvents=1;" vertex="1" parent="AOiycFXxId-lt1XcVsrU-339">
          <mxGeometry x="906" width="91" height="71" as="geometry">
            <mxRectangle width="91" height="71" as="alternateBounds" />
          </mxGeometry>
        </mxCell>
        <mxCell id="AOiycFXxId-lt1XcVsrU-351" value="" style="shape=partialRectangle;html=1;whiteSpace=wrap;connectable=0;strokeColor=inherit;overflow=hidden;fillColor=none;top=0;left=0;bottom=0;right=0;pointerEvents=1;" vertex="1" parent="AOiycFXxId-lt1XcVsrU-339">
          <mxGeometry x="997" width="91" height="71" as="geometry">
            <mxRectangle width="91" height="71" as="alternateBounds" />
          </mxGeometry>
        </mxCell>
        <mxCell id="AOiycFXxId-lt1XcVsrU-352" value="" style="shape=partialRectangle;html=1;whiteSpace=wrap;connectable=0;strokeColor=inherit;overflow=hidden;fillColor=none;top=0;left=0;bottom=0;right=0;pointerEvents=1;" vertex="1" parent="AOiycFXxId-lt1XcVsrU-339">
          <mxGeometry x="1088" width="90" height="71" as="geometry">
            <mxRectangle width="90" height="71" as="alternateBounds" />
          </mxGeometry>
        </mxCell>
        <mxCell id="AOiycFXxId-lt1XcVsrU-353" value="" style="shape=partialRectangle;html=1;whiteSpace=wrap;connectable=0;strokeColor=inherit;overflow=hidden;fillColor=none;top=0;left=0;bottom=0;right=0;pointerEvents=1;" vertex="1" parent="AOiycFXxId-lt1XcVsrU-339">
          <mxGeometry x="1178" width="91" height="71" as="geometry">
            <mxRectangle width="91" height="71" as="alternateBounds" />
          </mxGeometry>
        </mxCell>
        <mxCell id="AOiycFXxId-lt1XcVsrU-354" value="" style="shape=tableRow;horizontal=0;startSize=0;swimlaneHead=0;swimlaneBody=0;strokeColor=inherit;top=0;left=0;bottom=0;right=0;collapsible=0;dropTarget=0;fillColor=none;points=[[0,0.5],[1,0.5]];portConstraint=eastwest;" vertex="1" parent="AOiycFXxId-lt1XcVsrU-248">
          <mxGeometry y="498" width="1269" height="72" as="geometry" />
        </mxCell>
        <mxCell id="AOiycFXxId-lt1XcVsrU-355" value="" style="shape=partialRectangle;html=1;whiteSpace=wrap;connectable=0;strokeColor=inherit;overflow=hidden;fillColor=none;top=0;left=0;bottom=0;right=0;pointerEvents=1;" vertex="1" parent="AOiycFXxId-lt1XcVsrU-354">
          <mxGeometry width="91" height="72" as="geometry">
            <mxRectangle width="91" height="72" as="alternateBounds" />
          </mxGeometry>
        </mxCell>
        <mxCell id="AOiycFXxId-lt1XcVsrU-356" value="" style="shape=partialRectangle;html=1;whiteSpace=wrap;connectable=0;strokeColor=inherit;overflow=hidden;fillColor=none;top=0;left=0;bottom=0;right=0;pointerEvents=1;" vertex="1" parent="AOiycFXxId-lt1XcVsrU-354">
          <mxGeometry x="91" width="90" height="72" as="geometry">
            <mxRectangle width="90" height="72" as="alternateBounds" />
          </mxGeometry>
        </mxCell>
        <mxCell id="AOiycFXxId-lt1XcVsrU-357" value="" style="shape=partialRectangle;html=1;whiteSpace=wrap;connectable=0;strokeColor=inherit;overflow=hidden;fillColor=none;top=0;left=0;bottom=0;right=0;pointerEvents=1;" vertex="1" parent="AOiycFXxId-lt1XcVsrU-354">
          <mxGeometry x="181" width="91" height="72" as="geometry">
            <mxRectangle width="91" height="72" as="alternateBounds" />
          </mxGeometry>
        </mxCell>
        <mxCell id="AOiycFXxId-lt1XcVsrU-358" value="" style="shape=partialRectangle;html=1;whiteSpace=wrap;connectable=0;strokeColor=inherit;overflow=hidden;fillColor=none;top=0;left=0;bottom=0;right=0;pointerEvents=1;" vertex="1" parent="AOiycFXxId-lt1XcVsrU-354">
          <mxGeometry x="272" width="91" height="72" as="geometry">
            <mxRectangle width="91" height="72" as="alternateBounds" />
          </mxGeometry>
        </mxCell>
        <mxCell id="AOiycFXxId-lt1XcVsrU-359" value="" style="shape=partialRectangle;html=1;whiteSpace=wrap;connectable=0;strokeColor=inherit;overflow=hidden;fillColor=none;top=0;left=0;bottom=0;right=0;pointerEvents=1;" vertex="1" parent="AOiycFXxId-lt1XcVsrU-354">
          <mxGeometry x="363" width="90" height="72" as="geometry">
            <mxRectangle width="90" height="72" as="alternateBounds" />
          </mxGeometry>
        </mxCell>
        <mxCell id="AOiycFXxId-lt1XcVsrU-360" value="" style="shape=partialRectangle;html=1;whiteSpace=wrap;connectable=0;strokeColor=inherit;overflow=hidden;fillColor=none;top=0;left=0;bottom=0;right=0;pointerEvents=1;" vertex="1" parent="AOiycFXxId-lt1XcVsrU-354">
          <mxGeometry x="453" width="91" height="72" as="geometry">
            <mxRectangle width="91" height="72" as="alternateBounds" />
          </mxGeometry>
        </mxCell>
        <mxCell id="AOiycFXxId-lt1XcVsrU-361" value="" style="shape=partialRectangle;html=1;whiteSpace=wrap;connectable=0;strokeColor=inherit;overflow=hidden;fillColor=none;top=0;left=0;bottom=0;right=0;pointerEvents=1;" vertex="1" parent="AOiycFXxId-lt1XcVsrU-354">
          <mxGeometry x="544" width="90" height="72" as="geometry">
            <mxRectangle width="90" height="72" as="alternateBounds" />
          </mxGeometry>
        </mxCell>
        <mxCell id="AOiycFXxId-lt1XcVsrU-362" value="" style="shape=partialRectangle;html=1;whiteSpace=wrap;connectable=0;strokeColor=inherit;overflow=hidden;fillColor=none;top=0;left=0;bottom=0;right=0;pointerEvents=1;" vertex="1" parent="AOiycFXxId-lt1XcVsrU-354">
          <mxGeometry x="634" width="91" height="72" as="geometry">
            <mxRectangle width="91" height="72" as="alternateBounds" />
          </mxGeometry>
        </mxCell>
        <mxCell id="AOiycFXxId-lt1XcVsrU-363" value="" style="shape=partialRectangle;html=1;whiteSpace=wrap;connectable=0;strokeColor=inherit;overflow=hidden;fillColor=none;top=0;left=0;bottom=0;right=0;pointerEvents=1;" vertex="1" parent="AOiycFXxId-lt1XcVsrU-354">
          <mxGeometry x="725" width="91" height="72" as="geometry">
            <mxRectangle width="91" height="72" as="alternateBounds" />
          </mxGeometry>
        </mxCell>
        <mxCell id="AOiycFXxId-lt1XcVsrU-364" value="" style="shape=partialRectangle;html=1;whiteSpace=wrap;connectable=0;strokeColor=inherit;overflow=hidden;fillColor=none;top=0;left=0;bottom=0;right=0;pointerEvents=1;" vertex="1" parent="AOiycFXxId-lt1XcVsrU-354">
          <mxGeometry x="816" width="90" height="72" as="geometry">
            <mxRectangle width="90" height="72" as="alternateBounds" />
          </mxGeometry>
        </mxCell>
        <mxCell id="AOiycFXxId-lt1XcVsrU-365" value="" style="shape=partialRectangle;html=1;whiteSpace=wrap;connectable=0;strokeColor=inherit;overflow=hidden;fillColor=none;top=0;left=0;bottom=0;right=0;pointerEvents=1;" vertex="1" parent="AOiycFXxId-lt1XcVsrU-354">
          <mxGeometry x="906" width="91" height="72" as="geometry">
            <mxRectangle width="91" height="72" as="alternateBounds" />
          </mxGeometry>
        </mxCell>
        <mxCell id="AOiycFXxId-lt1XcVsrU-366" value="" style="shape=partialRectangle;html=1;whiteSpace=wrap;connectable=0;strokeColor=inherit;overflow=hidden;fillColor=none;top=0;left=0;bottom=0;right=0;pointerEvents=1;" vertex="1" parent="AOiycFXxId-lt1XcVsrU-354">
          <mxGeometry x="997" width="91" height="72" as="geometry">
            <mxRectangle width="91" height="72" as="alternateBounds" />
          </mxGeometry>
        </mxCell>
        <mxCell id="AOiycFXxId-lt1XcVsrU-367" value="" style="shape=partialRectangle;html=1;whiteSpace=wrap;connectable=0;strokeColor=inherit;overflow=hidden;fillColor=none;top=0;left=0;bottom=0;right=0;pointerEvents=1;" vertex="1" parent="AOiycFXxId-lt1XcVsrU-354">
          <mxGeometry x="1088" width="90" height="72" as="geometry">
            <mxRectangle width="90" height="72" as="alternateBounds" />
          </mxGeometry>
        </mxCell>
        <mxCell id="AOiycFXxId-lt1XcVsrU-368" value="" style="shape=partialRectangle;html=1;whiteSpace=wrap;connectable=0;strokeColor=inherit;overflow=hidden;fillColor=none;top=0;left=0;bottom=0;right=0;pointerEvents=1;" vertex="1" parent="AOiycFXxId-lt1XcVsrU-354">
          <mxGeometry x="1178" width="91" height="72" as="geometry">
            <mxRectangle width="91" height="72" as="alternateBounds" />
          </mxGeometry>
        </mxCell>
        <mxCell id="AOiycFXxId-lt1XcVsrU-369" value="" style="shape=tableRow;horizontal=0;startSize=0;swimlaneHead=0;swimlaneBody=0;strokeColor=inherit;top=0;left=0;bottom=0;right=0;collapsible=0;dropTarget=0;fillColor=none;points=[[0,0.5],[1,0.5]];portConstraint=eastwest;" vertex="1" parent="AOiycFXxId-lt1XcVsrU-248">
          <mxGeometry y="570" width="1269" height="71" as="geometry" />
        </mxCell>
        <mxCell id="AOiycFXxId-lt1XcVsrU-370" value="" style="shape=partialRectangle;html=1;whiteSpace=wrap;connectable=0;strokeColor=inherit;overflow=hidden;fillColor=none;top=0;left=0;bottom=0;right=0;pointerEvents=1;" vertex="1" parent="AOiycFXxId-lt1XcVsrU-369">
          <mxGeometry width="91" height="71" as="geometry">
            <mxRectangle width="91" height="71" as="alternateBounds" />
          </mxGeometry>
        </mxCell>
        <mxCell id="AOiycFXxId-lt1XcVsrU-371" value="" style="shape=partialRectangle;html=1;whiteSpace=wrap;connectable=0;strokeColor=inherit;overflow=hidden;fillColor=none;top=0;left=0;bottom=0;right=0;pointerEvents=1;" vertex="1" parent="AOiycFXxId-lt1XcVsrU-369">
          <mxGeometry x="91" width="90" height="71" as="geometry">
            <mxRectangle width="90" height="71" as="alternateBounds" />
          </mxGeometry>
        </mxCell>
        <mxCell id="AOiycFXxId-lt1XcVsrU-372" value="" style="shape=partialRectangle;html=1;whiteSpace=wrap;connectable=0;strokeColor=inherit;overflow=hidden;fillColor=none;top=0;left=0;bottom=0;right=0;pointerEvents=1;" vertex="1" parent="AOiycFXxId-lt1XcVsrU-369">
          <mxGeometry x="181" width="91" height="71" as="geometry">
            <mxRectangle width="91" height="71" as="alternateBounds" />
          </mxGeometry>
        </mxCell>
        <mxCell id="AOiycFXxId-lt1XcVsrU-373" value="" style="shape=partialRectangle;html=1;whiteSpace=wrap;connectable=0;strokeColor=inherit;overflow=hidden;fillColor=none;top=0;left=0;bottom=0;right=0;pointerEvents=1;" vertex="1" parent="AOiycFXxId-lt1XcVsrU-369">
          <mxGeometry x="272" width="91" height="71" as="geometry">
            <mxRectangle width="91" height="71" as="alternateBounds" />
          </mxGeometry>
        </mxCell>
        <mxCell id="AOiycFXxId-lt1XcVsrU-374" value="" style="shape=partialRectangle;html=1;whiteSpace=wrap;connectable=0;strokeColor=inherit;overflow=hidden;fillColor=none;top=0;left=0;bottom=0;right=0;pointerEvents=1;" vertex="1" parent="AOiycFXxId-lt1XcVsrU-369">
          <mxGeometry x="363" width="90" height="71" as="geometry">
            <mxRectangle width="90" height="71" as="alternateBounds" />
          </mxGeometry>
        </mxCell>
        <mxCell id="AOiycFXxId-lt1XcVsrU-375" value="" style="shape=partialRectangle;html=1;whiteSpace=wrap;connectable=0;strokeColor=inherit;overflow=hidden;fillColor=none;top=0;left=0;bottom=0;right=0;pointerEvents=1;" vertex="1" parent="AOiycFXxId-lt1XcVsrU-369">
          <mxGeometry x="453" width="91" height="71" as="geometry">
            <mxRectangle width="91" height="71" as="alternateBounds" />
          </mxGeometry>
        </mxCell>
        <mxCell id="AOiycFXxId-lt1XcVsrU-376" value="" style="shape=partialRectangle;html=1;whiteSpace=wrap;connectable=0;strokeColor=inherit;overflow=hidden;fillColor=none;top=0;left=0;bottom=0;right=0;pointerEvents=1;" vertex="1" parent="AOiycFXxId-lt1XcVsrU-369">
          <mxGeometry x="544" width="90" height="71" as="geometry">
            <mxRectangle width="90" height="71" as="alternateBounds" />
          </mxGeometry>
        </mxCell>
        <mxCell id="AOiycFXxId-lt1XcVsrU-377" value="" style="shape=partialRectangle;html=1;whiteSpace=wrap;connectable=0;strokeColor=inherit;overflow=hidden;fillColor=none;top=0;left=0;bottom=0;right=0;pointerEvents=1;" vertex="1" parent="AOiycFXxId-lt1XcVsrU-369">
          <mxGeometry x="634" width="91" height="71" as="geometry">
            <mxRectangle width="91" height="71" as="alternateBounds" />
          </mxGeometry>
        </mxCell>
        <mxCell id="AOiycFXxId-lt1XcVsrU-378" value="" style="shape=partialRectangle;html=1;whiteSpace=wrap;connectable=0;strokeColor=inherit;overflow=hidden;fillColor=none;top=0;left=0;bottom=0;right=0;pointerEvents=1;" vertex="1" parent="AOiycFXxId-lt1XcVsrU-369">
          <mxGeometry x="725" width="91" height="71" as="geometry">
            <mxRectangle width="91" height="71" as="alternateBounds" />
          </mxGeometry>
        </mxCell>
        <mxCell id="AOiycFXxId-lt1XcVsrU-379" value="" style="shape=partialRectangle;html=1;whiteSpace=wrap;connectable=0;strokeColor=inherit;overflow=hidden;fillColor=none;top=0;left=0;bottom=0;right=0;pointerEvents=1;" vertex="1" parent="AOiycFXxId-lt1XcVsrU-369">
          <mxGeometry x="816" width="90" height="71" as="geometry">
            <mxRectangle width="90" height="71" as="alternateBounds" />
          </mxGeometry>
        </mxCell>
        <mxCell id="AOiycFXxId-lt1XcVsrU-380" value="" style="shape=partialRectangle;html=1;whiteSpace=wrap;connectable=0;strokeColor=inherit;overflow=hidden;fillColor=none;top=0;left=0;bottom=0;right=0;pointerEvents=1;" vertex="1" parent="AOiycFXxId-lt1XcVsrU-369">
          <mxGeometry x="906" width="91" height="71" as="geometry">
            <mxRectangle width="91" height="71" as="alternateBounds" />
          </mxGeometry>
        </mxCell>
        <mxCell id="AOiycFXxId-lt1XcVsrU-381" value="" style="shape=partialRectangle;html=1;whiteSpace=wrap;connectable=0;strokeColor=inherit;overflow=hidden;fillColor=none;top=0;left=0;bottom=0;right=0;pointerEvents=1;" vertex="1" parent="AOiycFXxId-lt1XcVsrU-369">
          <mxGeometry x="997" width="91" height="71" as="geometry">
            <mxRectangle width="91" height="71" as="alternateBounds" />
          </mxGeometry>
        </mxCell>
        <mxCell id="AOiycFXxId-lt1XcVsrU-382" value="" style="shape=partialRectangle;html=1;whiteSpace=wrap;connectable=0;strokeColor=inherit;overflow=hidden;fillColor=none;top=0;left=0;bottom=0;right=0;pointerEvents=1;" vertex="1" parent="AOiycFXxId-lt1XcVsrU-369">
          <mxGeometry x="1088" width="90" height="71" as="geometry">
            <mxRectangle width="90" height="71" as="alternateBounds" />
          </mxGeometry>
        </mxCell>
        <mxCell id="AOiycFXxId-lt1XcVsrU-383" value="" style="shape=partialRectangle;html=1;whiteSpace=wrap;connectable=0;strokeColor=inherit;overflow=hidden;fillColor=none;top=0;left=0;bottom=0;right=0;pointerEvents=1;" vertex="1" parent="AOiycFXxId-lt1XcVsrU-369">
          <mxGeometry x="1178" width="91" height="71" as="geometry">
            <mxRectangle width="91" height="71" as="alternateBounds" />
          </mxGeometry>
        </mxCell>
        <mxCell id="AOiycFXxId-lt1XcVsrU-384" value="" style="shape=tableRow;horizontal=0;startSize=0;swimlaneHead=0;swimlaneBody=0;strokeColor=inherit;top=0;left=0;bottom=0;right=0;collapsible=0;dropTarget=0;fillColor=none;points=[[0,0.5],[1,0.5]];portConstraint=eastwest;" vertex="1" parent="AOiycFXxId-lt1XcVsrU-248">
          <mxGeometry y="641" width="1269" height="71" as="geometry" />
        </mxCell>
        <mxCell id="AOiycFXxId-lt1XcVsrU-385" value="" style="shape=partialRectangle;html=1;whiteSpace=wrap;connectable=0;strokeColor=inherit;overflow=hidden;fillColor=none;top=0;left=0;bottom=0;right=0;pointerEvents=1;" vertex="1" parent="AOiycFXxId-lt1XcVsrU-384">
          <mxGeometry width="91" height="71" as="geometry">
            <mxRectangle width="91" height="71" as="alternateBounds" />
          </mxGeometry>
        </mxCell>
        <mxCell id="AOiycFXxId-lt1XcVsrU-386" value="" style="shape=partialRectangle;html=1;whiteSpace=wrap;connectable=0;strokeColor=inherit;overflow=hidden;fillColor=none;top=0;left=0;bottom=0;right=0;pointerEvents=1;" vertex="1" parent="AOiycFXxId-lt1XcVsrU-384">
          <mxGeometry x="91" width="90" height="71" as="geometry">
            <mxRectangle width="90" height="71" as="alternateBounds" />
          </mxGeometry>
        </mxCell>
        <mxCell id="AOiycFXxId-lt1XcVsrU-387" value="" style="shape=partialRectangle;html=1;whiteSpace=wrap;connectable=0;strokeColor=inherit;overflow=hidden;fillColor=none;top=0;left=0;bottom=0;right=0;pointerEvents=1;" vertex="1" parent="AOiycFXxId-lt1XcVsrU-384">
          <mxGeometry x="181" width="91" height="71" as="geometry">
            <mxRectangle width="91" height="71" as="alternateBounds" />
          </mxGeometry>
        </mxCell>
        <mxCell id="AOiycFXxId-lt1XcVsrU-388" value="" style="shape=partialRectangle;html=1;whiteSpace=wrap;connectable=0;strokeColor=inherit;overflow=hidden;fillColor=none;top=0;left=0;bottom=0;right=0;pointerEvents=1;" vertex="1" parent="AOiycFXxId-lt1XcVsrU-384">
          <mxGeometry x="272" width="91" height="71" as="geometry">
            <mxRectangle width="91" height="71" as="alternateBounds" />
          </mxGeometry>
        </mxCell>
        <mxCell id="AOiycFXxId-lt1XcVsrU-389" value="" style="shape=partialRectangle;html=1;whiteSpace=wrap;connectable=0;strokeColor=inherit;overflow=hidden;fillColor=none;top=0;left=0;bottom=0;right=0;pointerEvents=1;" vertex="1" parent="AOiycFXxId-lt1XcVsrU-384">
          <mxGeometry x="363" width="90" height="71" as="geometry">
            <mxRectangle width="90" height="71" as="alternateBounds" />
          </mxGeometry>
        </mxCell>
        <mxCell id="AOiycFXxId-lt1XcVsrU-390" value="" style="shape=partialRectangle;html=1;whiteSpace=wrap;connectable=0;strokeColor=inherit;overflow=hidden;fillColor=none;top=0;left=0;bottom=0;right=0;pointerEvents=1;" vertex="1" parent="AOiycFXxId-lt1XcVsrU-384">
          <mxGeometry x="453" width="91" height="71" as="geometry">
            <mxRectangle width="91" height="71" as="alternateBounds" />
          </mxGeometry>
        </mxCell>
        <mxCell id="AOiycFXxId-lt1XcVsrU-391" value="" style="shape=partialRectangle;html=1;whiteSpace=wrap;connectable=0;strokeColor=inherit;overflow=hidden;fillColor=none;top=0;left=0;bottom=0;right=0;pointerEvents=1;" vertex="1" parent="AOiycFXxId-lt1XcVsrU-384">
          <mxGeometry x="544" width="90" height="71" as="geometry">
            <mxRectangle width="90" height="71" as="alternateBounds" />
          </mxGeometry>
        </mxCell>
        <mxCell id="AOiycFXxId-lt1XcVsrU-392" value="" style="shape=partialRectangle;html=1;whiteSpace=wrap;connectable=0;strokeColor=inherit;overflow=hidden;fillColor=none;top=0;left=0;bottom=0;right=0;pointerEvents=1;" vertex="1" parent="AOiycFXxId-lt1XcVsrU-384">
          <mxGeometry x="634" width="91" height="71" as="geometry">
            <mxRectangle width="91" height="71" as="alternateBounds" />
          </mxGeometry>
        </mxCell>
        <mxCell id="AOiycFXxId-lt1XcVsrU-393" value="" style="shape=partialRectangle;html=1;whiteSpace=wrap;connectable=0;strokeColor=inherit;overflow=hidden;fillColor=none;top=0;left=0;bottom=0;right=0;pointerEvents=1;" vertex="1" parent="AOiycFXxId-lt1XcVsrU-384">
          <mxGeometry x="725" width="91" height="71" as="geometry">
            <mxRectangle width="91" height="71" as="alternateBounds" />
          </mxGeometry>
        </mxCell>
        <mxCell id="AOiycFXxId-lt1XcVsrU-394" value="" style="shape=partialRectangle;html=1;whiteSpace=wrap;connectable=0;strokeColor=inherit;overflow=hidden;fillColor=none;top=0;left=0;bottom=0;right=0;pointerEvents=1;" vertex="1" parent="AOiycFXxId-lt1XcVsrU-384">
          <mxGeometry x="816" width="90" height="71" as="geometry">
            <mxRectangle width="90" height="71" as="alternateBounds" />
          </mxGeometry>
        </mxCell>
        <mxCell id="AOiycFXxId-lt1XcVsrU-395" value="" style="shape=partialRectangle;html=1;whiteSpace=wrap;connectable=0;strokeColor=inherit;overflow=hidden;fillColor=none;top=0;left=0;bottom=0;right=0;pointerEvents=1;" vertex="1" parent="AOiycFXxId-lt1XcVsrU-384">
          <mxGeometry x="906" width="91" height="71" as="geometry">
            <mxRectangle width="91" height="71" as="alternateBounds" />
          </mxGeometry>
        </mxCell>
        <mxCell id="AOiycFXxId-lt1XcVsrU-396" value="" style="shape=partialRectangle;html=1;whiteSpace=wrap;connectable=0;strokeColor=inherit;overflow=hidden;fillColor=none;top=0;left=0;bottom=0;right=0;pointerEvents=1;" vertex="1" parent="AOiycFXxId-lt1XcVsrU-384">
          <mxGeometry x="997" width="91" height="71" as="geometry">
            <mxRectangle width="91" height="71" as="alternateBounds" />
          </mxGeometry>
        </mxCell>
        <mxCell id="AOiycFXxId-lt1XcVsrU-397" value="" style="shape=partialRectangle;html=1;whiteSpace=wrap;connectable=0;strokeColor=inherit;overflow=hidden;fillColor=none;top=0;left=0;bottom=0;right=0;pointerEvents=1;" vertex="1" parent="AOiycFXxId-lt1XcVsrU-384">
          <mxGeometry x="1088" width="90" height="71" as="geometry">
            <mxRectangle width="90" height="71" as="alternateBounds" />
          </mxGeometry>
        </mxCell>
        <mxCell id="AOiycFXxId-lt1XcVsrU-398" value="" style="shape=partialRectangle;html=1;whiteSpace=wrap;connectable=0;strokeColor=inherit;overflow=hidden;fillColor=none;top=0;left=0;bottom=0;right=0;pointerEvents=1;" vertex="1" parent="AOiycFXxId-lt1XcVsrU-384">
          <mxGeometry x="1178" width="91" height="71" as="geometry">
            <mxRectangle width="91" height="71" as="alternateBounds" />
          </mxGeometry>
        </mxCell>
        <mxCell id="AOiycFXxId-lt1XcVsrU-399" value="" style="rounded=0;whiteSpace=wrap;html=1;strokeWidth=7;" vertex="1" parent="1">
          <mxGeometry x="7440" y="318" width="1280" height="720" as="geometry" />
        </mxCell>
        <mxCell id="AOiycFXxId-lt1XcVsrU-400" value="&lt;b&gt;&lt;font style=&quot;font-size: 24px;&quot;&gt;SETTING&lt;/font&gt;&lt;/b&gt;&lt;div&gt;&lt;b&gt;&lt;font style=&quot;font-size: 24px;&quot;&gt;&lt;br&gt;&lt;/font&gt;&lt;/b&gt;&lt;/div&gt;&lt;div&gt;&lt;b&gt;&lt;font style=&quot;font-size: 24px;&quot;&gt;&lt;br&gt;&lt;/font&gt;&lt;/b&gt;&lt;/div&gt;&lt;div&gt;&lt;b&gt;&lt;font style=&quot;font-size: 24px;&quot;&gt;&lt;br&gt;&lt;/font&gt;&lt;/b&gt;&lt;/div&gt;&lt;div&gt;&lt;b&gt;&lt;font style=&quot;font-size: 24px;&quot;&gt;&lt;br&gt;&lt;/font&gt;&lt;/b&gt;&lt;/div&gt;&lt;div&gt;&lt;b&gt;&lt;font style=&quot;font-size: 24px;&quot;&gt;&lt;br&gt;&lt;/font&gt;&lt;/b&gt;&lt;/div&gt;&lt;div&gt;&lt;b&gt;&lt;font style=&quot;font-size: 24px;&quot;&gt;&lt;br&gt;&lt;/font&gt;&lt;/b&gt;&lt;/div&gt;&lt;div&gt;&lt;b&gt;&lt;font style=&quot;font-size: 24px;&quot;&gt;&lt;br&gt;&lt;/font&gt;&lt;/b&gt;&lt;/div&gt;&lt;div&gt;&lt;b&gt;&lt;font style=&quot;font-size: 24px;&quot;&gt;&lt;br&gt;&lt;/font&gt;&lt;/b&gt;&lt;/div&gt;&lt;div&gt;&lt;b&gt;&lt;font style=&quot;font-size: 24px;&quot;&gt;&lt;br&gt;&lt;/font&gt;&lt;/b&gt;&lt;/div&gt;&lt;div&gt;&lt;b&gt;&lt;font style=&quot;font-size: 24px;&quot;&gt;&lt;br&gt;&lt;/font&gt;&lt;/b&gt;&lt;/div&gt;&lt;div&gt;&lt;b&gt;&lt;font style=&quot;font-size: 24px;&quot;&gt;&lt;br&gt;&lt;/font&gt;&lt;/b&gt;&lt;/div&gt;&lt;div&gt;&lt;b&gt;&lt;font style=&quot;font-size: 24px;&quot;&gt;&lt;br&gt;&lt;/font&gt;&lt;/b&gt;&lt;/div&gt;&lt;div&gt;&lt;b&gt;&lt;font style=&quot;font-size: 24px;&quot;&gt;&lt;br&gt;&lt;/font&gt;&lt;/b&gt;&lt;/div&gt;" style="rounded=1;whiteSpace=wrap;html=1;strokeWidth=5;" vertex="1" parent="1">
          <mxGeometry x="7923" y="439" width="350" height="457" as="geometry" />
        </mxCell>
        <mxCell id="AOiycFXxId-lt1XcVsrU-401" value="&lt;font size=&quot;1&quot;&gt;&lt;b style=&quot;font-size: 19px;&quot;&gt;RESUME&lt;/b&gt;&lt;/font&gt;" style="rounded=1;whiteSpace=wrap;html=1;strokeWidth=4;" vertex="1" parent="1">
          <mxGeometry x="7991" y="539" width="227" height="60" as="geometry" />
        </mxCell>
        <mxCell id="AOiycFXxId-lt1XcVsrU-402" value="&lt;span style=&quot;font-size: 19px;&quot;&gt;&lt;b&gt;RESTART&lt;/b&gt;&lt;/span&gt;" style="rounded=1;whiteSpace=wrap;html=1;strokeWidth=4;" vertex="1" parent="1">
          <mxGeometry x="7988" y="646" width="227" height="60" as="geometry" />
        </mxCell>
        <mxCell id="AOiycFXxId-lt1XcVsrU-403" value="&lt;font size=&quot;1&quot;&gt;&lt;b style=&quot;font-size: 19px;&quot;&gt;EXIT&lt;/b&gt;&lt;/font&gt;" style="rounded=1;whiteSpace=wrap;html=1;strokeWidth=4;" vertex="1" parent="1">
          <mxGeometry x="7991" y="752" width="227" height="60" as="geometry" />
        </mxCell>
        <mxCell id="AOiycFXxId-lt1XcVsrU-404" value="" style="rounded=0;whiteSpace=wrap;html=1;strokeWidth=7;" vertex="1" parent="1">
          <mxGeometry x="8855" y="327" width="1280" height="720" as="geometry" />
        </mxCell>
        <mxCell id="AOiycFXxId-lt1XcVsrU-405" value="&lt;span style=&quot;font-size: 19px;&quot;&gt;&lt;b&gt;RESTART&lt;/b&gt;&lt;/span&gt;" style="rounded=1;whiteSpace=wrap;html=1;strokeWidth=4;" vertex="1" parent="1">
          <mxGeometry x="9403" y="655" width="227" height="60" as="geometry" />
        </mxCell>
        <mxCell id="AOiycFXxId-lt1XcVsrU-406" value="&lt;font size=&quot;1&quot;&gt;&lt;b style=&quot;font-size: 19px;&quot;&gt;RESUME&lt;/b&gt;&lt;/font&gt;" style="rounded=1;whiteSpace=wrap;html=1;strokeWidth=4;" vertex="1" parent="1">
          <mxGeometry x="9406" y="548" width="227" height="60" as="geometry" />
        </mxCell>
        <mxCell id="AOiycFXxId-lt1XcVsrU-407" value="&lt;font size=&quot;1&quot;&gt;&lt;b style=&quot;font-size: 19px;&quot;&gt;EXIT&lt;/b&gt;&lt;/font&gt;" style="rounded=1;whiteSpace=wrap;html=1;strokeWidth=4;" vertex="1" parent="1">
          <mxGeometry x="9406" y="761" width="227" height="60" as="geometry" />
        </mxCell>
        <mxCell id="AOiycFXxId-lt1XcVsrU-408" value="&lt;div&gt;&lt;b&gt;&lt;font style=&quot;font-size: 24px;&quot;&gt;WIN&lt;/font&gt;&lt;/b&gt;&lt;/div&gt;&lt;div&gt;&lt;b&gt;&lt;font style=&quot;font-size: 24px;&quot;&gt;&lt;br&gt;&lt;/font&gt;&lt;/b&gt;&lt;/div&gt;&lt;div&gt;&lt;br&gt;&lt;/div&gt;&lt;div&gt;&lt;b style=&quot;font-size: 24px; background-color: initial;&quot;&gt;&lt;br&gt;&lt;/b&gt;&lt;/div&gt;&lt;div&gt;&lt;b style=&quot;font-size: 24px; background-color: initial;&quot;&gt;&lt;br&gt;&lt;/b&gt;&lt;/div&gt;&lt;div&gt;&lt;b style=&quot;font-size: 24px; background-color: initial;&quot;&gt;&lt;br&gt;&lt;/b&gt;&lt;/div&gt;&lt;div&gt;&lt;b style=&quot;font-size: 24px; background-color: initial;&quot;&gt;COMPLETE: 200 $&lt;/b&gt;&lt;br&gt;&lt;/div&gt;&lt;div&gt;&lt;span style=&quot;font-size: 24px;&quot;&gt;&lt;b&gt;BONUS: 50 $&lt;/b&gt;&lt;/span&gt;&lt;/div&gt;&lt;div&gt;&lt;b&gt;&lt;font style=&quot;font-size: 24px;&quot;&gt;&lt;br&gt;&lt;/font&gt;&lt;/b&gt;&lt;/div&gt;&lt;div&gt;&lt;b&gt;&lt;font style=&quot;font-size: 24px;&quot;&gt;&lt;br&gt;&lt;/font&gt;&lt;/b&gt;&lt;/div&gt;&lt;div&gt;&lt;b&gt;&lt;font style=&quot;font-size: 24px;&quot;&gt;&lt;br&gt;&lt;/font&gt;&lt;/b&gt;&lt;/div&gt;&lt;div&gt;&lt;b&gt;&lt;font style=&quot;font-size: 24px;&quot;&gt;&lt;br&gt;&lt;/font&gt;&lt;/b&gt;&lt;/div&gt;" style="rounded=1;whiteSpace=wrap;html=1;strokeWidth=5;" vertex="1" parent="1">
          <mxGeometry x="9338" y="448" width="350" height="457" as="geometry" />
        </mxCell>
        <mxCell id="AOiycFXxId-lt1XcVsrU-409" value="&lt;span style=&quot;font-size: 19px;&quot;&gt;&lt;b&gt;OK&lt;/b&gt;&lt;/span&gt;" style="rounded=1;whiteSpace=wrap;html=1;strokeWidth=4;" vertex="1" parent="1">
          <mxGeometry x="9403" y="789" width="227" height="60" as="geometry" />
        </mxCell>
        <mxCell id="AOiycFXxId-lt1XcVsrU-411" value="" style="verticalLabelPosition=bottom;verticalAlign=top;html=1;shape=mxgraph.basic.star;strokeWidth=27;" vertex="1" parent="1">
          <mxGeometry x="9394" y="595" width="17" height="16.15" as="geometry" />
        </mxCell>
        <mxCell id="AOiycFXxId-lt1XcVsrU-412" value="" style="verticalLabelPosition=bottom;verticalAlign=top;html=1;shape=mxgraph.basic.star;strokeWidth=4;" vertex="1" parent="1">
          <mxGeometry x="9475.98" y="560" width="81.05" height="77" as="geometry" />
        </mxCell>
        <mxCell id="AOiycFXxId-lt1XcVsrU-413" value="" style="verticalLabelPosition=bottom;verticalAlign=top;html=1;shape=mxgraph.basic.star;strokeWidth=4;" vertex="1" parent="1">
          <mxGeometry x="9577" y="558" width="81.05" height="77" as="geometry" />
        </mxCell>
        <mxCell id="AOiycFXxId-lt1XcVsrU-414" value="" style="rounded=0;whiteSpace=wrap;html=1;strokeWidth=7;" vertex="1" parent="1">
          <mxGeometry x="10195" y="331" width="1280" height="720" as="geometry" />
        </mxCell>
        <mxCell id="AOiycFXxId-lt1XcVsrU-415" value="&lt;div&gt;&lt;span style=&quot;font-size: 24px;&quot;&gt;&lt;b&gt;LOSE&lt;/b&gt;&lt;/span&gt;&lt;/div&gt;&lt;div&gt;&lt;b&gt;&lt;font style=&quot;font-size: 24px;&quot;&gt;&lt;br&gt;&lt;/font&gt;&lt;/b&gt;&lt;/div&gt;&lt;div&gt;&lt;br&gt;&lt;/div&gt;&lt;div&gt;&lt;br&gt;&lt;/div&gt;&lt;div&gt;&lt;br&gt;&lt;/div&gt;&lt;div&gt;&lt;br&gt;&lt;/div&gt;&lt;div&gt;&lt;br&gt;&lt;/div&gt;&lt;div&gt;&lt;br&gt;&lt;/div&gt;&lt;div&gt;&lt;br&gt;&lt;/div&gt;&lt;div&gt;&lt;br&gt;&lt;/div&gt;&lt;div&gt;&lt;br&gt;&lt;/div&gt;&lt;div&gt;&lt;br&gt;&lt;/div&gt;&lt;div&gt;&lt;br&gt;&lt;/div&gt;&lt;div&gt;&lt;br&gt;&lt;/div&gt;&lt;div&gt;&lt;br&gt;&lt;/div&gt;&lt;div&gt;&lt;br&gt;&lt;/div&gt;&lt;div&gt;&lt;br&gt;&lt;/div&gt;&lt;div&gt;&lt;br&gt;&lt;/div&gt;&lt;div&gt;&lt;br&gt;&lt;/div&gt;&lt;div&gt;&lt;br&gt;&lt;/div&gt;&lt;div&gt;&lt;br&gt;&lt;/div&gt;&lt;div&gt;&lt;b&gt;&lt;font style=&quot;font-size: 24px;&quot;&gt;&lt;br&gt;&lt;/font&gt;&lt;/b&gt;&lt;/div&gt;" style="rounded=1;whiteSpace=wrap;html=1;strokeWidth=5;" vertex="1" parent="1">
          <mxGeometry x="10678" y="452" width="350" height="457" as="geometry" />
        </mxCell>
        <mxCell id="AOiycFXxId-lt1XcVsrU-416" value="&lt;span style=&quot;font-size: 19px;&quot;&gt;&lt;b&gt;QUIT&lt;/b&gt;&lt;/span&gt;" style="rounded=1;whiteSpace=wrap;html=1;strokeWidth=4;" vertex="1" parent="1">
          <mxGeometry x="10743" y="793" width="227" height="60" as="geometry" />
        </mxCell>
        <mxCell id="AOiycFXxId-lt1XcVsrU-417" value="&lt;span style=&quot;font-size: 19px;&quot;&gt;&lt;b&gt;RESTART&lt;/b&gt;&lt;/span&gt;" style="rounded=1;whiteSpace=wrap;html=1;strokeWidth=4;" vertex="1" parent="1">
          <mxGeometry x="10743" y="700" width="227" height="60" as="geometry" />
        </mxCell>
        <mxCell id="AOiycFXxId-lt1XcVsrU-418" value="" style="shape=actor;whiteSpace=wrap;html=1;strokeWidth=6;" vertex="1" parent="1">
          <mxGeometry x="10831" y="608" width="40" height="60" as="geometry" />
        </mxCell>
        <mxCell id="AOiycFXxId-lt1XcVsrU-419" value="" style="shape=cross;whiteSpace=wrap;html=1;strokeWidth=4;" vertex="1" parent="1">
          <mxGeometry x="10813" y="575" width="80" height="80" as="geometry" />
        </mxCell>
      </root>
    </mxGraphModel>
  </diagram>
</mxfile>
